<svg xmlns="http://www.w3.org/2000/svg">
    <defs>
      <symbol id="edit">
        <g fill="#efecf7">
            <path d="M14.518.774c-.759.38-1.329.854-1.329 1.044s.569.712 1.329 1.139a29.622 29.622 0 0 1 6.643 6.691l1.234 1.851.807-1.613c3.036-5.648-3.18-12.149-8.684-9.112ZM6.823 6.128A24.094 24.094 0 0 0 .381 18.921c-.812 5.127-.609 5.432 3.449 5.026 6.036-.609 12.427-3.96 15.673-8.224l1.42-1.878-.913-1.675a24.776 24.776 0 0 0-2.587-3.706c-1.724-2.028-6.137-5.128-7.253-5.128-.355 0-1.876 1.269-3.347 2.792Zm.609 10.661c2.536 2.538 2.181 3.858-1.319 4.721-3.753.914-4.261.609-3.855-2.081.862-4.976 2.181-5.636 5.173-2.64Z"/>
        </g>
      </symbol>
    </defs>
</svg>