<svg xmlns="http://www.w3.org/2000/svg" xmlns:xlink="http://www.w3.org/1999/xlink">
  <defs>
    <symbol viewBox="0 0 25.782 27.998" id="bell-25">
      <g>
        <path d="M11.488.75a3.805 3.805 0 0 1-1.8 1.55c-3.2 1.65-5.8 5.85-7.05 11.249a11.762 11.762 0 0 1-1.85 4.25c-1.45 1.55-.95 2.5 1.9 3.8 5 2.25 19.4 1.65 22.248-.95 1.15-1.05 1.15-1.6-.15-2.95a11.763 11.763 0 0 1-1.75-4.15c-1.25-5.4-3.85-9.6-7.05-11.249a3.805 3.805 0 0 1-1.8-1.55A1.623 1.623 0 0 0 12.838 0a1.623 1.623 0 0 0-1.35.75Z"/>
        <path d="M8.838 25.698c0 1.05 2.25 2.3 4.1 2.3 1.9 0 3.9-1.2 3.9-2.3 0-.55-.85-.7-4-.7-3.05 0-4 .15-4 .7Z"/>
      </g>
    </symbol>
    <symbol viewBox="0 0 22.1 23.999" id="bell-22">
      <g>
        <path d="M9.847.619a3.225 3.225 0 0 1-1.543 1.28c-2.743 1.363-4.971 4.832-6.043 9.292A9.547 9.547 0 0 1 .678 14.7c-1.243 1.28-.814 2.065 1.629 3.139C6.59 19.7 18.932 19.2 21.378 17.057c.986-.867.986-1.322-.129-2.437a9.539 9.539 0 0 1-1.5-3.428c-1.071-4.46-3.3-7.929-6.043-9.292A3.225 3.225 0 0 1 12.163.62 1.4 1.4 0 0 0 11.004 0a1.4 1.4 0 0 0-1.157.619Z"/>
        <path d="M7.008 21.699c0 1.05 2.25 2.3 4.1 2.3 1.9 0 3.9-1.2 3.9-2.3 0-.55-.85-.7-4-.7-3.05 0-4 .15-4 .7Z"/>
      </g>
    </symbol>

    <symbol viewBox="0 0 24 24.073" id="edit-24">
      <g>
        <path d="M14.518.774c-.759.38-1.329.854-1.329 1.044s.569.712 1.329 1.139a29.622 29.622 0 0 1 6.643 6.691l1.234 1.851.807-1.613c3.036-5.648-3.18-12.149-8.684-9.112ZM6.823 6.128A24.094 24.094 0 0 0 .381 18.921c-.812 5.127-.609 5.432 3.449 5.026 6.036-.609 12.427-3.96 15.673-8.224l1.42-1.878-.913-1.675a24.776 24.776 0 0 0-2.587-3.706c-1.724-2.028-6.137-5.128-7.253-5.128-.355 0-1.876 1.269-3.347 2.792Zm.609 10.661c2.536 2.538 2.181 3.858-1.319 4.721-3.753.914-4.261.609-3.855-2.081.862-4.976 2.181-5.636 5.173-2.64Z"/>
      </g>
    </symbol>

    <symbol viewBox="0 0 19 19" id="exit-19">
      <g>
        <path d="M1.5 19a1.5 1.5 0 0 1-1.061-.439 1.5 1.5 0 0 1 0-2.121l16-16a1.5 1.5 0 0 1 2.121 0 1.5 1.5 0 0 1 0 2.121l-16 16A1.5 1.5 0 0 1 1.5 19Z"/>
        <path d="M17.5 19a1.5 1.5 0 0 1-1.061-.439l-16-16a1.5 1.5 0 0 1 0-2.121 1.5 1.5 0 0 1 2.121 0l16 16A1.5 1.5 0 0 1 17.5 19Z"/>
      </g>
    </symbol>
    <symbol viewBox="0 0 14 14" id="exit-14">
      <g>
        <path d="M1.105 14a1.1 1.1 0 0 1-.782-.324 1.105 1.105 0 0 1 0-1.563L12.113.324a1.105 1.105 0 0 1 1.563 0 1.105 1.105 0 0 1 0 1.563L1.887 13.676a1.1 1.1 0 0 1-.782.324Z"/>
        <path d="M12.895 14a1.1 1.1 0 0 1-.782-.324L.324 1.887a1.105 1.105 0 0 1 0-1.563 1.105 1.105 0 0 1 1.563 0l11.789 11.789A1.105 1.105 0 0 1 12.894 14Z"/>
      </g>
    </symbol>
  </defs>
</svg>