<svg xmlns="http://www.w3.org/2000/svg" xmlns:xlink="http://www.w3.org/1999/xlink">
  <defs>
    <symbol viewBox="0 0 16 16.656" id="adjust">
      <g>
        <path d="M1.941.208a1.5 1.5 0 0 0-.208.867c0 .659 0 .659.693.659s.693 0 .693-.659C3.119.382 2.876 0 2.426 0a.766.766 0 0 0-.485.208Z"/>
        <path d="M7.488.243c-.139.156-.191 1.421-.156 4.195l.052 3.969h1.213l.052-3.969C8.684.347 8.649 0 7.99 0a.7.7 0 0 0-.502.243Z"/>
        <path d="M13.053.243a3.005 3.005 0 0 0-.156 1.439l.052 1.179h1.213l.052-1.179c.052-1.248-.121-1.681-.659-1.681a.7.7 0 0 0-.502.242Z"/>
        <path d="M1.231 3.378A1.7 1.7 0 0 0 0 5.059a1.719 1.719 0 0 0 1.421 1.959c.277.087.312.5.347 4.715.052 4.195.087 4.646.347 4.819a.494.494 0 0 0 .607 0c.277-.173.312-.624.364-4.819.035-4.212.069-4.628.347-4.715A1.733 1.733 0 0 0 4.8 4.851a1.557 1.557 0 0 0-1.317-1.508 3.244 3.244 0 0 0-2.252.035Z"/>
        <path d="M12.429 4.471a1.617 1.617 0 0 0-1.3 1.75 1.746 1.746 0 0 0 1.127 1.768l.607.191.035 4.091c.052 3.675.087 4.108.364 4.282a.494.494 0 0 0 .607 0c.26-.173.295-.607.347-4.282l.035-4.091.607-.191a1.883 1.883 0 0 0 .139-3.4 3.1 3.1 0 0 0-2.568-.118Z"/>
        <path d="M6.865 10.018a1.617 1.617 0 0 0-1.3 1.75 1.755 1.755 0 0 0 1.109 1.768l.607.191.052 1.317c.035 1.023.121 1.352.347 1.508a.52.52 0 0 0 .624 0c.225-.156.312-.485.347-1.508l.052-1.317.607-.191a1.888 1.888 0 0 0 .121-3.4 3.1 3.1 0 0 0-2.566-.118Z"/>
      </g>
    </symbol>

    <symbol viewBox="0 0 48.003 39.507" id="badge">
      <path d="M9.642.663C3.497 1.989 3.497 1.989 2.834 3.315a34.4 34.4 0 0 0-2.665 11.72 50.659 50.659 0 0 0 1.206 16.132C2.613 35.809 3.188 36.826 5 37.223c13.218 2.962 25.375 3.05 37.267.221 2.476-.575 2.652-.752 3.581-3.537a49.561 49.561 0 0 0 0-28.912c-.928-2.7-1.194-3.05-2.962-3.4-.752-.133-2.918-.53-4.73-.928A35.965 35.965 0 0 0 33.47 0c-1.282 0-1.415.133-1.9 2.343-.707 2.785-1.105 3.448-3.139 4.686a10.644 10.644 0 0 1-8.842 0c-2.034-1.238-2.431-1.9-3.139-4.686L15.919 0l-1.813.044a33.352 33.352 0 0 0-4.464.619Zm8.488 13.483a3.822 3.822 0 0 1-1.99 7.074 3.83 3.83 0 0 1-2.166-7.12 4.053 4.053 0 0 1 2.078-.612 3.274 3.274 0 0 1 2.078.658Zm22.723 2.741q1.326 2.321-3.316 2.785c-3.095.354-7.25-.044-8.09-.752a1.685 1.685 0 0 1-.137-2.386c.265-.265 2.741-.442 5.791-.442 4.602.044 5.398.132 5.752.795Zm-20.822 6.676c2.564.884 3.979 1.989 3.979 3.139 0 2.122-2.874 3.36-7.957 3.36s-7.957-1.238-7.957-3.36c-.001-2.741 7.514-4.687 11.935-3.139Zm20.822 2.166q1.326 2.321-3.316 2.785c-3.095.354-7.25-.044-8.09-.752a1.685 1.685 0 0 1-.137-2.387c.265-.265 2.741-.442 5.791-.442 4.602.044 5.398.133 5.752.796Z" />
    </symbol>

    <symbol viewBox="0 0 25.782 27.998" id="bell">
      <g>
        <path d="M11.488.75a3.805 3.805 0 0 1-1.8 1.55c-3.2 1.65-5.8 5.85-7.05 11.249a11.762 11.762 0 0 1-1.85 4.25c-1.45 1.55-.95 2.5 1.9 3.8 5 2.25 19.4 1.65 22.248-.95 1.15-1.05 1.15-1.6-.15-2.95a11.763 11.763 0 0 1-1.75-4.15c-1.25-5.4-3.85-9.6-7.05-11.249a3.805 3.805 0 0 1-1.8-1.55A1.623 1.623 0 0 0 12.838 0a1.623 1.623 0 0 0-1.35.75Z"/>
        <path d="M8.838 25.698c0 1.05 2.25 2.3 4.1 2.3 1.9 0 3.9-1.2 3.9-2.3 0-.55-.85-.7-4-.7-3.05 0-4 .15-4 .7Z"/>
      </g>
    </symbol>

    <symbol viewBox="0 0 24 16.961" id="check-mark">
      <path d="M21.309 1.189a47.164 47.164 0 0 0-9.994 9.283c-1.516 1.847-2.794 3.458-2.842 3.552a19.386 19.386 0 0 1-2.747-2.652C2.789 8.293.942 7.062.232 7.772c-.568.569-.189 1.039 2.226 2.939a24.194 24.194 0 0 1 3.694 3.884 8.394 8.394 0 0 0 2.131 2.368 9.961 9.961 0 0 0 2.179-2.51A56.883 56.883 0 0 1 21.214 3.605c2.558-1.895 3.079-2.51 2.652-3.031-.662-.806-.331-.9-2.557.615Z"/>
    </symbol>

    <symbol viewBox="0 0 19.997 15.21" id="discord">
      <path d="M16.908 1.292A16.093 16.093 0 0 1 20 11.316v1.351s-3.9 2.543-5.091 2.543l-1.154-1.677c.717-.321 1.695-.879 1.695-.879l-.357-.277A13.449 13.449 0 0 1 10 13.437a13.449 13.449 0 0 1-5.091-1.059l-.357.277s.978.557 1.695.879l-1.154 1.677C3.9 15.21 0 12.668 0 12.668v-1.352A16.093 16.093 0 0 1 3.09 1.292 16.084 16.084 0 0 1 7.155 0l.606 1.148a11.352 11.352 0 0 1 4.477 0L12.843 0a16.083 16.083 0 0 1 4.065 1.292ZM6.669 10.374a2.014 2.014 0 0 0 0-4 2.014 2.014 0 0 0 0 4Zm6.658 0a2.014 2.014 0 0 0 0-4 2.014 2.014 0 0 0 0 4Z"/>
    </symbol>

    <symbol viewBox="0 0 32 32.098" id="edit">
      <g>
        <path d="M19.357 1.031c-1.013.507-1.772 1.14-1.772 1.393s.759.949 1.772 1.518c2.341 1.392 6.9 6.011 8.858 8.921l1.644 2.468 1.076-2.151c4.05-7.529-4.239-16.197-11.578-12.149Z"/>
        <path d="M9.097 8.172A32.126 32.126 0 0 0 .508 25.229c-1.082 6.836-.812 7.242 4.6 6.7 8.048-.812 16.569-5.28 20.9-10.965l1.894-2.5-1.221-2.238a33.035 33.035 0 0 0-3.449-4.941c-2.3-2.707-8.181-6.836-9.671-6.836-.474 0-2.503 1.692-4.464 3.723Zm.812 14.214c3.382 3.384 2.908 5.144-1.758 6.295-5 1.218-5.681.812-5.14-2.775 1.149-6.634 2.907-7.514 6.898-3.52Z"/>
    </g>
    </symbol>

    <symbol viewBox="0 0 45 45.562" id="enter">
      <path d="M19.759.165c-5.866.879-8.48 1.494-9.666 2.285-2.043 1.362-2.438 2.7-3.581 12.764l-.264 2.2-2.417.044c-3.01.088-3.273.132-3.581.835a1.761 1.761 0 0 0 .286 2.2l.527.549h11.2c7.359 0 11.248-.066 11.336-.22.088-.132-.154-.593-.483-1.054a8.517 8.517 0 0 1-1.823-4 1.367 1.367 0 0 1 .571-1.3c.33-.264.755-.583 1.054-.461.817.086 1.564 1.368 1.806 1.758a16.493 16.493 0 0 0 2.763 3.471 21.843 21.843 0 0 1 1.955 1.6c.725.681.857.945.857 1.714 0 1.406-.308 1.867-1.977 2.966a10.357 10.357 0 0 0-3.207 3.625c-1.142 2.329-2.065 2.9-3.251 1.977-.835-.659-.769-1.757.22-3.647a11.005 11.005 0 0 1 1.23-1.977c.242-.264.373-.571.286-.7-.2-.352-16.63-.33-16.981.022-.483.483-.286 4.46.483 10.611.659 5.119 1.362 6.81 3.273 7.865.945.527 3.383 1.142 7.293 1.845a75.257 75.257 0 0 0 16.037 0c6.151-1.1 7.689-1.67 8.853-3.251.967-1.318 1.406-3.405 2.241-10.962.264-2.329.264-13.994 0-16.366-.989-9.007-1.494-10.764-3.515-12.1-.835-.549-3.757-1.34-7.359-1.977A87.821 87.821 0 0 0 19.759.165Z"/>
    </symbol>

    <symbol viewBox="0 0 19 19" id="exit">
      <g>
        <path d="M1.5 19a1.5 1.5 0 0 1-1.061-.439 1.5 1.5 0 0 1 0-2.121l16-16a1.5 1.5 0 0 1 2.121 0 1.5 1.5 0 0 1 0 2.121l-16 16A1.5 1.5 0 0 1 1.5 19Z"/>
        <path d="M17.5 19a1.5 1.5 0 0 1-1.061-.439l-16-16a1.5 1.5 0 0 1 0-2.121 1.5 1.5 0 0 1 2.121 0l16 16A1.5 1.5 0 0 1 17.5 19Z"/>
      </g>
    </symbol>

    <symbol viewBox="0 0 18 10" id="expand">
      <g>
        <path d="M9 10a1 1 0 0 1-.707-.293l-8-8a1 1 0 0 1 0-1.414 1 1 0 0 1 1.414 0l8 8A1 1 0 0 1 9 10Z"/>
        <path d="M9 10a1 1 0 0 1-.707-.293 1 1 0 0 1 0-1.414l8-8a1 1 0 0 1 1.414 0 1 1 0 0 1 0 1.414l-8 8A1 1 0 0 1 9 10Z"/>
      </g>
    </symbol>

    <symbol viewBox="0 0 18.002 9.061" id="eye">
      <g>
        <path d="M4.7.772a14.783 14.783 0 0 0-3.123 2.2L0 4.409l1.58 1.433c4.666 4.262 10.066 4.3 14.842.073l1.58-1.433-.735-.808A17.481 17.481 0 0 0 12.528.368L11.61.037l.7 1.176a4.864 4.864 0 0 1 .735 2.021A4.447 4.447 0 0 1 9 7.348a4.447 4.447 0 0 1-4.04-4.115 5 5 0 0 1 .735-2.057A3.747 3.747 0 0 0 6.319 0C6.282 0 5.548.331 4.7.772Z"/>
        <path d="M7.749 2.056a1.814 1.814 0 0 0 1.252 3.093 2.042 2.042 0 0 0 1.841-1.841 2.042 2.042 0 0 0-1.841-1.841 1.986 1.986 0 0 0-1.252.589Z"/>
      </g>
    </symbol>
    <symbol viewBox="0 0 17.998 15.007" id="eye-closed">
      <g>
        <path d="M6.09.388a9.638 9.638 0 0 0-2.214 1.168c-.765.523-.886.765-.443 1.168.4.443.725.4 1.691-.161a7.976 7.976 0 0 1 7.166-.282c2.174.926 2.778.886 2.375-.161C14.021.468 8.626-.619 6.09.388Z"/>
        <path d="M.454 5.698a2.407 2.407 0 0 0 .6 1.731l.809 1.169L.776 9.647c-.805.845-.966 1.168-.564 1.57.362.362.725.242 1.57-.6 1.087-1.007 1.127-1.047 2.094-.322.926.725.926.765.282 1.691-.805 1.168-.805 1.812-.04 2.134.4.121.805-.242 1.248-1.087.362-.725.725-1.329.765-1.409a2.621 2.621 0 0 1 1.127.121c.845.242 1.047.564 1.168 1.731.161 2.053 1.288 2.053 1.449-.04.081-.805.282-1.49.483-1.49a3.5 3.5 0 0 0 .926-.242c.362-.121.886.322 1.449 1.248 1.288 2.214 2.134 1.087 1.087-1.49-.2-.443-.04-.805.564-1.127.725-.4 1.047-.322 1.771.362a2.956 2.956 0 0 0 1.369.845c.765 0 .564-1.409-.322-2.214-.765-.725-.765-.725.04-1.892.765-1.087.805-2.335.04-2.335a8.917 8.917 0 0 0-1.855 1.849 8.685 8.685 0 0 1-6.281 3.382A9.368 9.368 0 0 1 2.06 6.105C1.34 4.977.776 4.816.454 5.698Z"/>
      </g>
    </symbol>

    <symbol viewBox="0 0 18 18" id="facebook">
      <path d="M16 0H2a2 2 0 0 0-2 2v14a2 2 0 0 0 2 2h7.621v-6.961H7.278V8.314h2.343v-2a3.275 3.275 0 0 1 3.5-3.591 20.018 20.018 0 0 1 2.092.105v2.43H13.78c-1.13 0-1.35.534-1.35 1.322v1.73h2.7l-.351 2.725h-2.365V18H16a2 2 0 0 0 2-2V2a2 2 0 0 0-2-2Z"/>
    </symbol>

    <symbol viewBox="0 0 48 50.155" id="gift">
      <g>
        <path d="M10.9 2.055a4.618 4.618 0 0 0-1.5 5c.4 2.4.2 2.9-1.3 2.9-4.2 0-8.1 2.2-8.1 4.5a4.958 4.958 0 0 0 1.3 3.3c5 4.1 40.4 4.1 45.5 0a5.46 5.46 0 0 0 1.2-3.3c0-2.3-3.9-4.5-8.1-4.5-1.5 0-1.7-.5-1.3-2.9a4.618 4.618 0 0 0-1.5-5c-3-3-6.7-2.7-10.2.8l-2.9 2.9-2.9-2.9c-3.5-3.5-7.2-3.8-10.2-.8Zm7.3 3.6c2.6 2.3 2.2 3.3-1.1 3.3-2.8 0-4.7-2.2-3.5-4.1.8-1.4 2.5-1.1 4.6.8Zm16.2-.8c1.2 1.9-.7 4.1-3.5 4.1-3.3 0-3.6-.6-1.2-3.2 1.7-1.9 3.8-2.3 4.7-.9Z"/>
        <path d="M2.4 24.455c-1.1 2.7.3 15.1 2.1 18.8 1.9 4 4.2 5.3 11.8 6.2l5.7.7v-24.9l-7.8-.6c-4.3-.3-8.6-.9-9.5-1.3a1.619 1.619 0 0 0-2.3 1.1Z"/>
        <path d="M39.5 24.055a58.522 58.522 0 0 1-8.7.8l-4.8.1v25.2l5.7-.7c7.6-.9 9.9-2.2 11.9-6.4 1.9-4 2.6-19.2.9-19.6-.5-.2-2.8.1-5 .6Z"/>
    </g>
    </symbol>

    <symbol viewBox="0 0 24.002 24.484" id="google">
      <path d="M12.245 10.086v4.678h6.666a6.686 6.686 0 0 1-6.666 4.863 7.384 7.384 0 1 1 4.8-12.99l3.445-3.445a12.243 12.243 0 1 0-8.245 21.293c10.279 0 12.547-9.61 11.539-14.382Z"/>
    </symbol>

    <symbol viewBox="0 0 24 24" id="info">
      <path d="M12 0A12 12 0 1 1 0 12 12 12 0 0 1 12 0Zm1.091 17.455V12a1.091 1.091 0 1 0-2.182 0v5.455a1.091 1.091 0 0 0 2.182 0ZM12 9.273a1.636 1.636 0 1 0-1.636-1.636A1.636 1.636 0 0 0 12 9.273Z"/>
    </symbol>

    <symbol viewBox="0 0 18 18" id="instagram">
      <g transform="translate(-3 -3)">
        <path d="M16 3H8a5 5 0 0 0-5 5v8a5 5 0 0 0 5 5h8a5 5 0 0 0 5-5V8a5 5 0 0 0-5-5Zm-4 14a5 5 0 1 1 5-5 5 5 0 0 1-5 5Zm6-10a1 1 0 1 1 1-1 1 1 0 0 1-1 1Z"/>
        <circle cx="3" cy="3" r="3" transform="translate(9 9)"/>
      </g>
    </symbol>

    <symbol viewBox="0 0 31.997 35.432" id="joystick">
      <g>
        <path d="M12.138 1.74c-2.436 2.367-2.3 5.5.348 8a5.321 5.321 0 0 1 2.088 4.8c0 2.367.209 2.854 1.392 2.854s1.392-.487 1.392-2.854a5.321 5.321 0 0 1 2.088-4.8c3.9-3.62 1.671-9.745-3.48-9.745a5.426 5.426 0 0 0-3.828 1.745Z"/>
        <path d="M5.943 21.156c-2.367.557-4.525 1.462-5.081 2.158-1.114 1.671-1.183 7.378 0 8.91 1.114 1.531 9.188 3.272 15.1 3.2 6.4 0 13.922-1.531 15.1-3.132 1.392-1.949 1.183-7.657-.418-9.258-2.635-2.639-16.278-3.683-24.701-1.878Zm17.68 6.682c0 .766-.418 1.392-.975 1.392a1.441 1.441 0 0 1-1.462-2.088 1.288 1.288 0 0 1 2.438.701Zm5.569 0c0 .766-.418 1.392-.975 1.392a1.441 1.441 0 0 1-1.462-2.088 1.288 1.288 0 0 1 2.437.701Z"/>
      </g>
    </symbol>

    <symbol viewBox="0 0 47.996 48.41" id="list">
      <g>
        <path d="M4.016.348C1.029 1.181 0 2.699 0 6.323c0 4.163 1.077 5.73 4.359 6.514 3.624.833 7.2-.049 8.424-2.106a9.9 9.9 0 0 0 0-8.326C12.097 1.23 11.314.74 9.355.299 6.408-.159 6.8-.051 4.016.348Z"/>
        <path d="M19.198 5.197a1.91 1.91 0 0 0 .1 2.792c.441.392 4.653.539 14.252.441 12.342-.147 13.664-.245 14.154-1.028a1.4 1.4 0 0 0 0-1.714c-.49-.735-1.812-.833-14.2-.98-10.241-.099-13.865.048-14.306.489Z"/>
        <path d="M4.016 17.979C1.028 18.811 0 20.33 0 23.954c0 4.163 1.077 5.73 4.359 6.514 3.624.833 7.2-.049 8.424-2.106a9.9 9.9 0 0 0 0-8.326c-.686-1.175-1.469-1.665-3.428-2.106a12.239 12.239 0 0 0-5.339.049Z"/>
        <path d="M19.198 22.828a1.91 1.91 0 0 0 .1 2.792c.441.392 4.653.539 14.252.441 12.342-.147 13.664-.245 14.154-1.028a1.4 1.4 0 0 0 0-1.714c-.49-.735-1.812-.833-14.2-.979-10.241-.1-13.865.047-14.306.488Z"/>
        <path d="M4.016 35.61C1.028 36.442 0 37.961 0 41.585c0 4.163 1.077 5.73 4.359 6.514 3.624.833 7.2-.049 8.424-2.106a9.9 9.9 0 0 0 0-8.326c-.686-1.175-1.469-1.665-3.428-2.106-2.948-.459-2.488-.428-5.339.049Z"/>
        <path d="M19.198 40.459a1.91 1.91 0 0 0 .1 2.792c.441.392 4.653.539 14.252.441 12.342-.147 13.664-.245 14.154-.98a1.4 1.4 0 0 0 0-1.714c-.49-.784-1.812-.882-14.2-1.028-10.241-.099-13.865.048-14.306.489Z"/>
      </g>
    </symbol>

    <symbol viewBox="0 0 16.003 12.609" id="quote">
      <g>
        <path d="M2.196.297a3.493 3.493 0 0 0-.888 5.97 3.352 3.352 0 0 0 3.208.739 7.45 7.45 0 0 1 .9-.282 2.262 2.262 0 0 1-.137.915 7.779 7.779 0 0 1-2.661 3.418c-1.519.971-1.118 2.089.443 1.266 2.469-1.308 4.326-5.4 4.052-8.863A3.573 3.573 0 0 0 2.196.297Z"/>
        <path d="M11.059.297a3.493 3.493 0 0 0-.888 5.97 3.352 3.352 0 0 0 3.208.739 8.658 8.658 0 0 1 .9-.293 2.374 2.374 0 0 1-.145.926 7.778 7.778 0 0 1-2.653 3.418c-1.519.971-1.118 2.089.443 1.266 2.469-1.308 4.326-5.4 4.052-8.863A3.573 3.573 0 0 0 11.059.297Z"/>
      </g>
    </symbol>

    <symbol viewBox="0 0 47.996 43.425" id="scroll">
      <path d="M14.285 0a7.437 7.437 0 0 0-7.428 7.428V32h20A5.149 5.149 0 0 1 32 37.14V40a3.43 3.43 0 0 0 3.413 3.426h.031a3.43 3.43 0 0 0 3.41-3.4V3.435A5.654 5.654 0 0 1 40.026 0Zm30.283 0a3.432 3.432 0 0 0-3.428 3.428v6.857h4A2.859 2.859 0 0 0 48 7.428v-4A3.432 3.432 0 0 0 44.568 0ZM15.427 8h14.856a1.714 1.714 0 1 1 0 3.428H15.427a1.714 1.714 0 1 1 0-3.428Zm0 8h14.856a1.714 1.714 0 1 1 0 3.428H15.427a1.714 1.714 0 1 1 0-3.428Zm0 8H28a1.714 1.714 0 1 1 0 3.428H15.427a1.714 1.714 0 1 1 0-3.428ZM2.857 34.283A2.859 2.859 0 0 0 0 37.14v1.143a5.149 5.149 0 0 0 5.142 5.142h25.742A5.654 5.654 0 0 1 29.712 40v-2.86a2.859 2.859 0 0 0-2.857-2.857Z"/>
    </symbol>

    <symbol viewBox="0 0 24 24.038" id="send">
      <path d="M13.077.551c-4.224.979-9.838 3.3-11.641 4.79-1.957 1.648-1.906 3.3.1 5.305 1.648 1.6 5.048 3.606 6.232 3.606.361 0 2.318-1.648 4.378-3.709 2.936-2.936 3.863-3.606 4.378-3.09s-.155 1.442-3.09 4.378c-2.06 2.06-3.709 4.018-3.709 4.378 0 2.369 4.636 7.829 6.7 7.829 2.163 0 5.305-6.181 6.954-13.546 1.03-4.687.773-7.778-.721-9.271-1.339-1.34-5.357-1.597-9.581-.67Z"/>
    </symbol>

    <symbol viewBox="0 0 24 24.327" id="warning">
      <path d="M8.031 2.437C4.14 6.515-.594 16.687.062 19.637s3.141 4.125 9.844 4.594c7.875.516 13.218-1.125 14.015-4.359.75-3-3.937-13.265-7.922-17.437C14.031.422 13.331 0 12.014 0S9.999.422 8.031 2.437Zm4.687 9.8c0 3.187-.141 3.937-.7 3.937s-.75-.75-.844-3.469c-.141-3.844.094-4.922.984-4.594.373.089.559 1.358.559 4.123Zm.141 6.375a.989.989 0 0 1-.844.844.989.989 0 0 1-.844-.844c-.094-.562.141-.8.844-.8s.937.234.843.797Z"/>
    </symbol>
  </defs>
</svg>