<svg xmlns="http://www.w3.org/2000/svg" xmlns:xlink="http://www.w3.org/1999/xlink">
  <defs>
    <symbol viewBox="0 0 16 16.656" id="adjust-16">
      <g>
        <path d="M1.941.208a1.5 1.5 0 0 0-.208.867c0 .659 0 .659.693.659s.693 0 .693-.659C3.119.382 2.876 0 2.426 0a.766.766 0 0 0-.485.208Z"/>
        <path d="M7.488.243c-.139.156-.191 1.421-.156 4.195l.052 3.969h1.213l.052-3.969C8.684.347 8.649 0 7.99 0a.7.7 0 0 0-.502.243Z"/>
        <path d="M13.053.243a3.005 3.005 0 0 0-.156 1.439l.052 1.179h1.213l.052-1.179c.052-1.248-.121-1.681-.659-1.681a.7.7 0 0 0-.502.242Z"/>
        <path d="M1.231 3.378A1.7 1.7 0 0 0 0 5.059a1.719 1.719 0 0 0 1.421 1.959c.277.087.312.5.347 4.715.052 4.195.087 4.646.347 4.819a.494.494 0 0 0 .607 0c.277-.173.312-.624.364-4.819.035-4.212.069-4.628.347-4.715A1.733 1.733 0 0 0 4.8 4.851a1.557 1.557 0 0 0-1.317-1.508 3.244 3.244 0 0 0-2.252.035Z"/>
        <path d="M12.429 4.471a1.617 1.617 0 0 0-1.3 1.75 1.746 1.746 0 0 0 1.127 1.768l.607.191.035 4.091c.052 3.675.087 4.108.364 4.282a.494.494 0 0 0 .607 0c.26-.173.295-.607.347-4.282l.035-4.091.607-.191a1.883 1.883 0 0 0 .139-3.4 3.1 3.1 0 0 0-2.568-.118Z"/>
        <path d="M6.865 10.018a1.617 1.617 0 0 0-1.3 1.75 1.755 1.755 0 0 0 1.109 1.768l.607.191.052 1.317c.035 1.023.121 1.352.347 1.508a.52.52 0 0 0 .624 0c.225-.156.312-.485.347-1.508l.052-1.317.607-.191a1.888 1.888 0 0 0 .121-3.4 3.1 3.1 0 0 0-2.566-.118Z"/>
      </g>
    </symbol>

    <symbol viewBox="0 0 48.003 39.507" id="badge-48">
      <path d="M9.642.663C3.497 1.989 3.497 1.989 2.834 3.315a34.4 34.4 0 0 0-2.665 11.72 50.659 50.659 0 0 0 1.206 16.132C2.613 35.809 3.188 36.826 5 37.223c13.218 2.962 25.375 3.05 37.267.221 2.476-.575 2.652-.752 3.581-3.537a49.561 49.561 0 0 0 0-28.912c-.928-2.7-1.194-3.05-2.962-3.4-.752-.133-2.918-.53-4.73-.928A35.965 35.965 0 0 0 33.47 0c-1.282 0-1.415.133-1.9 2.343-.707 2.785-1.105 3.448-3.139 4.686a10.644 10.644 0 0 1-8.842 0c-2.034-1.238-2.431-1.9-3.139-4.686L15.919 0l-1.813.044a33.352 33.352 0 0 0-4.464.619Zm8.488 13.483a3.822 3.822 0 0 1-1.99 7.074 3.83 3.83 0 0 1-2.166-7.12 4.053 4.053 0 0 1 2.078-.612 3.274 3.274 0 0 1 2.078.658Zm22.723 2.741q1.326 2.321-3.316 2.785c-3.095.354-7.25-.044-8.09-.752a1.685 1.685 0 0 1-.137-2.386c.265-.265 2.741-.442 5.791-.442 4.602.044 5.398.132 5.752.795Zm-20.822 6.676c2.564.884 3.979 1.989 3.979 3.139 0 2.122-2.874 3.36-7.957 3.36s-7.957-1.238-7.957-3.36c-.001-2.741 7.514-4.687 11.935-3.139Zm20.822 2.166q1.326 2.321-3.316 2.785c-3.095.354-7.25-.044-8.09-.752a1.685 1.685 0 0 1-.137-2.387c.265-.265 2.741-.442 5.791-.442 4.602.044 5.398.133 5.752.796Z" />
    </symbol>

    <symbol viewBox="0 0 25.782 27.998" id="bell-25">
      <g>
        <path d="M11.488.75a3.805 3.805 0 0 1-1.8 1.55c-3.2 1.65-5.8 5.85-7.05 11.249a11.762 11.762 0 0 1-1.85 4.25c-1.45 1.55-.95 2.5 1.9 3.8 5 2.25 19.4 1.65 22.248-.95 1.15-1.05 1.15-1.6-.15-2.95a11.763 11.763 0 0 1-1.75-4.15c-1.25-5.4-3.85-9.6-7.05-11.249a3.805 3.805 0 0 1-1.8-1.55A1.623 1.623 0 0 0 12.838 0a1.623 1.623 0 0 0-1.35.75Z"/>
        <path d="M8.838 25.698c0 1.05 2.25 2.3 4.1 2.3 1.9 0 3.9-1.2 3.9-2.3 0-.55-.85-.7-4-.7-3.05 0-4 .15-4 .7Z"/>
      </g>
    </symbol>
    <symbol viewBox="0 0 22.1 23.999" id="bell-22">
      <g>
        <path d="M9.847.619a3.225 3.225 0 0 1-1.543 1.28c-2.743 1.363-4.971 4.832-6.043 9.292A9.547 9.547 0 0 1 .678 14.7c-1.243 1.28-.814 2.065 1.629 3.139C6.59 19.7 18.932 19.2 21.378 17.057c.986-.867.986-1.322-.129-2.437a9.539 9.539 0 0 1-1.5-3.428c-1.071-4.46-3.3-7.929-6.043-9.292A3.225 3.225 0 0 1 12.163.62 1.4 1.4 0 0 0 11.004 0a1.4 1.4 0 0 0-1.157.619Z"/>
        <path d="M7.008 21.699c0 1.05 2.25 2.3 4.1 2.3 1.9 0 3.9-1.2 3.9-2.3 0-.55-.85-.7-4-.7-3.05 0-4 .15-4 .7Z"/>
      </g>
    </symbol>

    <symbol viewBox="0 0 24 16.961" id="check-mark-24">
      <path d="M21.309 1.189a47.164 47.164 0 0 0-9.994 9.283c-1.516 1.847-2.794 3.458-2.842 3.552a19.386 19.386 0 0 1-2.747-2.652C2.789 8.293.942 7.062.232 7.772c-.568.569-.189 1.039 2.226 2.939a24.194 24.194 0 0 1 3.694 3.884 8.394 8.394 0 0 0 2.131 2.368 9.961 9.961 0 0 0 2.179-2.51A56.883 56.883 0 0 1 21.214 3.605c2.558-1.895 3.079-2.51 2.652-3.031-.662-.806-.331-.9-2.557.615Z"/>
    </symbol>

    <symbol viewBox="0 0 19.997 15.21" id="discord-20">
      <path d="M16.908 1.292A16.093 16.093 0 0 1 20 11.316v1.351s-3.9 2.543-5.091 2.543l-1.154-1.677c.717-.321 1.695-.879 1.695-.879l-.357-.277A13.449 13.449 0 0 1 10 13.437a13.449 13.449 0 0 1-5.091-1.059l-.357.277s.978.557 1.695.879l-1.154 1.677C3.9 15.21 0 12.668 0 12.668v-1.352A16.093 16.093 0 0 1 3.09 1.292 16.084 16.084 0 0 1 7.155 0l.606 1.148a11.352 11.352 0 0 1 4.477 0L12.843 0a16.083 16.083 0 0 1 4.065 1.292ZM6.669 10.374a2.014 2.014 0 0 0 0-4 2.014 2.014 0 0 0 0 4Zm6.658 0a2.014 2.014 0 0 0 0-4 2.014 2.014 0 0 0 0 4Z"/>
    </symbol>

    <symbol viewBox="0 0 16 16.049" id="edit-16">
      <g>
        <path d="M9.679.516c-.506.253-.886.569-.886.7s.38.475.886.759a19.748 19.748 0 0 1 4.429 4.456l.823 1.234.538-1.076c2.024-3.764-2.121-8.097-5.79-6.073Z"/>
        <path d="M4.551 4.085a16.063 16.063 0 0 0-4.3 8.529c-.541 3.418-.406 3.621 2.3 3.35A15.91 15.91 0 0 0 13 10.481l.951-1.251-.609-1.117a16.517 16.517 0 0 0-1.725-2.471C10.466 4.288 7.524 2.224 6.78 2.224a8.431 8.431 0 0 0-2.229 1.861Zm.4 7.107c1.691 1.692 1.454 2.572-.879 3.147-2.5.609-2.84.406-2.57-1.388.578-3.315 1.457-3.755 3.449-1.759Z"/>
      </g>
    </symbol>

    <symbol viewBox="0 0 45 45.562" id="enter-45">
      <path d="M19.759.165c-5.866.879-8.48 1.494-9.666 2.285-2.043 1.362-2.438 2.7-3.581 12.764l-.264 2.2-2.417.044c-3.01.088-3.273.132-3.581.835a1.761 1.761 0 0 0 .286 2.2l.527.549h11.2c7.359 0 11.248-.066 11.336-.22.088-.132-.154-.593-.483-1.054a8.517 8.517 0 0 1-1.823-4 1.367 1.367 0 0 1 .571-1.3c.33-.264.755-.583 1.054-.461.817.086 1.564 1.368 1.806 1.758a16.493 16.493 0 0 0 2.763 3.471 21.843 21.843 0 0 1 1.955 1.6c.725.681.857.945.857 1.714 0 1.406-.308 1.867-1.977 2.966a10.357 10.357 0 0 0-3.207 3.625c-1.142 2.329-2.065 2.9-3.251 1.977-.835-.659-.769-1.757.22-3.647a11.005 11.005 0 0 1 1.23-1.977c.242-.264.373-.571.286-.7-.2-.352-16.63-.33-16.981.022-.483.483-.286 4.46.483 10.611.659 5.119 1.362 6.81 3.273 7.865.945.527 3.383 1.142 7.293 1.845a75.257 75.257 0 0 0 16.037 0c6.151-1.1 7.689-1.67 8.853-3.251.967-1.318 1.406-3.405 2.241-10.962.264-2.329.264-13.994 0-16.366-.989-9.007-1.494-10.764-3.515-12.1-.835-.549-3.757-1.34-7.359-1.977A87.821 87.821 0 0 0 19.759.165Z"/>
    </symbol>

    <symbol viewBox="0 0 19 19" id="exit-19">
      <g>
        <path d="M1.5 19a1.5 1.5 0 0 1-1.061-.439 1.5 1.5 0 0 1 0-2.121l16-16a1.5 1.5 0 0 1 2.121 0 1.5 1.5 0 0 1 0 2.121l-16 16A1.5 1.5 0 0 1 1.5 19Z"/>
        <path d="M17.5 19a1.5 1.5 0 0 1-1.061-.439l-16-16a1.5 1.5 0 0 1 0-2.121 1.5 1.5 0 0 1 2.121 0l16 16A1.5 1.5 0 0 1 17.5 19Z"/>
      </g>
    </symbol>
    <symbol viewBox="0 0 14 14" id="exit-14">
      <g>
        <path d="M1.105 14a1.1 1.1 0 0 1-.782-.324 1.105 1.105 0 0 1 0-1.563L12.113.324a1.105 1.105 0 0 1 1.563 0 1.105 1.105 0 0 1 0 1.563L1.887 13.676a1.1 1.1 0 0 1-.782.324Z"/>
        <path d="M12.895 14a1.1 1.1 0 0 1-.782-.324L.324 1.887a1.105 1.105 0 0 1 0-1.563 1.105 1.105 0 0 1 1.563 0l11.789 11.789A1.105 1.105 0 0 1 12.894 14Z"/>
      </g>
    </symbol>
    <symbol viewBox="0 0 10 10" id="exit-10">
      <g>
        <path d="M1 10a1 1 0 0 1-.707-.293 1 1 0 0 1 0-1.414l8-8a1 1 0 0 1 1.414 0 1 1 0 0 1 0 1.414l-8 8A1 1 0 0 1 1 10Z"/>
        <path d="M9 10a1 1 0 0 1-.707-.293l-8-8a1 1 0 0 1 0-1.414 1 1 0 0 1 1.414 0l8 8A1 1 0 0 1 9 10Z"/>
      </g>
    </symbol>

    <symbol viewBox="0 0 18 10" id="expand-18">
      <g>
        <path d="M9 10a1 1 0 0 1-.707-.293l-8-8a1 1 0 0 1 0-1.414 1 1 0 0 1 1.414 0l8 8A1 1 0 0 1 9 10Z"/>
        <path d="M9 10a1 1 0 0 1-.707-.293 1 1 0 0 1 0-1.414l8-8a1 1 0 0 1 1.414 0 1 1 0 0 1 0 1.414l-8 8A1 1 0 0 1 9 10Z"/>
      </g>
    </symbol>
    <symbol viewBox="0 0 16 8.889" id="expand-16">
      <g>
        <path d="M8 8.889a.886.886 0 0 1-.629-.26L.26 1.517A.889.889 0 0 1 .26.26a.889.889 0 0 1 1.257 0l7.112 7.111A.889.889 0 0 1 8 8.889Z"/>
        <path d="M8 8.889a.886.886 0 0 1-.629-.26.889.889 0 0 1 0-1.257L14.482.26a.889.889 0 0 1 1.257 0 .889.889 0 0 1 0 1.257L8.628 8.629a.886.886 0 0 1-.628.26Z"/>
      </g>
    </symbol>
    <symbol viewBox="0 0 14 7.778" id="expand-14">
      <g>
        <path d="M7 7.778a.775.775 0 0 1-.55-.228L.228 1.328a.778.778 0 0 1 0-1.1.778.778 0 0 1 1.1 0L7.55 6.45A.778.778 0 0 1 7 7.778Z"/>
        <path d="M7 7.778a.775.775 0 0 1-.55-.228.778.778 0 0 1 0-1.1L12.672.228a.778.778 0 0 1 1.1 0 .778.778 0 0 1 0 1.1L7.55 7.55a.775.775 0 0 1-.55.228Z"/>
      </g>
    </symbol>

    <symbol viewBox="0 0 18.002 9.061" id="eye-18">
      <g>
        <path d="M4.7.772a14.783 14.783 0 0 0-3.123 2.2L0 4.409l1.58 1.433c4.666 4.262 10.066 4.3 14.842.073l1.58-1.433-.735-.808A17.481 17.481 0 0 0 12.528.368L11.61.037l.7 1.176a4.864 4.864 0 0 1 .735 2.021A4.447 4.447 0 0 1 9 7.348a4.447 4.447 0 0 1-4.04-4.115 5 5 0 0 1 .735-2.057A3.747 3.747 0 0 0 6.319 0C6.282 0 5.548.331 4.7.772Z"/>
        <path d="M7.749 2.056a1.814 1.814 0 0 0 1.252 3.093 2.042 2.042 0 0 0 1.841-1.841 2.042 2.042 0 0 0-1.841-1.841 1.986 1.986 0 0 0-1.252.589Z"/>
      </g>
    </symbol>
    <symbol viewBox="0 0 17.998 15.007" id="eye-closed-18">
      <g>
        <path d="M6.09.388a9.638 9.638 0 0 0-2.214 1.168c-.765.523-.886.765-.443 1.168.4.443.725.4 1.691-.161a7.976 7.976 0 0 1 7.166-.282c2.174.926 2.778.886 2.375-.161C14.021.468 8.626-.619 6.09.388Z"/>
        <path d="M.454 5.698a2.407 2.407 0 0 0 .6 1.731l.809 1.169L.776 9.647c-.805.845-.966 1.168-.564 1.57.362.362.725.242 1.57-.6 1.087-1.007 1.127-1.047 2.094-.322.926.725.926.765.282 1.691-.805 1.168-.805 1.812-.04 2.134.4.121.805-.242 1.248-1.087.362-.725.725-1.329.765-1.409a2.621 2.621 0 0 1 1.127.121c.845.242 1.047.564 1.168 1.731.161 2.053 1.288 2.053 1.449-.04.081-.805.282-1.49.483-1.49a3.5 3.5 0 0 0 .926-.242c.362-.121.886.322 1.449 1.248 1.288 2.214 2.134 1.087 1.087-1.49-.2-.443-.04-.805.564-1.127.725-.4 1.047-.322 1.771.362a2.956 2.956 0 0 0 1.369.845c.765 0 .564-1.409-.322-2.214-.765-.725-.765-.725.04-1.892.765-1.087.805-2.335.04-2.335a8.917 8.917 0 0 0-1.855 1.849 8.685 8.685 0 0 1-6.281 3.382A9.368 9.368 0 0 1 2.06 6.105C1.34 4.977.776 4.816.454 5.698Z"/>
      </g>
    </symbol>

    <symbol viewBox="0 0 18 18" id="facebook-18">
      <path d="M16 0H2a2 2 0 0 0-2 2v14a2 2 0 0 0 2 2h7.621v-6.961H7.278V8.314h2.343v-2a3.275 3.275 0 0 1 3.5-3.591 20.018 20.018 0 0 1 2.092.105v2.43H13.78c-1.13 0-1.35.534-1.35 1.322v1.73h2.7l-.351 2.725h-2.365V18H16a2 2 0 0 0 2-2V2a2 2 0 0 0-2-2Z"/>
    </symbol>

    <symbol viewBox="0 0 15.996 16.714" id="gift-16">
      <g>
        <path d="M3.632.685a1.539 1.539 0 0 0-.5 1.666c.133.8.067.966-.433.966-1.4 0-2.7.733-2.7 1.5a1.652 1.652 0 0 0 .433 1.1c1.666 1.366 13.463 1.366 15.163 0a1.819 1.819 0 0 0 .4-1.1c0-.766-1.3-1.5-2.7-1.5-.5 0-.567-.167-.433-.966a1.539 1.539 0 0 0-.5-1.666c-1-1-2.233-.9-3.4.267L8 1.918 7.031.955C5.865-.215 4.632-.315 3.632.685Zm2.433 1.2c.866.766.733 1.1-.367 1.1-.933 0-1.566-.733-1.166-1.366.268-.464.833-.364 1.533.266Zm5.4-.267c.4.633-.233 1.366-1.166 1.366-1.1 0-1.2-.2-.4-1.066.565-.633 1.265-.763 1.565-.3Z"/>
        <path d="M.8 8.149c-.367.9.1 5.032.7 6.265.633 1.333 1.4 1.766 3.932 2.066l1.9.233v-8.3l-2.6-.2a17.02 17.02 0 0 1-3.166-.433.54.54 0 0 0-.766.369Z"/>
        <path d="M13.164 8.016a19.5 19.5 0 0 1-2.9.267l-1.6.033v8.4l1.9-.233c2.533-.3 3.3-.733 3.966-2.133.633-1.333.866-6.4.3-6.532a5.358 5.358 0 0 0-1.666.198Z"/>
      </g>
    </symbol>

    <symbol viewBox="0 0 24.002 24.484" id="google-24">
      <path d="M12.245 10.086v4.678h6.666a6.686 6.686 0 0 1-6.666 4.863 7.384 7.384 0 1 1 4.8-12.99l3.445-3.445a12.243 12.243 0 1 0-8.245 21.293c10.279 0 12.547-9.61 11.539-14.382Z"/>
    </symbol>

    <symbol viewBox="0 0 24 24" id="info-24">
      <path d="M12 0A12 12 0 1 1 0 12 12 12 0 0 1 12 0Zm1.091 17.455V12a1.091 1.091 0 1 0-2.182 0v5.455a1.091 1.091 0 0 0 2.182 0ZM12 9.273a1.636 1.636 0 1 0-1.636-1.636A1.636 1.636 0 0 0 12 9.273Z"/>
    </symbol>

    <symbol viewBox="0 0 18 18" id="instagram-18">
      <g transform="translate(-3 -3)">
        <path d="M16 3H8a5 5 0 0 0-5 5v8a5 5 0 0 0 5 5h8a5 5 0 0 0 5-5V8a5 5 0 0 0-5-5Zm-4 14a5 5 0 1 1 5-5 5 5 0 0 1-5 5Zm6-10a1 1 0 1 1 1-1 1 1 0 0 1-1 1Z"/>
        <circle cx="3" cy="3" r="3" transform="translate(9 9)"/>
      </g>
    </symbol>

    <symbol viewBox="0 0 15.996 17.714" id="joystick-16">
      <g>
        <path d="M6.068.87a2.584 2.584 0 0 0 .174 4 2.66 2.66 0 0 1 1.044 2.4c0 1.183.1 1.427.7 1.427s.7-.244.7-1.427a2.66 2.66 0 0 1 1.044-2.4A2.745 2.745 0 0 0 7.982 0a2.713 2.713 0 0 0-1.914.87Z"/>
        <path d="M2.971 10.579a5.873 5.873 0 0 0-2.54 1.079c-.557.835-.592 3.689 0 4.454.557.766 4.593 1.636 7.551 1.6 3.2 0 6.96-.766 7.551-1.566.7-.974.592-3.828-.209-4.628-1.321-1.322-8.142-1.844-12.353-.939Zm8.839 3.341c0 .383-.209.7-.487.7a.721.721 0 0 1-.731-1.044.644.644 0 0 1 1.218.343Zm2.784 0c0 .383-.209.7-.487.7a.721.721 0 0 1-.731-1.044.644.644 0 0 1 1.218.343Z"/>
      </g>
    </symbol>

    <symbol viewBox="0 0 15.998 16.328" id="list-16">
      <g>
        <path d="M.726.528A1.809 1.809 0 0 0 0 2.276c0 1.55.66 2.177 2.309 2.177s2.309-.627 2.309-2.177A2.107 2.107 0 0 0 2.309 0 3.125 3.125 0 0 0 .726.528Z"/>
        <path d="M6.433 2.012c-.495.792.561.957 4.981.891 3.826-.1 4.585-.2 4.585-.594s-.792-.495-4.684-.594c-3.167-.066-4.755.033-4.882.297Z"/>
        <path d="M.726 6.465A1.809 1.809 0 0 0 0 8.213c0 1.55.66 2.177 2.309 2.177s2.309-.627 2.309-2.177a2.107 2.107 0 0 0-2.309-2.276 3.126 3.126 0 0 0-1.583.528Z"/>
        <path d="M6.433 7.95c-.495.792.561.957 4.981.891 3.826-.1 4.585-.2 4.585-.594s-.792-.495-4.684-.594c-3.167-.066-4.755.033-4.882.297Z"/>
        <path d="M.726 12.403A1.809 1.809 0 0 0 0 14.151c0 1.55.66 2.177 2.309 2.177s2.309-.627 2.309-2.177a1.809 1.809 0 0 0-.726-1.748 2.781 2.781 0 0 0-3.166 0Z"/>
        <path d="M6.433 13.887c-.495.792.561.957 4.981.891 3.826-.1 4.585-.2 4.585-.594s-.792-.495-4.684-.594c-3.167-.066-4.755.033-4.882.297Z"/>
    </g>
    </symbol>

    <!-- opacity=".85" fill="#efecf7" -->
    <symbol viewBox="0 0 16.003 12.609" id="quote-16">
      <g>
        <path d="M2.196.297a3.493 3.493 0 0 0-.888 5.97 3.352 3.352 0 0 0 3.208.739 7.45 7.45 0 0 1 .9-.282 2.262 2.262 0 0 1-.137.915 7.779 7.779 0 0 1-2.661 3.418c-1.519.971-1.118 2.089.443 1.266 2.469-1.308 4.326-5.4 4.052-8.863A3.573 3.573 0 0 0 2.196.297Z"/>
        <path d="M11.059.297a3.493 3.493 0 0 0-.888 5.97 3.352 3.352 0 0 0 3.208.739 8.658 8.658 0 0 1 .9-.293 2.374 2.374 0 0 1-.145.926 7.778 7.778 0 0 1-2.653 3.418c-1.519.971-1.118 2.089.443 1.266 2.469-1.308 4.326-5.4 4.052-8.863A3.573 3.573 0 0 0 11.059.297Z"/>
      </g>
    </symbol>
    <!-- opacity=".85" fill="#efecf7" -->
    <symbol viewBox="0 0 12 9.455" id="quote-12">
      <g>
        <path d="M1.647.221a2.619 2.619 0 0 0-.665 4.478 2.514 2.514 0 0 0 2.405.554 5.592 5.592 0 0 1 .673-.212 1.7 1.7 0 0 1-.1.686A5.833 5.833 0 0 1 1.966 8.29c-1.139.728-.839 1.567.332.949 1.851-.981 3.244-4.051 3.038-6.646A2.679 2.679 0 0 0 1.647.221Z"/>
        <path d="M8.293.221a2.619 2.619 0 0 0-.665 4.478 2.514 2.514 0 0 0 2.405.554 6.5 6.5 0 0 1 .679-.22 1.78 1.78 0 0 1-.109.695 5.833 5.833 0 0 1-1.994 2.563c-1.139.728-.839 1.567.332.949 1.851-.981 3.244-4.051 3.038-6.646A2.679 2.679 0 0 0 8.293.221Z"/>
      </g>
    </symbol>

    <symbol viewBox="0 0 28 25.333" id="scroll-28">
      <path d="M8.333 0A4.338 4.338 0 0 0 4 4.333v14.334h11.667a3 3 0 0 1 3 3v1.667a2 2 0 0 0 1.991 2h.018a2 2 0 0 0 1.99-1.986V2.002a3.3 3.3 0 0 1 .684-2ZM26 0a2 2 0 0 0-2 2v4h2.333A1.668 1.668 0 0 0 28 4.333V2a2 2 0 0 0-2-2ZM9 4.667h8.667a1 1 0 0 1 0 2H9a1 1 0 1 1 0-2Zm0 4.667h8.667a1 1 0 0 1 0 2H9a1 1 0 1 1 0-2ZM9 14h7.333a1 1 0 0 1 0 2H9a1 1 0 0 1 0-2Zm-7.333 6A1.668 1.668 0 0 0 0 21.667v.667a3 3 0 0 0 3 3h15.017a3.3 3.3 0 0 1-.684-2v-1.667A1.668 1.668 0 0 0 15.667 20Z"/>
    </symbol>
    <symbol viewBox="0 0 16 14.476" id="scroll-16">
      <path d="M4.762 0a2.479 2.479 0 0 0-2.476 2.476v8.19h6.667a1.716 1.716 0 0 1 1.714 1.714v.952a1.144 1.144 0 0 0 1.133 1.143h.01a1.143 1.143 0 0 0 1.137-1.135V1.14A1.885 1.885 0 0 1 13.343 0Zm10.1 0a1.144 1.144 0 0 0-1.143 1.143v2.286h1.333A.953.953 0 0 0 16 2.476V1.143A1.144 1.144 0 0 0 14.857 0ZM5.143 2.667H10.1a.572.572 0 0 1 0 1.143H5.143a.572.572 0 1 1 0-1.143Zm0 2.667H10.1a.572.572 0 1 1 0 1.143H5.143a.572.572 0 1 1 0-1.143Zm0 2.667h4.19a.572.572 0 1 1 0 1.143h-4.19a.572.572 0 1 1 0-1.143ZM.953 11.43a.953.953 0 0 0-.953.951v.381a1.716 1.716 0 0 0 1.714 1.714H10.3a1.885 1.885 0 0 1-.391-1.143v-.952a.953.953 0 0 0-.952-.952Z"/>
    </symbol>

    <symbol viewBox="0 0 24 24.038" id="send-24">
      <path d="M13.077.551c-4.224.979-9.838 3.3-11.641 4.79-1.957 1.648-1.906 3.3.1 5.305 1.648 1.6 5.048 3.606 6.232 3.606.361 0 2.318-1.648 4.378-3.709 2.936-2.936 3.863-3.606 4.378-3.09s-.155 1.442-3.09 4.378c-2.06 2.06-3.709 4.018-3.709 4.378 0 2.369 4.636 7.829 6.7 7.829 2.163 0 5.305-6.181 6.954-13.546 1.03-4.687.773-7.778-.721-9.271-1.339-1.34-5.357-1.597-9.581-.67Z"/>
    </symbol>
    <symbol viewBox="0 0 18 18.028" id="send-18">
      <path d="M9.808.413C6.64 1.147 2.43 2.885 1.077 4.006c-1.468 1.236-1.429 2.472.077 3.979 1.236 1.2 3.786 2.7 4.674 2.7a15.415 15.415 0 0 0 3.284-2.781c2.2-2.2 2.9-2.7 3.284-2.318s-.115 1.083-2.317 3.283a15.415 15.415 0 0 0-2.781 3.284c0 1.777 3.477 5.872 5.022 5.872 1.622 0 3.979-4.636 5.215-10.16.773-3.515.579-5.833-.541-6.954-1.005-1-4.018-1.193-7.186-.498Z"/>
    </symbol>

    <symbol viewBox="0 0 24 24.327" id="warning-24">
      <path d="M8.031 2.437C4.14 6.515-.594 16.687.062 19.637s3.141 4.125 9.844 4.594c7.875.516 13.218-1.125 14.015-4.359.75-3-3.937-13.265-7.922-17.437C14.031.422 13.331 0 12.014 0S9.999.422 8.031 2.437Zm4.687 9.8c0 3.187-.141 3.937-.7 3.937s-.75-.75-.844-3.469c-.141-3.844.094-4.922.984-4.594.373.089.559 1.358.559 4.123Zm.141 6.375a.989.989 0 0 1-.844.844.989.989 0 0 1-.844-.844c-.094-.562.141-.8.844-.8s.937.234.843.797Z"/>
    </symbol>
  </defs>
</svg>