<svg xmlns="http://www.w3.org/2000/svg" xmlns:xlink="http://www.w3.org/1999/xlink">
  <defs>
    <symbol viewBox="0 0 48.003 39.507" id="badge-48">
      <path d="M9.642.663C3.497 1.989 3.497 1.989 2.834 3.315a34.4 34.4 0 0 0-2.665 11.72 50.659 50.659 0 0 0 1.206 16.132C2.613 35.809 3.188 36.826 5 37.223c13.218 2.962 25.375 3.05 37.267.221 2.476-.575 2.652-.752 3.581-3.537a49.561 49.561 0 0 0 0-28.912c-.928-2.7-1.194-3.05-2.962-3.4-.752-.133-2.918-.53-4.73-.928A35.965 35.965 0 0 0 33.47 0c-1.282 0-1.415.133-1.9 2.343-.707 2.785-1.105 3.448-3.139 4.686a10.644 10.644 0 0 1-8.842 0c-2.034-1.238-2.431-1.9-3.139-4.686L15.919 0l-1.813.044a33.352 33.352 0 0 0-4.464.619Zm8.488 13.483a3.822 3.822 0 0 1-1.99 7.074 3.83 3.83 0 0 1-2.166-7.12 4.053 4.053 0 0 1 2.078-.612 3.274 3.274 0 0 1 2.078.658Zm22.723 2.741q1.326 2.321-3.316 2.785c-3.095.354-7.25-.044-8.09-.752a1.685 1.685 0 0 1-.137-2.386c.265-.265 2.741-.442 5.791-.442 4.602.044 5.398.132 5.752.795Zm-20.822 6.676c2.564.884 3.979 1.989 3.979 3.139 0 2.122-2.874 3.36-7.957 3.36s-7.957-1.238-7.957-3.36c-.001-2.741 7.514-4.687 11.935-3.139Zm20.822 2.166q1.326 2.321-3.316 2.785c-3.095.354-7.25-.044-8.09-.752a1.685 1.685 0 0 1-.137-2.387c.265-.265 2.741-.442 5.791-.442 4.602.044 5.398.133 5.752.796Z" />
    </symbol>

    <symbol viewBox="0 0 25.782 27.998" id="bell-25">
      <g>
        <path d="M11.488.75a3.805 3.805 0 0 1-1.8 1.55c-3.2 1.65-5.8 5.85-7.05 11.249a11.762 11.762 0 0 1-1.85 4.25c-1.45 1.55-.95 2.5 1.9 3.8 5 2.25 19.4 1.65 22.248-.95 1.15-1.05 1.15-1.6-.15-2.95a11.763 11.763 0 0 1-1.75-4.15c-1.25-5.4-3.85-9.6-7.05-11.249a3.805 3.805 0 0 1-1.8-1.55A1.623 1.623 0 0 0 12.838 0a1.623 1.623 0 0 0-1.35.75Z"/>
        <path d="M8.838 25.698c0 1.05 2.25 2.3 4.1 2.3 1.9 0 3.9-1.2 3.9-2.3 0-.55-.85-.7-4-.7-3.05 0-4 .15-4 .7Z"/>
      </g>
    </symbol>
    <symbol viewBox="0 0 22.1 23.999" id="bell-22">
      <g>
        <path d="M9.847.619a3.225 3.225 0 0 1-1.543 1.28c-2.743 1.363-4.971 4.832-6.043 9.292A9.547 9.547 0 0 1 .678 14.7c-1.243 1.28-.814 2.065 1.629 3.139C6.59 19.7 18.932 19.2 21.378 17.057c.986-.867.986-1.322-.129-2.437a9.539 9.539 0 0 1-1.5-3.428c-1.071-4.46-3.3-7.929-6.043-9.292A3.225 3.225 0 0 1 12.163.62 1.4 1.4 0 0 0 11.004 0a1.4 1.4 0 0 0-1.157.619Z"/>
        <path d="M7.008 21.699c0 1.05 2.25 2.3 4.1 2.3 1.9 0 3.9-1.2 3.9-2.3 0-.55-.85-.7-4-.7-3.05 0-4 .15-4 .7Z"/>
      </g>
    </symbol>

    <symbol viewBox="0 0 24 16.961" id="check-mark-24">
      <path d="M21.309 1.189a47.164 47.164 0 0 0-9.994 9.283c-1.516 1.847-2.794 3.458-2.842 3.552a19.386 19.386 0 0 1-2.747-2.652C2.789 8.293.942 7.062.232 7.772c-.568.569-.189 1.039 2.226 2.939a24.194 24.194 0 0 1 3.694 3.884 8.394 8.394 0 0 0 2.131 2.368 9.961 9.961 0 0 0 2.179-2.51A56.883 56.883 0 0 1 21.214 3.605c2.558-1.895 3.079-2.51 2.652-3.031-.662-.806-.331-.9-2.557.615Z"/>
    </symbol>

    <symbol viewBox="0 0 24 24.073" id="edit-24">
      <path d="M14.518.774c-.759.38-1.329.854-1.329 1.044s.569.712 1.329 1.139a29.622 29.622 0 0 1 6.643 6.691l1.234 1.851.807-1.613c3.036-5.648-3.18-12.149-8.684-9.112ZM6.823 6.128A24.094 24.094 0 0 0 .381 18.921c-.812 5.127-.609 5.432 3.449 5.026 6.036-.609 12.427-3.96 15.673-8.224l1.42-1.878-.913-1.675a24.776 24.776 0 0 0-2.587-3.706c-1.724-2.028-6.137-5.128-7.253-5.128-.355 0-1.876 1.269-3.347 2.792Zm.609 10.661c2.536 2.538 2.181 3.858-1.319 4.721-3.753.914-4.261.609-3.855-2.081.862-4.976 2.181-5.636 5.173-2.64Z"/>
    </symbol>

    <symbol viewBox="0 0 45 45.562" id="enter-45">
      <path d="M19.759.165c-5.866.879-8.48 1.494-9.666 2.285-2.043 1.362-2.438 2.7-3.581 12.764l-.264 2.2-2.417.044c-3.01.088-3.273.132-3.581.835a1.761 1.761 0 0 0 .286 2.2l.527.549h11.2c7.359 0 11.248-.066 11.336-.22.088-.132-.154-.593-.483-1.054a8.517 8.517 0 0 1-1.823-4 1.367 1.367 0 0 1 .571-1.3c.33-.264.755-.583 1.054-.461.817.086 1.564 1.368 1.806 1.758a16.493 16.493 0 0 0 2.763 3.471 21.843 21.843 0 0 1 1.955 1.6c.725.681.857.945.857 1.714 0 1.406-.308 1.867-1.977 2.966a10.357 10.357 0 0 0-3.207 3.625c-1.142 2.329-2.065 2.9-3.251 1.977-.835-.659-.769-1.757.22-3.647a11.005 11.005 0 0 1 1.23-1.977c.242-.264.373-.571.286-.7-.2-.352-16.63-.33-16.981.022-.483.483-.286 4.46.483 10.611.659 5.119 1.362 6.81 3.273 7.865.945.527 3.383 1.142 7.293 1.845a75.257 75.257 0 0 0 16.037 0c6.151-1.1 7.689-1.67 8.853-3.251.967-1.318 1.406-3.405 2.241-10.962.264-2.329.264-13.994 0-16.366-.989-9.007-1.494-10.764-3.515-12.1-.835-.549-3.757-1.34-7.359-1.977A87.821 87.821 0 0 0 19.759.165Z"/>
    </symbol>

    <symbol viewBox="0 0 19 19" id="exit-19">
      <g>
        <path d="M1.5 19a1.5 1.5 0 0 1-1.061-.439 1.5 1.5 0 0 1 0-2.121l16-16a1.5 1.5 0 0 1 2.121 0 1.5 1.5 0 0 1 0 2.121l-16 16A1.5 1.5 0 0 1 1.5 19Z"/>
        <path d="M17.5 19a1.5 1.5 0 0 1-1.061-.439l-16-16a1.5 1.5 0 0 1 0-2.121 1.5 1.5 0 0 1 2.121 0l16 16A1.5 1.5 0 0 1 17.5 19Z"/>
      </g>
    </symbol>
    <symbol viewBox="0 0 14 14" id="exit-14">
      <g>
        <path d="M1.105 14a1.1 1.1 0 0 1-.782-.324 1.105 1.105 0 0 1 0-1.563L12.113.324a1.105 1.105 0 0 1 1.563 0 1.105 1.105 0 0 1 0 1.563L1.887 13.676a1.1 1.1 0 0 1-.782.324Z"/>
        <path d="M12.895 14a1.1 1.1 0 0 1-.782-.324L.324 1.887a1.105 1.105 0 0 1 0-1.563 1.105 1.105 0 0 1 1.563 0l11.789 11.789A1.105 1.105 0 0 1 12.894 14Z"/>
      </g>
    </symbol>
    <symbol viewBox="0 0 10 10" id="exit-10">
      <g>
        <path d="M1 10a1 1 0 0 1-.707-.293 1 1 0 0 1 0-1.414l8-8a1 1 0 0 1 1.414 0 1 1 0 0 1 0 1.414l-8 8A1 1 0 0 1 1 10Z"/>
        <path d="M9 10a1 1 0 0 1-.707-.293l-8-8a1 1 0 0 1 0-1.414 1 1 0 0 1 1.414 0l8 8A1 1 0 0 1 9 10Z"/>
      </g>
    </symbol>

    <symbol viewBox="0 0 18 10" id="expand-18">
      <g>
        <path d="M9 10a1 1 0 0 1-.707-.293l-8-8a1 1 0 0 1 0-1.414 1 1 0 0 1 1.414 0l8 8A1 1 0 0 1 9 10Z"/>
        <path d="M9 10a1 1 0 0 1-.707-.293 1 1 0 0 1 0-1.414l8-8a1 1 0 0 1 1.414 0 1 1 0 0 1 0 1.414l-8 8A1 1 0 0 1 9 10Z"/>
      </g>
    </symbol>
    <symbol viewBox="0 0 16 8.889" id="expand-16">
      <g>
        <path d="M8 8.889a.886.886 0 0 1-.629-.26L.26 1.517A.889.889 0 0 1 .26.26a.889.889 0 0 1 1.257 0l7.112 7.111A.889.889 0 0 1 8 8.889Z"/>
        <path d="M8 8.889a.886.886 0 0 1-.629-.26.889.889 0 0 1 0-1.257L14.482.26a.889.889 0 0 1 1.257 0 .889.889 0 0 1 0 1.257L8.628 8.629a.886.886 0 0 1-.628.26Z"/>
      </g>
    </symbol>
    <symbol viewBox="0 0 14 7.778" id="expand-14">
      <g>
        <path d="M7 7.778a.775.775 0 0 1-.55-.228L.228 1.328a.778.778 0 0 1 0-1.1.778.778 0 0 1 1.1 0L7.55 6.45A.778.778 0 0 1 7 7.778Z"/>
        <path d="M7 7.778a.775.775 0 0 1-.55-.228.778.778 0 0 1 0-1.1L12.672.228a.778.778 0 0 1 1.1 0 .778.778 0 0 1 0 1.1L7.55 7.55a.775.775 0 0 1-.55.228Z"/>
      </g>
    </symbol>

    <symbol viewBox="0 0 18.002 9.061" id="eye-18">
      <g>
        <path d="M4.7.772a14.783 14.783 0 0 0-3.123 2.2L0 4.409l1.58 1.433c4.666 4.262 10.066 4.3 14.842.073l1.58-1.433-.735-.808A17.481 17.481 0 0 0 12.528.368L11.61.037l.7 1.176a4.864 4.864 0 0 1 .735 2.021A4.447 4.447 0 0 1 9 7.348a4.447 4.447 0 0 1-4.04-4.115 5 5 0 0 1 .735-2.057A3.747 3.747 0 0 0 6.319 0C6.282 0 5.548.331 4.7.772Z"/>
        <path d="M7.749 2.056a1.814 1.814 0 0 0 1.252 3.093 2.042 2.042 0 0 0 1.841-1.841 2.042 2.042 0 0 0-1.841-1.841 1.986 1.986 0 0 0-1.252.589Z"/>
      </g>
    </symbol>
    <symbol viewBox="0 0 17.998 15.007" id="eye-closed-18">
      <g>
        <path d="M6.09.388a9.638 9.638 0 0 0-2.214 1.168c-.765.523-.886.765-.443 1.168.4.443.725.4 1.691-.161a7.976 7.976 0 0 1 7.166-.282c2.174.926 2.778.886 2.375-.161C14.021.468 8.626-.619 6.09.388Z"/>
        <path d="M.454 5.698a2.407 2.407 0 0 0 .6 1.731l.809 1.169L.776 9.647c-.805.845-.966 1.168-.564 1.57.362.362.725.242 1.57-.6 1.087-1.007 1.127-1.047 2.094-.322.926.725.926.765.282 1.691-.805 1.168-.805 1.812-.04 2.134.4.121.805-.242 1.248-1.087.362-.725.725-1.329.765-1.409a2.621 2.621 0 0 1 1.127.121c.845.242 1.047.564 1.168 1.731.161 2.053 1.288 2.053 1.449-.04.081-.805.282-1.49.483-1.49a3.5 3.5 0 0 0 .926-.242c.362-.121.886.322 1.449 1.248 1.288 2.214 2.134 1.087 1.087-1.49-.2-.443-.04-.805.564-1.127.725-.4 1.047-.322 1.771.362a2.956 2.956 0 0 0 1.369.845c.765 0 .564-1.409-.322-2.214-.765-.725-.765-.725.04-1.892.765-1.087.805-2.335.04-2.335a8.917 8.917 0 0 0-1.855 1.849 8.685 8.685 0 0 1-6.281 3.382A9.368 9.368 0 0 1 2.06 6.105C1.34 4.977.776 4.816.454 5.698Z"/>
      </g>
    </symbol>

    <symbol viewBox="0 0 24.002 24.484" id="google-24">
      <path d="M12.245 10.086v4.678h6.666a6.686 6.686 0 0 1-6.666 4.863 7.384 7.384 0 1 1 4.8-12.99l3.445-3.445a12.243 12.243 0 1 0-8.245 21.293c10.279 0 12.547-9.61 11.539-14.382Z"/>
    </symbol>

    <symbol viewBox="0 0 24 24" id="info-24">
      <path d="M12 0A12 12 0 1 1 0 12 12 12 0 0 1 12 0Zm1.091 17.455V12a1.091 1.091 0 1 0-2.182 0v5.455a1.091 1.091 0 0 0 2.182 0ZM12 9.273a1.636 1.636 0 1 0-1.636-1.636A1.636 1.636 0 0 0 12 9.273Z"/>
    </symbol>

    <symbol viewBox="0 0 24 24.038" id="send-24">
      <path d="M13.077.551c-4.224.979-9.838 3.3-11.641 4.79-1.957 1.648-1.906 3.3.1 5.305 1.648 1.6 5.048 3.606 6.232 3.606.361 0 2.318-1.648 4.378-3.709 2.936-2.936 3.863-3.606 4.378-3.09s-.155 1.442-3.09 4.378c-2.06 2.06-3.709 4.018-3.709 4.378 0 2.369 4.636 7.829 6.7 7.829 2.163 0 5.305-6.181 6.954-13.546 1.03-4.687.773-7.778-.721-9.271-1.339-1.34-5.357-1.597-9.581-.67Z"/>
    </symbol>
    <symbol viewBox="0 0 18 18.028" id="send-18">
      <path d="M9.808.413C6.64 1.147 2.43 2.885 1.077 4.006c-1.468 1.236-1.429 2.472.077 3.979 1.236 1.2 3.786 2.7 4.674 2.7a15.415 15.415 0 0 0 3.284-2.781c2.2-2.2 2.9-2.7 3.284-2.318s-.115 1.083-2.317 3.283a15.415 15.415 0 0 0-2.781 3.284c0 1.777 3.477 5.872 5.022 5.872 1.622 0 3.979-4.636 5.215-10.16.773-3.515.579-5.833-.541-6.954-1.005-1-4.018-1.193-7.186-.498Z"/>
    </symbol>

    <symbol viewBox="0 0 24 24.327" id="warning-24">
      <path d="M8.031 2.437C4.14 6.515-.594 16.687.062 19.637s3.141 4.125 9.844 4.594c7.875.516 13.218-1.125 14.015-4.359.75-3-3.937-13.265-7.922-17.437C14.031.422 13.331 0 12.014 0S9.999.422 8.031 2.437Zm4.687 9.8c0 3.187-.141 3.937-.7 3.937s-.75-.75-.844-3.469c-.141-3.844.094-4.922.984-4.594.373.089.559 1.358.559 4.123Zm.141 6.375a.989.989 0 0 1-.844.844.989.989 0 0 1-.844-.844c-.094-.562.141-.8.844-.8s.937.234.843.797Z"/>
    </symbol>
  </defs>
</svg>