<svg xmlns="http://www.w3.org/2000/svg" xmlns:xlink="http://www.w3.org/1999/xlink">
  <defs>
    <symbol viewBox="0 0 15 15" id="add">
      <g fill="#171126">
        <path d="M7.5 15A1.5 1.5 0 0 1 6 13.5v-12A1.5 1.5 0 0 1 7.5 0 1.5 1.5 0 0 1 9 1.5v12A1.5 1.5 0 0 1 7.5 15Z"/>
        <path d="M13.5 9h-12A1.5 1.5 0 0 1 0 7.5 1.5 1.5 0 0 1 1.5 6h12A1.5 1.5 0 0 1 15 7.5 1.5 1.5 0 0 1 13.5 9Z"/>
      </g>
    </symbol>

    <symbol viewBox="0 0 16 16.656" id="adjust">
      <g>
        <path d="M1.941.208a1.5 1.5 0 0 0-.208.867c0 .659 0 .659.693.659s.693 0 .693-.659C3.119.382 2.876 0 2.426 0a.766.766 0 0 0-.485.208Z"/>
        <path d="M7.488.243c-.139.156-.191 1.421-.156 4.195l.052 3.969h1.213l.052-3.969C8.684.347 8.649 0 7.99 0a.7.7 0 0 0-.502.243Z"/>
        <path d="M13.053.243a3.005 3.005 0 0 0-.156 1.439l.052 1.179h1.213l.052-1.179c.052-1.248-.121-1.681-.659-1.681a.7.7 0 0 0-.502.242Z"/>
        <path d="M1.231 3.378A1.7 1.7 0 0 0 0 5.059a1.719 1.719 0 0 0 1.421 1.959c.277.087.312.5.347 4.715.052 4.195.087 4.646.347 4.819a.494.494 0 0 0 .607 0c.277-.173.312-.624.364-4.819.035-4.212.069-4.628.347-4.715A1.733 1.733 0 0 0 4.8 4.851a1.557 1.557 0 0 0-1.317-1.508 3.244 3.244 0 0 0-2.252.035Z"/>
        <path d="M12.429 4.471a1.617 1.617 0 0 0-1.3 1.75 1.746 1.746 0 0 0 1.127 1.768l.607.191.035 4.091c.052 3.675.087 4.108.364 4.282a.494.494 0 0 0 .607 0c.26-.173.295-.607.347-4.282l.035-4.091.607-.191a1.883 1.883 0 0 0 .139-3.4 3.1 3.1 0 0 0-2.568-.118Z"/>
        <path d="M6.865 10.018a1.617 1.617 0 0 0-1.3 1.75 1.755 1.755 0 0 0 1.109 1.768l.607.191.052 1.317c.035 1.023.121 1.352.347 1.508a.52.52 0 0 0 .624 0c.225-.156.312-.485.347-1.508l.052-1.317.607-.191a1.888 1.888 0 0 0 .121-3.4 3.1 3.1 0 0 0-2.566-.118Z"/>
      </g>
    </symbol>

    <symbol viewBox="0 0 31.998 29.844" id="alarm-clock">
      <g>
        <path d="M6.106.806a15.029 15.029 0 0 0-5.6 5.818C-.085 7.806-.116 8.148.195 8.677c.778 1.213 1.649.778 2.707-1.307a11.3 11.3 0 0 1 4.541-4.512c1.618-.964 2.022-1.68 1.4-2.427-.528-.621-.808-.59-2.737.375Z"/>
        <path d="M23.154.432c-.622.747-.218 1.462 1.4 2.427a11.3 11.3 0 0 1 4.542 4.511c1.058 2.084 1.929 2.52 2.707 1.307.311-.529.28-.871-.311-2.084A16.164 16.164 0 0 0 25.581.651c-1.743-.81-1.929-.841-2.427-.219Z"/>
        <path d="M14.173 2.659a10.043 10.043 0 0 0-2.529.572 14.431 14.431 0 0 0-8.555 8.4c-3.951 11.386 8.151 22.15 18.821 16.8a14.9 14.9 0 0 0 7.062-7.9 17.339 17.339 0 0 0 0-8.742 14.8 14.8 0 0 0-8.462-8.555 15.778 15.778 0 0 0-6.337-.575Zm2.479 6.328c.529.311.591.684.591 3.484v3.142l1.9 1.96c1.587 1.68 1.8 2.053 1.555 2.582-.684 1.244-1.275 1.027-3.64-1.275l-2.3-2.209V13c0-3.173.062-3.7.56-3.982.65-.404.619-.404 1.334-.031Z"/>
      </g>
    </symbol>

    <symbol viewBox="0 0 48.003 39.507" id="badge">
      <path d="M9.642.663C3.497 1.989 3.497 1.989 2.834 3.315a34.4 34.4 0 0 0-2.665 11.72 50.659 50.659 0 0 0 1.206 16.132C2.613 35.809 3.188 36.826 5 37.223c13.218 2.962 25.375 3.05 37.267.221 2.476-.575 2.652-.752 3.581-3.537a49.561 49.561 0 0 0 0-28.912c-.928-2.7-1.194-3.05-2.962-3.4-.752-.133-2.918-.53-4.73-.928A35.965 35.965 0 0 0 33.47 0c-1.282 0-1.415.133-1.9 2.343-.707 2.785-1.105 3.448-3.139 4.686a10.644 10.644 0 0 1-8.842 0c-2.034-1.238-2.431-1.9-3.139-4.686L15.919 0l-1.813.044a33.352 33.352 0 0 0-4.464.619Zm8.488 13.483a3.822 3.822 0 0 1-1.99 7.074 3.83 3.83 0 0 1-2.166-7.12 4.053 4.053 0 0 1 2.078-.612 3.274 3.274 0 0 1 2.078.658Zm22.723 2.741q1.326 2.321-3.316 2.785c-3.095.354-7.25-.044-8.09-.752a1.685 1.685 0 0 1-.137-2.386c.265-.265 2.741-.442 5.791-.442 4.602.044 5.398.132 5.752.795Zm-20.822 6.676c2.564.884 3.979 1.989 3.979 3.139 0 2.122-2.874 3.36-7.957 3.36s-7.957-1.238-7.957-3.36c-.001-2.741 7.514-4.687 11.935-3.139Zm20.822 2.166q1.326 2.321-3.316 2.785c-3.095.354-7.25-.044-8.09-.752a1.685 1.685 0 0 1-.137-2.387c.265-.265 2.741-.442 5.791-.442 4.602.044 5.398.133 5.752.796Z" />
    </symbol>

    <symbol viewBox="0 0 44.999 48.866" id="bell">
      <g>
        <path d="M20.051 1.309a6.642 6.642 0 0 1-3.141 2.705c-5.585 2.88-10.122 10.21-12.3 19.634-.7 2.967-2.182 6.283-3.229 7.417-2.535 2.705-1.662 4.363 3.312 6.635 8.726 3.927 33.857 2.88 38.831-1.658 2.007-1.832 2.007-2.792-.262-5.148-.96-1.047-2.356-4.276-3.054-7.243-2.182-9.424-6.719-16.754-12.3-19.634a6.642 6.642 0 0 1-3.141-2.705A2.833 2.833 0 0 0 22.407 0a2.833 2.833 0 0 0-2.356 1.309Z"/>
        <path d="M15.426 44.853c0 1.832 3.927 4.014 7.155 4.014 3.316 0 6.806-2.094 6.806-4.014 0-.96-1.483-1.222-6.981-1.222-5.322 0-6.98.262-6.98 1.222Z"/>
      </g>
    </symbol>

    <symbol viewBox="0 0 24.001 24.085" id="border-horizontal">
      <g>
        <path d="M11.201.418c-.336.873.134 1.613.941 1.478.571-.067.773-.336.773-.941s-.2-.873-.773-.941a.82.82 0 0 0-.941.404Z"/>
        <path d="M4.213.821a9.242 9.242 0 0 0-2.419.84A9.556 9.556 0 0 0 .788 4.517c-.437 2.016-.47 2.587-.1 3.024.84 1.008 1.445.37 1.982-2.049l.5-2.352 2.318-.5c2.385-.5 2.923-.974 2.217-1.848C7.203.183 6.8.183 4.213.821Z"/>
        <path d="M16.442.784c-.706.873-.168 1.344 2.217 1.848l2.318.5.5 2.352c.538 2.419 1.142 3.057 1.982 2.049.37-.437.336-1.008-.1-3.024a9.556 9.556 0 0 0-1.008-2.856A20.9 20.9 0 0 0 17.249.284a1.449 1.449 0 0 0-.807.5Z"/>
        <path d="M6.056 3.98a5.937 5.937 0 0 0-1.613.47 16.862 16.862 0 0 0-.672 4.771c.773.773 13.472.974 15.991.269.739-.2.773-.336.571-1.949-.37-2.688-.538-3.158-1.31-3.393-1.167-.37-11.35-.504-12.967-.168Z"/>
        <path d="M.115 11.505c-.37.974.134 1.478 1.814 1.713l1.646.2.235 2.419c.3 3.595.437 3.863 1.848 4.166a49.675 49.675 0 0 0 6.417.269 49.675 49.675 0 0 0 6.417-.269c1.411-.3 1.545-.571 1.848-4.132l.235-2.419 1.713-.269c1.512-.269 1.713-.4 1.713-1.142 0-1.008-.2-1.008-5.476-.4a59.366 59.366 0 0 1-16.764-.47c-1.142-.17-1.478-.103-1.646.334Z"/>
        <path d="M.688 16.544c-.37.437-.336 1.008.1 3.024a9.556 9.556 0 0 0 1.008 2.856 11.618 11.618 0 0 0 2.856.907c1.949.437 2.486.47 2.923.134 1.008-.873.37-1.478-2.049-2.016l-2.352-.5-.5-2.352c-.544-2.423-1.148-3.061-1.986-2.053Z"/>
        <path d="M21.984 16.477c-.1.235-.336 1.344-.571 2.452l-.437 2.016-2.352.5c-2.419.538-3.057 1.142-2.049 2.016.437.336.974.3 2.923-.134a11.617 11.617 0 0 0 2.856-.907 9.556 9.556 0 0 0 1.008-2.856c.437-1.982.47-2.587.134-2.99-.503-.601-1.312-.635-1.512-.097Z"/>
        <path d="M11.201 22.591c-.336.873.134 1.613.941 1.478.571-.067.773-.336.773-.941s-.2-.873-.773-.941a.82.82 0 0 0-.941.404Z"/>
      </g>
    </symbol>

    <symbol viewBox="0 0 24 24.799" id="cards">
      <g>
        <path d="M.485.485c-.647.647-.647 21.27 0 21.917s15.943.647 16.59 0 .647-21.27 0-21.917S1.132-.162.485.485Zm9.132 7.268c2.892 2.359 3.843 5.4 2.055 6.545a1.737 1.737 0 0 1-1.9.19l-.989-.38.571 1.141.609 1.142H8.552c-1.065 0-1.332-.114-1.141-.571.114-.3.342-.837.457-1.141.19-.495.114-.533-.723-.152-1.788.8-3.386-.989-2.74-3.12.266-.837 3.5-4.528 3.957-4.528a8.646 8.646 0 0 1 1.255.874Z"/>
        <path d="M18.292 12.47c0 7.572-.114 9.627-.533 10.235-.419.533-1.142.761-3.158.913l-2.587.19 3.729.609c2.892.457 3.881.495 4.338.152.419-.3 1.1-3.044 2.245-9.17.913-4.794 1.636-9.246 1.674-9.931 0-1.484-.571-1.826-3.5-2.207l-2.208-.265Z"/>
      </g>
    </symbol>

    <symbol viewBox="0 0 24 16.961" id="check-mark">
      <path d="M21.309 1.189a47.164 47.164 0 0 0-9.994 9.283c-1.516 1.847-2.794 3.458-2.842 3.552a19.386 19.386 0 0 1-2.747-2.652C2.789 8.293.942 7.062.232 7.772c-.568.569-.189 1.039 2.226 2.939a24.194 24.194 0 0 1 3.694 3.884 8.394 8.394 0 0 0 2.131 2.368 9.961 9.961 0 0 0 2.179-2.51A56.883 56.883 0 0 1 21.214 3.605c2.558-1.895 3.079-2.51 2.652-3.031-.662-.806-.331-.9-2.557.615Z"/>
    </symbol>

    <symbol viewBox="0 0 18.858 23.999" id="delete">
      <path d="M18.246 4.726a31.72 31.72 0 0 0-3.691-.849 7.373 7.373 0 0 0-.009-1.1 2.6 2.6 0 0 0-1.693-2.18 10.165 10.165 0 0 0-6.851 0 2.6 2.6 0 0 0-1.69 2.181 8.828 8.828 0 0 0-.01 1.112 31.6 31.6 0 0 0-3.689.858.858.858 0 0 0 .249 1.678.882.882 0 0 0 .24-.036c.2-.059.4-.1.594-.156a31.715 31.715 0 0 0 .048 14.294c.642 2.308 1.28 2.553 3.622 3.129a19.441 19.441 0 0 0 4.062.34 19.538 19.538 0 0 0 4.068-.344c2.338-.574 2.976-.819 3.618-3.128a31.765 31.765 0 0 0 .048-14.311c.2.055.4.1.594.155a.857.857 0 0 0 .49-1.643Zm-6.219 5.764a.857.857 0 0 1 1.663-.415 14.832 14.832 0 0 1 0 7.272.857.857 0 0 1-.831.65.871.871 0 0 1-.208-.026.857.857 0 0 1-.624-1.039 13.154 13.154 0 0 0 0-6.441Zm-5.194 6.442a.856.856 0 0 1-.624 1.039.871.871 0 0 1-.207.026.857.857 0 0 1-.831-.65 14.832 14.832 0 0 1 0-7.272.857.857 0 0 1 1.663.415 13.154 13.154 0 0 0-.001 6.443Zm1.74.207v-6.856a.857.857 0 1 1 1.714 0v6.857a.857.857 0 1 1-1.714 0ZM6.02 2.95a.88.88 0 0 1 .567-.742 8.443 8.443 0 0 1 5.69 0 .88.88 0 0 1 .566.741 5.341 5.341 0 0 1 .011.686 29.742 29.742 0 0 0-6.852.009 5.969 5.969 0 0 1 .018-.694Z"/>
    </symbol>

    <symbol viewBox="0 0 23.999 23.536" id="dice">
      <g>
        <path d="M6.194 2.187c-2.7 1.2-5.028 2.3-5.174 2.441-.182.182 2.259 1.421 5.356 2.805l5.647 2.477 5.465-2.477a49.313 49.313 0 0 0 5.465-2.732c0-.4-10.2-4.736-11.039-4.7a35.721 35.721 0 0 0-5.72 2.186Zm7.1 2.514c0 .656-1.895.984-2.441.437-.619-.619.073-1.2 1.275-1.093.733.073 1.17.291 1.17.656Z"/>
        <path d="m.073 12.06.109 6.631 5.647 2.438 5.647 2.4.109-6.376a46.253 46.253 0 0 0-.182-6.667c-.255-.219-4.736-2.222-10.238-4.554L0 5.429Zm3.388-1.858c0 .874-.182 1.239-.547 1.239-.583 0-.911-1.348-.583-2.259.369-.948 1.13-.292 1.13 1.02Zm2.951 3.427c.255 1.057-.036 2-.583 2-.219 0-.474-.255-.583-.547-.291-.729.146-2.368.583-2.368.183.002.438.402.583.915ZM9.29 18.22c0 .874-.182 1.239-.547 1.239-.583 0-.911-1.348-.583-2.259.365-.95 1.131-.294 1.131 1.017Z"/>
        <path d="m17.852 7.98-5.283 2.514-.109 6.558c-.073 6.048-.036 6.558.51 6.339.364-.146 2.951-1.239 5.757-2.477l5.137-2.259.109-6.631c.073-5.174 0-6.594-.364-6.558-.255.001-2.842 1.166-5.757 2.514Zm3.826 2.222c0 .874-.182 1.239-.547 1.239-.583 0-.911-1.348-.583-2.259.361-.947 1.13-.291 1.13 1.02Zm-5.829 8.015c0 .874-.182 1.239-.547 1.239-.583 0-.911-1.348-.583-2.259.364-.947 1.129-.291 1.129 1.021Z"/>
      </g>
    </symbol>

    <symbol viewBox="0 0 19.997 15.21" id="discord">
      <path d="M16.908 1.292A16.093 16.093 0 0 1 20 11.316v1.351s-3.9 2.543-5.091 2.543l-1.154-1.677c.717-.321 1.695-.879 1.695-.879l-.357-.277A13.449 13.449 0 0 1 10 13.437a13.449 13.449 0 0 1-5.091-1.059l-.357.277s.978.557 1.695.879l-1.154 1.677C3.9 15.21 0 12.668 0 12.668v-1.352A16.093 16.093 0 0 1 3.09 1.292 16.084 16.084 0 0 1 7.155 0l.606 1.148a11.352 11.352 0 0 1 4.477 0L12.843 0a16.083 16.083 0 0 1 4.065 1.292ZM6.669 10.374a2.014 2.014 0 0 0 0-4 2.014 2.014 0 0 0 0 4Zm6.658 0a2.014 2.014 0 0 0 0-4 2.014 2.014 0 0 0 0 4Z"/>
    </symbol>

    <symbol viewBox="0 0 32 32.098" id="edit">
      <g>
        <path d="M19.357 1.031c-1.013.507-1.772 1.14-1.772 1.393s.759.949 1.772 1.518c2.341 1.392 6.9 6.011 8.858 8.921l1.644 2.468 1.076-2.151c4.05-7.529-4.239-16.197-11.578-12.149Z"/>
        <path d="M9.097 8.172A32.126 32.126 0 0 0 .508 25.229c-1.082 6.836-.812 7.242 4.6 6.7 8.048-.812 16.569-5.28 20.9-10.965l1.894-2.5-1.221-2.238a33.035 33.035 0 0 0-3.449-4.941c-2.3-2.707-8.181-6.836-9.671-6.836-.474 0-2.503 1.692-4.464 3.723Zm.812 14.214c3.382 3.384 2.908 5.144-1.758 6.295-5 1.218-5.681.812-5.14-2.775 1.149-6.634 2.907-7.514 6.898-3.52Z"/>
      </g>
    </symbol>

    <symbol viewBox="0 0 45 45.562" id="enter">
      <path d="M19.759.165c-5.866.879-8.48 1.494-9.666 2.285-2.043 1.362-2.438 2.7-3.581 12.764l-.264 2.2-2.417.044c-3.01.088-3.273.132-3.581.835a1.761 1.761 0 0 0 .286 2.2l.527.549h11.2c7.359 0 11.248-.066 11.336-.22.088-.132-.154-.593-.483-1.054a8.517 8.517 0 0 1-1.823-4 1.367 1.367 0 0 1 .571-1.3c.33-.264.755-.583 1.054-.461.817.086 1.564 1.368 1.806 1.758a16.493 16.493 0 0 0 2.763 3.471 21.843 21.843 0 0 1 1.955 1.6c.725.681.857.945.857 1.714 0 1.406-.308 1.867-1.977 2.966a10.357 10.357 0 0 0-3.207 3.625c-1.142 2.329-2.065 2.9-3.251 1.977-.835-.659-.769-1.757.22-3.647a11.005 11.005 0 0 1 1.23-1.977c.242-.264.373-.571.286-.7-.2-.352-16.63-.33-16.981.022-.483.483-.286 4.46.483 10.611.659 5.119 1.362 6.81 3.273 7.865.945.527 3.383 1.142 7.293 1.845a75.257 75.257 0 0 0 16.037 0c6.151-1.1 7.689-1.67 8.853-3.251.967-1.318 1.406-3.405 2.241-10.962.264-2.329.264-13.994 0-16.366-.989-9.007-1.494-10.764-3.515-12.1-.835-.549-3.757-1.34-7.359-1.977A87.821 87.821 0 0 0 19.759.165Z"/>
    </symbol>

    <symbol viewBox="0 0 19 19" id="exit">
      <g>
        <path d="M1.5 19a1.5 1.5 0 0 1-1.061-.439 1.5 1.5 0 0 1 0-2.121l16-16a1.5 1.5 0 0 1 2.121 0 1.5 1.5 0 0 1 0 2.121l-16 16A1.5 1.5 0 0 1 1.5 19Z"/>
        <path d="M17.5 19a1.5 1.5 0 0 1-1.061-.439l-16-16a1.5 1.5 0 0 1 0-2.121 1.5 1.5 0 0 1 2.121 0l16 16A1.5 1.5 0 0 1 17.5 19Z"/>
      </g>
    </symbol>

    <symbol viewBox="0 0 35.5 15" id="expand-bold">
      <g>
        <path d="M17.5 15a1.493 1.493 0 0 1-.9-.3l-16-12A1.5 1.5 0 0 1 .3.6 1.5 1.5 0 0 1 2.4.3l16 12a1.5 1.5 0 0 1-.9 2.7Z"/>
        <path d="M18 14.784a1.5 1.5 0 0 1-1.237-.65 1.5 1.5 0 0 1 .387-2.086l16-11a1.5 1.5 0 0 1 2.086.386 1.5 1.5 0 0 1-.386 2.086l-16 11a1.493 1.493 0 0 1-.85.264Z"/>
      </g>
    </symbol>
    <symbol viewBox="0 0 23 12" id="expand-wide">
      <g>
        <path d="M12 12a1 1 0 0 1-.672-.26l-11-10A1 1 0 0 1 .26.327 1 1 0 0 1 1.673.26l11 10A1 1 0 0 1 12 12Z"/>
        <path d="M12 12a1 1 0 0 1-.707-.293 1 1 0 0 1 0-1.414l10-10a1 1 0 0 1 1.414 0 1 1 0 0 1 0 1.414l-10 10A1 1 0 0 1 12 12Z"/>
      </g>
    </symbol>
    <symbol viewBox="0 0 18 10" id="expand-sharp">
      <g>
        <path d="M9 10a1 1 0 0 1-.707-.293l-8-8a1 1 0 0 1 0-1.414 1 1 0 0 1 1.414 0l8 8A1 1 0 0 1 9 10Z"/>
        <path d="M9 10a1 1 0 0 1-.707-.293 1 1 0 0 1 0-1.414l8-8a1 1 0 0 1 1.414 0 1 1 0 0 1 0 1.414l-8 8A1 1 0 0 1 9 10Z"/>
      </g>
    </symbol>

    <symbol viewBox="0 0 18.002 9.061" id="eye">
      <g>
        <path d="M4.7.772a14.783 14.783 0 0 0-3.123 2.2L0 4.409l1.58 1.433c4.666 4.262 10.066 4.3 14.842.073l1.58-1.433-.735-.808A17.481 17.481 0 0 0 12.528.368L11.61.037l.7 1.176a4.864 4.864 0 0 1 .735 2.021A4.447 4.447 0 0 1 9 7.348a4.447 4.447 0 0 1-4.04-4.115 5 5 0 0 1 .735-2.057A3.747 3.747 0 0 0 6.319 0C6.282 0 5.548.331 4.7.772Z"/>
        <path d="M7.749 2.056a1.814 1.814 0 0 0 1.252 3.093 2.042 2.042 0 0 0 1.841-1.841 2.042 2.042 0 0 0-1.841-1.841 1.986 1.986 0 0 0-1.252.589Z"/>
      </g>
    </symbol>
    <symbol viewBox="0 0 17.998 15.007" id="eye-closed">
      <g>
        <path d="M6.09.388a9.638 9.638 0 0 0-2.214 1.168c-.765.523-.886.765-.443 1.168.4.443.725.4 1.691-.161a7.976 7.976 0 0 1 7.166-.282c2.174.926 2.778.886 2.375-.161C14.021.468 8.626-.619 6.09.388Z"/>
        <path d="M.454 5.698a2.407 2.407 0 0 0 .6 1.731l.809 1.169L.776 9.647c-.805.845-.966 1.168-.564 1.57.362.362.725.242 1.57-.6 1.087-1.007 1.127-1.047 2.094-.322.926.725.926.765.282 1.691-.805 1.168-.805 1.812-.04 2.134.4.121.805-.242 1.248-1.087.362-.725.725-1.329.765-1.409a2.621 2.621 0 0 1 1.127.121c.845.242 1.047.564 1.168 1.731.161 2.053 1.288 2.053 1.449-.04.081-.805.282-1.49.483-1.49a3.5 3.5 0 0 0 .926-.242c.362-.121.886.322 1.449 1.248 1.288 2.214 2.134 1.087 1.087-1.49-.2-.443-.04-.805.564-1.127.725-.4 1.047-.322 1.771.362a2.956 2.956 0 0 0 1.369.845c.765 0 .564-1.409-.322-2.214-.765-.725-.765-.725.04-1.892.765-1.087.805-2.335.04-2.335a8.917 8.917 0 0 0-1.855 1.849 8.685 8.685 0 0 1-6.281 3.382A9.368 9.368 0 0 1 2.06 6.105C1.34 4.977.776 4.816.454 5.698Z"/>
      </g>
    </symbol>

    <symbol viewBox="0 0 18 18" id="facebook">
      <path d="M16 0H2a2 2 0 0 0-2 2v14a2 2 0 0 0 2 2h7.621v-6.961H7.278V8.314h2.343v-2a3.275 3.275 0 0 1 3.5-3.591 20.018 20.018 0 0 1 2.092.105v2.43H13.78c-1.13 0-1.35.534-1.35 1.322v1.73h2.7l-.351 2.725h-2.365V18H16a2 2 0 0 0 2-2V2a2 2 0 0 0-2-2Z"/>
    </symbol>

    <symbol viewBox="0 0 48 50.155" id="gift">
      <g>
        <path d="M10.9 2.055a4.618 4.618 0 0 0-1.5 5c.4 2.4.2 2.9-1.3 2.9-4.2 0-8.1 2.2-8.1 4.5a4.958 4.958 0 0 0 1.3 3.3c5 4.1 40.4 4.1 45.5 0a5.46 5.46 0 0 0 1.2-3.3c0-2.3-3.9-4.5-8.1-4.5-1.5 0-1.7-.5-1.3-2.9a4.618 4.618 0 0 0-1.5-5c-3-3-6.7-2.7-10.2.8l-2.9 2.9-2.9-2.9c-3.5-3.5-7.2-3.8-10.2-.8Zm7.3 3.6c2.6 2.3 2.2 3.3-1.1 3.3-2.8 0-4.7-2.2-3.5-4.1.8-1.4 2.5-1.1 4.6.8Zm16.2-.8c1.2 1.9-.7 4.1-3.5 4.1-3.3 0-3.6-.6-1.2-3.2 1.7-1.9 3.8-2.3 4.7-.9Z"/>
        <path d="M2.4 24.455c-1.1 2.7.3 15.1 2.1 18.8 1.9 4 4.2 5.3 11.8 6.2l5.7.7v-24.9l-7.8-.6c-4.3-.3-8.6-.9-9.5-1.3a1.619 1.619 0 0 0-2.3 1.1Z"/>
        <path d="M39.5 24.055a58.522 58.522 0 0 1-8.7.8l-4.8.1v25.2l5.7-.7c7.6-.9 9.9-2.2 11.9-6.4 1.9-4 2.6-19.2.9-19.6-.5-.2-2.8.1-5 .6Z"/>
    </g>
    </symbol>

    <symbol viewBox="0 0 24.002 24.484" id="google">
      <path d="M12.245 10.086v4.678h6.666a6.686 6.686 0 0 1-6.666 4.863 7.384 7.384 0 1 1 4.8-12.99l3.445-3.445a12.243 12.243 0 1 0-8.245 21.293c10.279 0 12.547-9.61 11.539-14.382Z"/>
    </symbol>

    <symbol viewBox="0 0 48 38.17" id="hand-cash">
      <g>
        <path d="M28.768 4.742a54.723 54.723 0 0 0-4.771 5.064 5.933 5.933 0 0 0 2.225 2.2 38.243 38.243 0 0 0 3.775-3.517 25.7 25.7 0 0 1 3.952-3.513c.585 0 9.367 8.782 9.367 9.367a26.492 26.492 0 0 1-3.571 4.01l-3.571 3.6 1 1.024A3.716 3.716 0 0 0 38.604 24a36.05 36.05 0 0 0 4.918-4.6c3.747-3.805 4.479-4.713 4.479-5.445s-.937-1.815-6.528-7.406c-4.888-4.947-6.674-6.557-7.2-6.557s-1.963 1.237-5.505 4.75Z"/>
        <path d="M14.923 3.425a20.2 20.2 0 0 0-2.343.671 20.826 20.826 0 0 1-3.366.732c-4.01.381-4.186.439-5.181 1.434a6.08 6.08 0 0 0-1.376 2.4C2.276 10.009.93 14.311.286 16.273a9.127 9.127 0 0 0 .263 5.357c.585 1.581 5.708 9.367 8.108 12.323 2.4 2.986 4.3 4.157 6.791 4.215 1.229 0 1.668-.117 1.99-.556.673-.907.5-1.434-1.171-3.249-1.259-1.376-1.522-1.873-1.317-2.254.176-.263.439-.5.615-.5a14.764 14.764 0 0 1 2.752 2.342c2.254 2.2 2.459 2.342 3.659 2.342 1.727 0 3.191-.907 3.191-1.961 0-.585-.585-1.376-2.342-3.191-2.4-2.459-2.956-3.63-1.7-3.63.381 0 1.7 1.054 3.63 2.927 2.517 2.43 3.161 2.927 3.922 2.927 1.464 0 3.513-1.347 3.513-2.312a17.1 17.1 0 0 0-2.81-3.278c-2.81-2.9-3.308-3.835-2.02-4.01.41-.059 1.581.937 3.952 3.308 3.015 3.015 3.454 3.366 4.391 3.366a3.064 3.064 0 0 0 2.927-2.81c0-.293-3.747-4.274-8.342-8.9-6.147-6.176-8.342-8.547-8.342-9.045 0-.468.849-1.551 2.634-3.366a27.721 27.721 0 0 0 2.634-2.9 122.308 122.308 0 0 0-12.291.007Z"/>
        <path d="M30.344 9.338c-3.074 3.132-3.893 4.449-2.459 3.981a11.477 11.477 0 0 1 2.108-.351 3.487 3.487 0 0 1 2.81.732 5.261 5.261 0 0 1 2.312 6.089c-.234.556-.234.878 0 1.112.2.2 1.317-.7 3.659-3.044 1.844-1.844 3.366-3.425 3.366-3.513a100.2 100.2 0 0 0-8.342-8.2 24.823 24.823 0 0 0-3.454 3.194Z"/>
        <path d="M28.68 14.021c-.351.263.059.79 2.342 2.956a15.976 15.976 0 0 0 3.074 2.517c.439-.117.527-1.873.146-2.81a7.015 7.015 0 0 0-1.317-1.756 3.238 3.238 0 0 0-2.4-1.083 4.368 4.368 0 0 0-1.845.176Z"/>
      </g>
    </symbol>

    <symbol viewBox="0 0 24 19.849" id="heart">
      <path d="M6.133.122a5.588 5.588 0 0 0-1.317.321 3.264 3.264 0 0 1-.609.21A7.785 7.785 0 0 0 2.58 1.727 7.82 7.82 0 0 0 .255 5.081 10.068 10.068 0 0 0 0 7.3a10.873 10.873 0 0 0 .288 2.435 18.1 18.1 0 0 0 7.162 8.657 19.733 19.733 0 0 0 2.059 1.018 7.349 7.349 0 0 0 3.31.4 10.928 10.928 0 0 0 5.07-2.336 17.2 17.2 0 0 0 5.8-7.793 10.752 10.752 0 0 0 .31-2.325 9.63 9.63 0 0 0-.288-2.269 6.328 6.328 0 0 0-1.849-2.878A6.719 6.719 0 0 0 16.648.084a9.324 9.324 0 0 0-1.517.122 8.7 8.7 0 0 0-2.524 1.118.766.766 0 0 1-1.074.111A7.567 7.567 0 0 0 8.389.162 19.52 19.52 0 0 0 7.127.007Z"/>
    </symbol>

    <symbol viewBox="0 0 24 11.111" id="infinity">
      <path d="M3.043.679A5.429 5.429 0 0 0 .975 8.673a6.427 6.427 0 0 0 4.537 2.438 8.227 8.227 0 0 0 4.6-2.068l1.019-.864-.617-.772-.617-.741-1.238 1.112c-2.037 1.852-4.167 1.914-5.8.216a2.784 2.784 0 0 1-.9-2.438 2.785 2.785 0 0 1 .9-2.438 4.173 4.173 0 0 1 1.914-1.142c2.13-.4 3.611.679 7.809 5.648 1.79 2.13 4.1 3.488 5.9 3.488a6.3 6.3 0 0 0 2.469-.71 5.4 5.4 0 0 0 0-9.722A6.773 6.773 0 0 0 18.475 0a9 9 0 0 0-4.907 2.284c-.648.71-.648.71-.062 1.451l.586.71 1.235-1.111c2.037-1.852 4.167-1.914 5.8-.216a2.784 2.784 0 0 1 .9 2.438 2.784 2.784 0 0 1-.9 2.438 4.173 4.173 0 0 1-1.914 1.142c-2.13.4-3.611-.679-7.809-5.648C9.614 1.358 7.304 0 5.504 0a6.773 6.773 0 0 0-2.461.679Z"/>
    </symbol>

    <symbol viewBox="0 0 24 24" id="info">
      <path d="M12 0A12 12 0 1 1 0 12 12 12 0 0 1 12 0Zm1.091 17.455V12a1.091 1.091 0 1 0-2.182 0v5.455a1.091 1.091 0 0 0 2.182 0ZM12 9.273a1.636 1.636 0 1 0-1.636-1.636A1.636 1.636 0 0 0 12 9.273Z"/>
    </symbol>

    <symbol viewBox="0 0 18 18" id="instagram">
      <g transform="translate(-3 -3)">
        <path d="M16 3H8a5 5 0 0 0-5 5v8a5 5 0 0 0 5 5h8a5 5 0 0 0 5-5V8a5 5 0 0 0-5-5Zm-4 14a5 5 0 1 1 5-5 5 5 0 0 1-5 5Zm6-10a1 1 0 1 1 1-1 1 1 0 0 1-1 1Z"/>
        <circle cx="3" cy="3" r="3" transform="translate(9 9)"/>
      </g>
    </symbol>

    <symbol viewBox="0 0 31.997 35.432" id="joystick">
      <g>
        <path d="M12.138 1.74c-2.436 2.367-2.3 5.5.348 8a5.321 5.321 0 0 1 2.088 4.8c0 2.367.209 2.854 1.392 2.854s1.392-.487 1.392-2.854a5.321 5.321 0 0 1 2.088-4.8c3.9-3.62 1.671-9.745-3.48-9.745a5.426 5.426 0 0 0-3.828 1.745Z"/>
        <path d="M5.943 21.156c-2.367.557-4.525 1.462-5.081 2.158-1.114 1.671-1.183 7.378 0 8.91 1.114 1.531 9.188 3.272 15.1 3.2 6.4 0 13.922-1.531 15.1-3.132 1.392-1.949 1.183-7.657-.418-9.258-2.635-2.639-16.278-3.683-24.701-1.878Zm17.68 6.682c0 .766-.418 1.392-.975 1.392a1.441 1.441 0 0 1-1.462-2.088 1.288 1.288 0 0 1 2.438.701Zm5.569 0c0 .766-.418 1.392-.975 1.392a1.441 1.441 0 0 1-1.462-2.088 1.288 1.288 0 0 1 2.437.701Z"/>
      </g>
    </symbol>

    <symbol viewBox="0 0 47.996 48.41" id="list">
      <g>
        <path d="M4.016.348C1.029 1.181 0 2.699 0 6.323c0 4.163 1.077 5.73 4.359 6.514 3.624.833 7.2-.049 8.424-2.106a9.9 9.9 0 0 0 0-8.326C12.097 1.23 11.314.74 9.355.299 6.408-.159 6.8-.051 4.016.348Z"/>
        <path d="M19.198 5.197a1.91 1.91 0 0 0 .1 2.792c.441.392 4.653.539 14.252.441 12.342-.147 13.664-.245 14.154-1.028a1.4 1.4 0 0 0 0-1.714c-.49-.735-1.812-.833-14.2-.98-10.241-.099-13.865.048-14.306.489Z"/>
        <path d="M4.016 17.979C1.028 18.811 0 20.33 0 23.954c0 4.163 1.077 5.73 4.359 6.514 3.624.833 7.2-.049 8.424-2.106a9.9 9.9 0 0 0 0-8.326c-.686-1.175-1.469-1.665-3.428-2.106a12.239 12.239 0 0 0-5.339.049Z"/>
        <path d="M19.198 22.828a1.91 1.91 0 0 0 .1 2.792c.441.392 4.653.539 14.252.441 12.342-.147 13.664-.245 14.154-1.028a1.4 1.4 0 0 0 0-1.714c-.49-.735-1.812-.833-14.2-.979-10.241-.1-13.865.047-14.306.488Z"/>
        <path d="M4.016 35.61C1.028 36.442 0 37.961 0 41.585c0 4.163 1.077 5.73 4.359 6.514 3.624.833 7.2-.049 8.424-2.106a9.9 9.9 0 0 0 0-8.326c-.686-1.175-1.469-1.665-3.428-2.106-2.948-.459-2.488-.428-5.339.049Z"/>
        <path d="M19.198 40.459a1.91 1.91 0 0 0 .1 2.792c.441.392 4.653.539 14.252.441 12.342-.147 13.664-.245 14.154-.98a1.4 1.4 0 0 0 0-1.714c-.49-.784-1.812-.882-14.2-1.028-10.241-.099-13.865.048-14.306.489Z"/>
      </g>
    </symbol>

    <symbol viewBox="0 0 16.003 12.609" id="quote">
      <g>
        <path d="M2.196.297a3.493 3.493 0 0 0-.888 5.97 3.352 3.352 0 0 0 3.208.739 7.45 7.45 0 0 1 .9-.282 2.262 2.262 0 0 1-.137.915 7.779 7.779 0 0 1-2.661 3.418c-1.519.971-1.118 2.089.443 1.266 2.469-1.308 4.326-5.4 4.052-8.863A3.573 3.573 0 0 0 2.196.297Z"/>
        <path d="M11.059.297a3.493 3.493 0 0 0-.888 5.97 3.352 3.352 0 0 0 3.208.739 8.658 8.658 0 0 1 .9-.293 2.374 2.374 0 0 1-.145.926 7.778 7.778 0 0 1-2.653 3.418c-1.519.971-1.118 2.089.443 1.266 2.469-1.308 4.326-5.4 4.052-8.863A3.573 3.573 0 0 0 11.059.297Z"/>
      </g>
    </symbol>

    <symbol viewBox="0 0 23.998 19.595" id="refresh">
      <g>
        <path d="M10.837.076A10.442 10.442 0 0 0 6.38 1.971a10.04 10.04 0 0 0-3.6 5.452 51.994 51.994 0 0 1-.273 1.118c-.041.123-.2.055-.559-.232a1.716 1.716 0 0 0-.9-.423A1.148 1.148 0 0 0 0 8.991c0 .382.218.654 1.54 1.99 1.349 1.349 1.608 1.54 2 1.54s.654-.191 2-1.54c1.322-1.336 1.54-1.608 1.54-1.99a1.081 1.081 0 0 0-1.772-.832c-.477.368-.545.341-.463-.177a8.544 8.544 0 0 1 2.031-3.558 7.542 7.542 0 0 1 10.8.055c.818.8 1.036.954 1.431.954a1.046 1.046 0 0 0 1.063-1.091c0-.382-.164-.6-1.05-1.486A9.426 9.426 0 0 0 14.036.171a11.193 11.193 0 0 0-3.199-.095Z"/>
        <path d="M19.956 7.233a14.135 14.135 0 0 0-1.677 1.554c-1.5 1.54-1.636 1.867-1.09 2.563a1.089 1.089 0 0 0 1.554.082c.654-.722.545.123-.218 1.731a7.612 7.612 0 0 1-8.506 4.062 8.17 8.17 0 0 1-3.721-2.113c-1.131-1.09-1.513-1.2-2.126-.6-.613.627-.5 1.036.641 2.154a9.769 9.769 0 0 0 9.433 2.6 10.034 10.034 0 0 0 6.979-7.143c.109-.491.232-.981.259-1.077.041-.136.2-.068.532.232.641.559 1.295.573 1.69.068.545-.7.409-1.022-1.09-2.563-1.651-1.7-1.978-1.891-2.66-1.55Z"/>
      </g>
    </symbol>

    <symbol viewBox="0 0 47.996 43.425" id="scroll">
      <path d="M14.285 0a7.437 7.437 0 0 0-7.428 7.428V32h20A5.149 5.149 0 0 1 32 37.14V40a3.43 3.43 0 0 0 3.413 3.426h.031a3.43 3.43 0 0 0 3.41-3.4V3.435A5.654 5.654 0 0 1 40.026 0Zm30.283 0a3.432 3.432 0 0 0-3.428 3.428v6.857h4A2.859 2.859 0 0 0 48 7.428v-4A3.432 3.432 0 0 0 44.568 0ZM15.427 8h14.856a1.714 1.714 0 1 1 0 3.428H15.427a1.714 1.714 0 1 1 0-3.428Zm0 8h14.856a1.714 1.714 0 1 1 0 3.428H15.427a1.714 1.714 0 1 1 0-3.428Zm0 8H28a1.714 1.714 0 1 1 0 3.428H15.427a1.714 1.714 0 1 1 0-3.428ZM2.857 34.283A2.859 2.859 0 0 0 0 37.14v1.143a5.149 5.149 0 0 0 5.142 5.142h25.742A5.654 5.654 0 0 1 29.712 40v-2.86a2.859 2.859 0 0 0-2.857-2.857Z"/>
    </symbol>

    <symbol viewBox="0 0 24 24.11" id="search">
      <g>
        <path d="M5.665.649A9.323 9.323 0 0 0 .281 6.454 8.509 8.509 0 0 0 10.533 16.8a8.239 8.239 0 0 0 6.273-8.193A8.308 8.308 0 0 0 10.673.414C8.474-.194 7.959-.147 5.665.649Z"/>
        <path d="M16.807 14.647a8.748 8.748 0 0 1-2.479 2.434c-1.592.983-1.685 1.4-.609 3 2.481 3.792 4.635 4.775 7.35 3.511a5.3 5.3 0 0 0 2.854-5.337c-.328-1.5-2.107-3.324-4.307-4.447a13.176 13.176 0 0 0-1.639-.753 9.288 9.288 0 0 0-1.17 1.592Z"/>
      </g>
    </symbol>

    <symbol viewBox="0 0 24 24.038" id="send">
      <path d="M13.077.551c-4.224.979-9.838 3.3-11.641 4.79-1.957 1.648-1.906 3.3.1 5.305 1.648 1.6 5.048 3.606 6.232 3.606.361 0 2.318-1.648 4.378-3.709 2.936-2.936 3.863-3.606 4.378-3.09s-.155 1.442-3.09 4.378c-2.06 2.06-3.709 4.018-3.709 4.378 0 2.369 4.636 7.829 6.7 7.829 2.163 0 5.305-6.181 6.954-13.546 1.03-4.687.773-7.778-.721-9.271-1.339-1.34-5.357-1.597-9.581-.67Z"/>
    </symbol>

    <symbol viewBox="0 0 24 23.982" id="slot-machine">
      <path d="M8.154.061a9.559 9.559 0 0 0-5.3 2.761 9.247 9.247 0 0 0-2.641 4.8c-.2.88-.21 1.161-.21 7.714 0 6.713 0 6.8.21 7.193a2.513 2.513 0 0 0 1.241 1.211l.5.24h15.307l.5-.24A2.354 2.354 0 0 0 19 22.481c.18-.4.21-.65.21-2.431v-1.981l.26-.24a1.142 1.142 0 0 1 .34-.25 1.4 1.4 0 0 0 .34-.4c.24-.36.3-.4.69-.4a2.558 2.558 0 0 0 2.1-1.351c.19-.35.22-.6.25-1.9l.04-1.5.4-.43c.37-.41.4-.47.35-.89a1.108 1.108 0 0 0-1.171-1.081 1.108 1.108 0 0 0-1.169 1.081c-.05.42-.03.48.36.9l.41.44v1.391c0 1.321-.01 1.411-.25 1.761a1.653 1.653 0 0 1-1.341.78c-.37 0-.43-.04-.67-.4a1.444 1.444 0 0 0-.33-.4 1.259 1.259 0 0 1-.31-.2l-.25-.19-.05-3.332a18.837 18.837 0 0 0-.24-4.032 9.768 9.768 0 0 0-7.213-7.2A13.353 13.353 0 0 0 8.154.061ZM6.133 9.856l.27.28v3.7l-.28.27c-.27.26-.33.27-1.321.27s-1.05-.01-1.321-.27l-.28-.27v-3.7l.27-.28c.26-.27.3-.28 1.331-.28s1.071.009 1.331.279Zm4.8 0 .27.28v3.7l-.28.27c-.27.26-.33.27-1.321.27s-1.05-.01-1.321-.27l-.28-.27v-3.7l.27-.28c.26-.27.3-.28 1.331-.28s1.073.009 1.333.279Zm4.8 0 .27.28v3.7l-.28.27c-.27.26-.33.27-1.321.27s-1.05-.01-1.321-.27l-.28-.27v-3.7l.27-.28c.26-.27.3-.28 1.331-.28s1.075.009 1.335.279ZM14.282 17.7a.363.363 0 0 1-.07.58c-.13.06-1.781.1-4.682.1-4.642 0-4.732-.01-4.732-.4s.09-.4 4.8-.4a30.024 30.024 0 0 1 4.689.119Z"/>
    </symbol>

    <symbol viewBox="0 0 32 29.584" id="speech-bubble">
      <path d="M14.291.04a31.421 31.421 0 0 0-3.945.819 16.607 16.607 0 0 0-6.757 4.065 13.887 13.887 0 0 0-2.5 3.633 2.75 2.75 0 0 1-.287.73 2.638 2.638 0 0 0-.287.834 6.666 6.666 0 0 1-.244 1.117c-.574 1.936-.215 5.927.775 8.741a22.207 22.207 0 0 0 1.75 4.169 16.385 16.385 0 0 0 3.113 4.244c1.047 1.013 1.291 1.191 1.722 1.191.617 0 1.492-.789 2.367-2.174.66-1.027 1.047-1.251 1.65-.983 1.191.566 6.456.566 8.665 0a19.088 19.088 0 0 0 5.423-2.308 2.5 2.5 0 0 1 .545-.342 9.04 9.04 0 0 0 1.1-.879 12.754 12.754 0 0 0 4.29-6.716 11.708 11.708 0 0 0-.9-7.892c-.072-.119-.244-.462-.4-.745a16.833 16.833 0 0 0-4.462-4.631c-.273-.164-.789-.462-1.148-.67a18.552 18.552 0 0 0-5.38-1.921 25.077 25.077 0 0 0-5.09-.282Z"/>
    </symbol>

    <symbol viewBox="0 0 45.01 48.471" id="user">
      <g>
        <path d="M20.504.108c-4.527 1.22-7.436 3.871-8.774 8a7.536 7.536 0 0 0-.422 3.636 10.929 10.929 0 0 0 1.454 4.973 12.314 12.314 0 0 0 6.123 5.09 12.087 12.087 0 0 0 7.014.07 12.254 12.254 0 0 0 6.287-5.091 11.493 11.493 0 0 0 .985-8.985 12.161 12.161 0 0 0-6.92-7.178 15.289 15.289 0 0 0-5.747-.515Z"/>
        <path d="M16.048 26.921a33.282 33.282 0 0 0-9.689 3.331c-3.167 1.666-4.762 3.167-5.818 5.325a4.342 4.342 0 0 0-.493 2.932c.328 4.551 3.589 7.225 10.721 8.8a47.513 47.513 0 0 0 10.674 1.143c7.436.164 14.31-.985 18.814-3.167 3.706-1.783 5.747-6.31 4.269-9.524-1.1-2.416-2.932-4.082-6.428-5.771a29.355 29.355 0 0 0-5.981-2.338 31.719 31.719 0 0 0-16.069-.731Z"/>
      </g>
    </symbol>

    <symbol viewBox="0 0 24 24.327" id="warning">
      <path d="M8.031 2.437C4.14 6.515-.594 16.687.062 19.637s3.141 4.125 9.844 4.594c7.875.516 13.218-1.125 14.015-4.359.75-3-3.937-13.265-7.922-17.437C14.031.422 13.331 0 12.014 0S9.999.422 8.031 2.437Zm4.687 9.8c0 3.187-.141 3.937-.7 3.937s-.75-.75-.844-3.469c-.141-3.844.094-4.922.984-4.594.373.089.559 1.358.559 4.123Zm.141 6.375a.989.989 0 0 1-.844.844.989.989 0 0 1-.844-.844c-.094-.562.141-.8.844-.8s.937.234.843.797Z"/>
    </symbol>
  </defs>
</svg>