<svg xmlns="http://www.w3.org/2000/svg" width="116.8" height="114.147">
    <g opacity=".8">
        <path data-name="Rectangle 196" fill="none" d="M0 0h116.8v114H0z"/>
        <path data-name="Path 219" d="M55.43 31.191c-8.031 2.168-13.187 6.868-15.562 14.189a13.366 13.366 0 0 0-.749 6.449 19.386 19.386 0 0 0 2.58 8.821 21.842 21.842 0 0 0 10.86 9.029A21.44 21.44 0 0 0 65 69.804a21.736 21.736 0 0 0 11.151-9.029 20.385 20.385 0 0 0 1.748-15.936c-1.831-5.534-7.074-10.985-12.275-12.733-2.621-.873-8.405-1.414-10.194-.915Z" fill="#efecf7"/>
        <path data-name="Path 220" d="M47.524 78.75c-7.531 1.623-12.233 3.2-17.185 5.909-5.617 2.954-8.447 5.617-10.319 9.445a7.027 7.027 0 0 0-.917 3.917c3.516 3.328 5.255 5.162 12.563 9.313a56.211 56.211 0 0 0 25.657 6.8c13.19.291 21.03-3.3 28.609-7.172A58.758 58.758 0 0 0 98.807 96.9a9.35 9.35 0 0 0-.769-2.459c-1.956-4.286-5.2-7.24-11.4-10.236a52.065 52.065 0 0 0-10.61-4.161c-10.446-2.916-19.142-3.333-28.504-1.294Z" fill="#efecf7"/>
    </g>
</svg>
