<svg xmlns="http://www.w3.org/2000/svg" width="281.64" height="58.087"><defs><linearGradient id="a" x1=".256" x2="1" y2="1" gradientUnits="objectBoundingBox"><stop offset="0" stop-color="#5f43b2"/><stop offset="1" stop-color="#b5a9dc"/></linearGradient></defs><path d="m83.712 45.443-4.192-2.5c4.38-1.244 6.272-4.86 6.272-11.1 0-7.9-3.008-11.584-10.336-11.584-7.3 0-10.208 3.68-10.208 11.584 0 7.072 2.336 10.784 8.064 11.456a25.269 25.269 0 0 0 3.808 4.928zm-8.128-8.32c-2.56 0-3.04-2.016-3.04-5.28s.48-5.28 3.04-5.28c2.592 0 2.912 2.016 2.912 5.28s-.32 5.28-2.912 5.28zm30.08 4.96a41.47 41.47 0 0 1-.512-6.72v-9.6l-6.88.8v10.624a1.951 1.951 0 0 1-1.408.8c-.832 0-1.44-.416-1.44-2.624v-9.6l-6.88.8v9.632c0 3.072.1 7.232 6.3 7.232a4.785 4.785 0 0 0 4.576-2.272l1.124 2.368zm18.236-.832-1.98-4.64a10.488 10.488 0 0 1-4.7 1.216 2.183 2.183 0 0 1-2.24-1.408l9.152-1.344c0-8.448-3.52-9.7-7.9-9.7-6.016 0-8.32 2.688-8.32 9.184 0 6.528 3.424 8.864 8.928 8.864a12.438 12.438 0 0 0 7.06-2.172zm-9.212-7.744a7.807 7.807 0 0 1-.032-.832c0-1.6.48-2.176 1.536-2.176.9 0 1.312.608 1.312 1.984zm12.96 3.36-1.728 4.676a15.043 15.043 0 0 0 7.648 1.884c4.16 0 7.232-1.76 7.232-5.536 0-5.92-7.936-5.6-7.936-6.88 0-.288.384-.416.928-.416a10.368 10.368 0 0 1 4.768 1.024l1.888-4.32a12.726 12.726 0 0 0-7.2-1.92c-4.192 0-7.264 2.4-7.264 5.632 0 6.048 7.968 5.312 7.968 6.784 0 .288-.288.384-.8.384a13.144 13.144 0 0 1-5.504-1.312zm25.7 4.256a7.23 7.23 0 0 1-1.888-5.408v-5.12h2.816l.544-4.832h-3.36v-5.376l-6.88.8v4.576h-2.148v4.832h2.144v5.728c0 3.2.992 6.112 4.32 7.648z" fill="#c2adff"/><path d="m184.44 44.439-1.94-6.12a10.689 10.689 0 0 1-4.792 1.116c-2.268 0-3.308-1.044-3.308-4.176 0-5.4 1.836-7.272 4.716-7.272a8.094 8.094 0 0 1 4.1.936l3.24-6.12a12.683 12.683 0 0 0-7.848-2.16c-5.8 0-12.42 3.132-12.42 15.768 0 7.164 3.888 10.3 9.468 10.3a15.787 15.787 0 0 0 8.784-2.272zm20.988 1.116c-.036-.648-.072-1.3-.072-1.944a47.116 47.116 0 0 1 .468-6.084l1.152-9.72a31.438 31.438 0 0 0-9.648-1.4c-5.9 0-10.764 2.52-10.764 11.916 0 5.436 2.268 8.388 6.588 8.388a6.108 6.108 0 0 0 5.436-2.556l1.152 2.552zm-7.6-5.868a2.557 2.557 0 0 1-1.728.9c-1.3 0-1.728-.72-1.728-2.34 0-3.168.576-5.832 2.916-5.832a5.8 5.8 0 0 1 1.4.144zm12.892-.468-2.556 5.256a16.726 16.726 0 0 0 8.316 2.232c5.184 0 8.964-2.16 8.964-7.092 0-5.8-8.028-5.508-8.028-6.876 0-.36.5-.468 1.224-.468a11.121 11.121 0 0 1 4.932 1.08l2.736-4.86a13.028 13.028 0 0 0-7.7-2.088c-5.544 0-8.964 2.88-8.964 7.2 0 5.868 8.028 5.184 8.028 6.768 0 .324-.36.432-.936.432a12.681 12.681 0 0 1-6.016-1.584zm25.02 7.056a15.992 15.992 0 0 1-.14-2.268 35.489 35.489 0 0 1 .252-3.78l1.62-13.392-7.884 1.332-1.3 10.548a25.171 25.171 0 0 0-.216 3.312 19.745 19.745 0 0 0 .428 4.248zm-2.2-20.412c2.916 0 4.86-.936 4.86-4.14 0-2.16-1.44-3.312-3.96-3.312-2.916 0-4.9.936-4.9 4.1.008 2.2 1.484 3.352 4.004 3.352zm24.196 20.412 1.332-10.764c.072-.72.144-1.44.144-2.124 0-4.428-2.088-6.984-6.192-6.984a6.045 6.045 0 0 0-5.4 2.556l-1.152-2.556-5.688 1.152c.036.648.072 1.3.072 1.944a54.569 54.569 0 0 1-.468 6.084l-1.332 10.692h7.74l1.584-12.852a2.48 2.48 0 0 1 1.692-.9c.9 0 1.332.5 1.332 1.836 0 .324-.036.684-.072 1.116L250 46.275zm13.464-5.688c-1.26 0-1.692-.9-1.692-2.34 0-3.528.756-5.724 2.664-5.724 1.26 0 1.656.9 1.656 2.34 0 3.528-.72 5.724-2.628 5.724zm-.684 6.12c7.308 0 11.124-3.384 11.124-11.916 0-5.292-2.664-8.388-8.82-8.388-7.308 0-11.124 3.384-11.124 11.916.004 5.292 2.664 8.388 8.82 8.388z" fill="#43307e"/><path d="m19.44-1.836-1.94-6.12a10.689 10.689 0 0 1-4.792 1.116C10.44-6.84 9.4-7.884 9.4-11.016c0-5.4 1.836-7.272 4.716-7.272a8.094 8.094 0 0 1 4.1.936l3.24-6.12a12.683 12.683 0 0 0-7.848-2.16c-5.8 0-12.42 3.132-12.42 15.768 0 7.164 3.888 10.3 9.468 10.3a15.787 15.787 0 0 0 8.784-2.272zM40.428-.72c-.036-.648-.072-1.3-.072-1.944a47.116 47.116 0 0 1 .468-6.084l1.152-9.72a31.438 31.438 0 0 0-9.648-1.4c-5.9 0-10.764 2.52-10.764 11.916 0 5.436 2.268 8.388 6.588 8.388a6.108 6.108 0 0 0 5.436-2.556L34.74.432zm-7.6-5.868a2.557 2.557 0 0 1-1.728.9c-1.3 0-1.728-.72-1.728-2.34 0-3.168.576-5.832 2.916-5.832a5.8 5.8 0 0 1 1.4.144zm12.892-.468L43.164-1.8A16.726 16.726 0 0 0 51.48.432c5.184 0 8.964-2.16 8.964-7.092 0-5.8-8.028-5.508-8.028-6.876 0-.36.5-.468 1.224-.468a11.121 11.121 0 0 1 4.932 1.08l2.736-4.86a13.028 13.028 0 0 0-7.7-2.088c-5.544 0-8.964 2.88-8.964 7.2 0 5.868 8.028 5.184 8.028 6.768 0 .324-.36.432-.936.432a12.681 12.681 0 0 1-6.016-1.584zM70.74 0a15.992 15.992 0 0 1-.14-2.268 35.489 35.489 0 0 1 .252-3.78l1.62-13.392-7.884 1.332-1.3 10.548a25.171 25.171 0 0 0-.216 3.312A19.745 19.745 0 0 0 63.5 0zm-2.2-20.412c2.916 0 4.86-.936 4.86-4.14 0-2.16-1.44-3.312-3.96-3.312-2.916 0-4.9.936-4.9 4.1.008 2.2 1.484 3.352 4.004 3.352zM92.736 0l1.332-10.764c.072-.72.144-1.44.144-2.124 0-4.428-2.088-6.984-6.192-6.984a6.045 6.045 0 0 0-5.4 2.556l-1.152-2.556-5.688 1.152c.036.648.072 1.3.072 1.944a54.569 54.569 0 0 1-.468 6.084L74.052 0h7.74l1.584-12.852a2.48 2.48 0 0 1 1.692-.9c.9 0 1.332.5 1.332 1.836 0 .324-.036.684-.072 1.116L85 0zM106.2-5.688c-1.26 0-1.692-.9-1.692-2.34 0-3.528.756-5.724 2.664-5.724 1.26 0 1.656.9 1.656 2.34 0 3.528-.72 5.724-2.628 5.724zm-.684 6.12c7.308 0 11.124-3.384 11.124-11.916 0-5.292-2.664-8.388-8.82-8.388-7.308 0-11.124 3.384-11.124 11.916.004 5.292 2.664 8.388 8.82 8.388z" transform="translate(162 45.043)" fill="url(#a)"/><g><g fill="#c2adff" fill-rule="evenodd"><path d="M35.463 4.604A1.633 1.633 0 0 1 36.55 5.77a1.957 1.957 0 0 1-.224 1.294 1.646 1.646 0 0 1-2.196.606 1.651 1.651 0 0 1-.806-1.76 1.718 1.718 0 0 1 1.424-1.383 1.852 1.852 0 0 1 .715.078zM43.883 10.952a1.68 1.68 0 0 1 1.095 1.322 1.737 1.737 0 0 1-.03.6 1.686 1.686 0 0 1-2.39 1.123 1.638 1.638 0 0 1-.843-1.285 1.73 1.73 0 0 1 1.758-1.854 1.648 1.648 0 0 1 .41.094zM25.07 3a1.547 1.547 0 0 1 1.026 1.422 1.836 1.836 0 0 1-.578 1.398 1.981 1.981 0 0 1-.267.17 2.2 2.2 0 0 1-.267.17 1.56 1.56 0 0 1-1.26-.1 1.672 1.672 0 0 1-.638-2.362 1.613 1.613 0 0 1 1.361-.811A1.745 1.745 0 0 1 25.07 3zM34.944 8.463c-.064.376-.192.709-.237 1.05a4.294 4.294 0 0 0 .244 2.137c.053.13.077.262.127.368a3.9 3.9 0 0 0 1.975 1.824 4.2 4.2 0 0 0 3.796-.285c.147-.07.267-.277.432-.251.103.015.235.186.327.288.207.229.357.393.581.636.094.1.245.244.231.337-.025.158-.294.327-.415.451-.703.72-1.451 1.34-2.164 2.025-1.262 1.218-2.562 2.414-3.877 3.643-.1.092-.361.34-.454.33-.121-.014-.237-.21-.321-.3a42.014 42.014 0 0 1-.602-.66c-.088-.098-.26-.246-.238-.355a2.133 2.133 0 0 1 .468-.487c.925-.899 1.888-1.748 2.835-2.666a1.413 1.413 0 0 0 .439-.47 1.45 1.45 0 0 0-.52-.147 6.312 6.312 0 0 1-1.682-.579 5.548 5.548 0 0 1-2.521-2.683 6.506 6.506 0 0 1-.28-.747 3.737 3.737 0 0 1-.104-.387c-.02-.08-.045-.32-.146-.361s-.467.212-.617.291a5.9 5.9 0 0 1-1.944.608 5.847 5.847 0 0 1-3.972-.85 6.302 6.302 0 0 1-.366-.263.815.815 0 0 0-.37-.218 1.577 1.577 0 0 0-.04.656c.02 1.085.022 2.182.075 3.274a8.736 8.736 0 0 1 .008 1.317 2.1 2.1 0 0 1-.838.109c-.122.003-.273.003-.438.008-.117.004-.349.037-.44-.022-.138-.09-.079-.66-.083-.828-.016-.854-.037-1.688-.055-2.546-.026-1.123-.104-2.288-.046-3.41.024-.438-.03-.885-.051-1.323-.01-.224.004-.449-.001-.668a2.3 2.3 0 0 1 .02-.682.847.847 0 0 1 .416-.063c.413-.008.848-.037 1.28-.024a1.422 1.422 0 0 1 .143.51 4.018 4.018 0 0 0 2.437 2.915 3.893 3.893 0 0 0 1.675.277 4 4 0 0 0 3.208-1.715 3.514 3.514 0 0 0 .242-.36c.16-.278.145-.425.447-.348a6.856 6.856 0 0 1 .709.3 5.031 5.031 0 0 1 .707.344z"/></g><g fill="#5f43b2"><path d="M24.346 15.525v-5.1l3.6 1.294 4.254-1.087 2.427 3.677 3.653 1.631-1.934 1.585L24.894 16.2l-.548-.675"/><path d="M34.555 4.604a1.633 1.633 0 0 1 1.087 1.165 1.957 1.957 0 0 1-.224 1.294 1.646 1.646 0 0 1-2.196.606 1.651 1.651 0 0 1-.806-1.76 1.718 1.718 0 0 1 1.424-1.383 1.852 1.852 0 0 1 .715.078zM42.975 10.952a1.68 1.68 0 0 1 1.095 1.322 1.737 1.737 0 0 1-.03.6 1.686 1.686 0 0 1-2.39 1.123 1.638 1.638 0 0 1-.843-1.285 1.73 1.73 0 0 1 1.758-1.854 1.648 1.648 0 0 1 .41.094zM24.162 3a1.547 1.547 0 0 1 1.026 1.422 1.836 1.836 0 0 1-.578 1.398 1.981 1.981 0 0 1-.267.17 2.2 2.2 0 0 1-.267.17 1.56 1.56 0 0 1-1.26-.1 1.672 1.672 0 0 1-.638-2.362 1.613 1.613 0 0 1 1.361-.811 1.745 1.745 0 0 1 .623.113zM34.036 8.463c-.064.376-.192.709-.237 1.05a4.294 4.294 0 0 0 .244 2.137c.053.13.077.262.127.368a3.9 3.9 0 0 0 1.975 1.824 4.2 4.2 0 0 0 3.796-.285c.147-.07.267-.277.432-.251.103.015.235.186.327.288.207.229.357.393.581.636.094.1.245.244.231.337-.025.158-.294.327-.415.451-.703.72-1.451 1.34-2.164 2.025-1.262 1.218-2.562 2.414-3.877 3.643-.1.092-.361.34-.454.33-.121-.014-.237-.21-.321-.3a42.014 42.014 0 0 1-.602-.66c-.088-.098-.26-.246-.238-.355a2.133 2.133 0 0 1 .468-.487c.925-.899 1.888-1.748 2.835-2.666a1.413 1.413 0 0 0 .439-.47 1.45 1.45 0 0 0-.52-.147 6.312 6.312 0 0 1-1.682-.579 5.548 5.548 0 0 1-2.521-2.683 6.506 6.506 0 0 1-.28-.747 3.737 3.737 0 0 1-.104-.387c-.02-.08-.045-.32-.146-.361s-.467.212-.617.291a5.9 5.9 0 0 1-1.944.608 5.847 5.847 0 0 1-3.972-.85 6.302 6.302 0 0 1-.366-.263.815.815 0 0 0-.37-.218 1.577 1.577 0 0 0-.04.656c.02 1.085.022 2.182.075 3.274a8.736 8.736 0 0 1 .008 1.317 2.1 2.1 0 0 1-.838.109c-.122.003-.273.003-.438.008-.117.004-.349.037-.44-.022-.138-.09-.079-.66-.083-.828-.016-.854-.037-1.688-.055-2.546-.026-1.123-.104-2.288-.046-3.41.024-.438-.03-.885-.051-1.323-.01-.224.004-.449-.001-.668a2.3 2.3 0 0 1 .02-.682.847.847 0 0 1 .416-.063c.413-.008.848-.037 1.28-.024a1.422 1.422 0 0 1 .143.51 4.018 4.018 0 0 0 2.437 2.915 3.893 3.893 0 0 0 1.675.277 4 4 0 0 0 3.208-1.715 3.514 3.514 0 0 0 .242-.36c.16-.278.145-.425.447-.348a6.856 6.856 0 0 1 .709.3 5.031 5.031 0 0 1 .707.344z" fill-rule="evenodd"/></g><path d="m.881 17.981 20.339-6.96 3.316 7.96 1.421-3.366 21.184 4.466-4.473 22.68-1.341-.565-8.339 1.046-2.747-4.84-3.761-.686-3.7.393-7.129 5.493.327 2.321-4.8 1.235z" fill="#5f43b2"/><path d="m17.515 46.937-.328-.656.211-.551.492.047.434.211.2.234.152.352.105.281v.293l-.105.176-.258.117h-.211l-.2-.117-.117-.082-.164-.094zM23.574 51.612l-.141-.387v-.34l.188-.211.3-.082.352.129.211.164.211.223.129.246.082.258v.3l-.082.246-.2.082h-.352l-.211-.152-.246-.176zM32.304 47.829l-.129-.281-.059-.258v-.3l.059-.246.129-.176.2-.117.3.047.164.176.129.2.082.27.047.258v.234l-.047.2-.082.176-.129.152-.164.094-.187-.094-.117-.07zM35.365 49.382l-.129-.281-.059-.258v-.3l.059-.246.129-.176.2-.117.3.047.164.176.129.2.082.27.047.258v.234l-.047.2-.082.176-.129.152-.164.094-.187-.094-.117-.07zM33.71 51.166l-.059-.27v-.27l.059-.293.129-.187.246-.094.293.094.176.188.129.234.047.234.059.27-.059.293-.047.258-.129.152-.176.094h-.293l-.141-.187-.105-.223zM32.234 53.323l-.094-.34v-.609l.164-.187.258-.117.246.117.2.188.129.223.094.3v.258l-.094.316-.129.246-.2.117h-.246l-.187-.187zM35.178 54.624v-.328l.056-.258.094-.223.176-.152h.234l.246.082.152.176a2.4 2.4 0 0 0 .094.234 1.843 1.843 0 0 1 .082.211v.691l-.082.141-.152.164s-.129-.047-.187 0-.258 0-.258 0l-.129-.164-.176-.141z" fill="#5f43b2"/><path d="m16.295 43.447 7.139-5.369h5.662l-7.045 5.369z" fill="#563da2"/><path d="m22.264 44.026 7.757-5.729 2.834 4.815-1.417.914-.168 6.1-3.993 2.819z" fill="#5f43b2"/><path d="m32.501 43.746 9.053-1.367 5.052 2.893-8.835 1.387z" fill="#563da2"/><path d="M37.632 57.413V46.994l9.529-1.229v10.263z" fill="#5f43b2"/><path d="m14.366 23.654 5.044 4.607-1.231 6.72-5.044-4.608zM4.518 21.47l1.561 1.383.407-2.046-1.561-1.383zm24.051 1.52s2.234-.778 2.495-2.058a1.1 1.1 0 0 0-1.873-.99 1.1 1.1 0 0 0-2.112.177c-.26 1.281 1.49 2.871 1.49 2.871zM48 46.373v9.069a1.537 1.537 0 0 1-1.332 1.5l-8.252 1.126a3.523 3.523 0 0 1-1.761-.243l-4.928-2.652a1.653 1.653 0 0 1-.814-1.563v-2.376l-2.7 2a3.526 3.526 0 0 1-1.66.634l-5.6.046a1.652 1.652 0 0 1-1.465-.979l-3.172-5.78-3.716 1.254a3.087 3.087 0 0 1-1.033.191 2.384 2.384 0 0 1-2.275-1.835L.157 19.645a2.5 2.5 0 0 1 1.607-3.295l.036-.013c18.666-6.247 18.855-6.247 18.981-6.247a2.61 2.61 0 0 1 2.476 1.778l1.326 3.938a2.371 2.371 0 0 1 1.833-.968c.4 0 13.766 2.738 19.493 3.9a2.45 2.45 0 0 1 2.043 3.05l-.006.03-4.28 20.982 3.357 1.826A2.253 2.253 0 0 1 48 46.373zM21.523 38.49c.673-.5 1.16-.849 1.25-.9a2.9 2.9 0 0 1 1.531-.262l4.984-.018a2.114 2.114 0 0 1 1.292.579c-1.406-1.59-3.453-4.393-2.961-6.805a3.107 3.107 0 0 1 5.942-.5 3.107 3.107 0 0 1 5.272 2.786c-.735 3.6-7.021 5.79-7.021 5.79s-.383-.348-.918-.927a1.375 1.375 0 0 1 .089.137l2.429 4.427c.729-.1 1.962-.281 3.235-.461a1.1 1.1 0 0 1-.18-.855c.261-1.28 2.494-2.057 2.494-2.057a5.086 5.086 0 0 1 1.5 2.39c.39-.05.65-.079.716-.079a2.1 2.1 0 0 1 .824.181l4.174-20.465a.8.8 0 0 0-.627-.948l-18.765-3.826a.806.806 0 0 0-.948.627zm-1.739 1.29L24 19.735l-2.456-7.291a.806.806 0 0 0-1.018-.505L2.375 18.05a.8.8 0 0 0-.505 1.018L11 46.19a.8.8 0 0 0 1.018.505l3.41-1.148-.384-.7c-.423-.815-.18-1.335.893-2.185.001.001 2.006-1.508 3.847-2.882zm-1.439 6.51c-.28-.342-.67-.487-.869-.324s-.134.573.147.915.67.487.869.324.134-.57-.147-.915zm4.043-3.421c.284-.21 6.264-4.579 6.264-4.579l-4.363.016a1.749 1.749 0 0 0-1.38.373l-6.317 4.715 4.742-.017a2.014 2.014 0 0 0 1.054-.506zm2.132 8.257c-.28-.342-.67-.487-.869-.324s-.134.573.146.915.67.487.869.324.134-.571-.146-.912zm7.864-8.165-2.259-4.117a.3.3 0 0 0-.425-.1c-.053.028-6.736 4.92-6.736 4.92a.568.568 0 0 0-.164.692l4.37 8.013a.285.285 0 0 0 .408.11c.009 0 1.665-1.23 3.332-2.465v-5.633c.019-.831.4-1.191 1.475-1.417zm.723 9.9c-.081-.435-.352-.749-.606-.7s-.393.438-.312.873.352.749.606.7.395-.437.313-.872zm0-5.627c-.081-.435-.352-.749-.606-.7s-.393.438-.312.873.352.749.606.7.395-.437.313-.871zm1.524 3.6c-.081-.435-.352-.749-.606-.7s-.393.438-.312.873.352.749.606.7.395-.438.313-.873zm1.569 3.612c-.081-.435-.352-.749-.606-.7s-.394.438-.312.873.352.749.606.7.389-.438.312-.873zm0-5.627c-.081-.435-.352-.749-.606-.7s-.394.438-.312.873.352.749.606.7.389-.438.312-.873zm2.1-2.638c.35-.048 7.694-1 7.694-1l-3.834-2.086a1.75 1.75 0 0 0-1.39-.336l-7.806 1.094 4.166 2.267a2.014 2.014 0 0 0 1.17.061zm8.718.195a.3.3 0 0 0-.322-.3c-.06 0-8.273 1.073-8.273 1.073a.567.567 0 0 0-.477.528l-.024 9.127a.285.285 0 0 0 .3.293c.019 0 8.309-1.13 8.309-1.13a.567.567 0 0 0 .482-.525v-9.07zm-1.848 1.38a.862.862 0 1 0 .69.9.8.8 0 0 0-.691-.9zm-2.514 3.115a.862.862 0 1 0 .689.9.8.8 0 0 0-.69-.9zm-2.494 3.294a.862.862 0 1 0 .69.9.8.8 0 0 0-.691-.9zM36.4 44.043c0-.134-.35-.243-.781-.243s-.782.108-.782.243.35.243.782.243.781-.108.781-.243zm1.629-.094c.431 0 .781-.109.781-.243s-.35-.243-.781-.243-.781.109-.781.243.352.244.78.244zm2.446-.281c.431 0 .781-.109.781-.243s-.35-.243-.781-.243-.781.109-.781.243.349.244.781.244zm-2.665 1.179c0-.134-.35-.243-.781-.243s-.781.109-.781.243.35.243.781.243.781-.109.781-.243zm.884-.336c0 .134.35.243.781.243s.781-.109.781-.243-.35-.243-.781-.243-.782.108-.782.242zm2.406-.321c0 .134.35.243.781.243s.782-.109.782-.243-.35-.243-.782-.243-.781.111-.781.243zm-1.892 1.421c0-.134-.35-.243-.781-.243s-.781.109-.781.243.35.243.781.243.785-.106.785-.24zm1.665-.543c-.431 0-.781.109-.781.243s.35.243.781.243.782-.109.782-.243-.346-.24-.778-.24zm1.629-.075c0 .134.35.243.781.243s.781-.109.781-.243-.35-.243-.781-.243-.777.112-.777.246zm-17.4-1.058a.863.863 0 1 0 1.036.453.8.8 0 0 0-1.032-.45zm4.063-2.991a.862.862 0 1 0 1.035.453.8.8 0 0 0-1.032-.45zm-1.306 8.028a.862.862 0 1 0 1.035.453.8.8 0 0 0-1.032-.45zM22.5 40.627c-.378.208-.633.471-.568.589s.423.045.8-.163.633-.471.568-.589-.423-.044-.8.163z" fill="#c2adff"/></g></svg>