<svg xmlns="http://www.w3.org/2000/svg" xmlns:xlink="http://www.w3.org/1999/xlink" width="281.64" height="58.087" viewBox="0 0 281.64 58.087"><defs><linearGradient id="a" x1="0.256" x2="1" y2="1" gradientUnits="objectBoundingBox"><stop offset="0" stop-color="#5f43b2"/><stop offset="1" stop-color="#b5a9dc"/></linearGradient></defs><g transform="translate(-28 -7.957)"><path d="M19.712,2.4,15.52-.1C19.9-1.344,21.792-4.96,21.792-11.2c0-7.9-3.008-11.584-10.336-11.584-7.3,0-10.208,3.68-10.208,11.584C1.248-4.128,3.584-.416,9.312.256A25.269,25.269,0,0,0,13.12,5.184ZM11.584-5.92c-2.56,0-3.04-2.016-3.04-5.28s.48-5.28,3.04-5.28c2.592,0,2.912,2.016,2.912,5.28S14.176-5.92,11.584-5.92ZM41.664-.96a41.47,41.47,0,0,1-.512-6.72v-9.6l-6.88.8V-5.856a1.951,1.951,0,0,1-1.408.8c-.832,0-1.44-.416-1.44-2.624v-9.6l-6.88.8v9.632c0,3.072.1,7.232,6.3,7.232a4.785,4.785,0,0,0,4.576-2.272L36.544.48ZM59.9-1.792,57.92-6.432a10.488,10.488,0,0,1-4.7,1.216,2.183,2.183,0,0,1-2.24-1.408l9.152-1.344c0-8.448-3.52-9.7-7.9-9.7-6.016,0-8.32,2.688-8.32,9.184,0,6.528,3.424,8.864,8.928,8.864A12.438,12.438,0,0,0,59.9-1.792ZM50.688-9.536a7.807,7.807,0,0,1-.032-.832c0-1.6.48-2.176,1.536-2.176.9,0,1.312.608,1.312,1.984Zm12.96,3.36L61.92-1.5A15.043,15.043,0,0,0,69.568.384c4.16,0,7.232-1.76,7.232-5.536,0-5.92-7.936-5.6-7.936-6.88,0-.288.384-.416.928-.416a10.368,10.368,0,0,1,4.768,1.024l1.888-4.32a12.726,12.726,0,0,0-7.2-1.92c-4.192,0-7.264,2.4-7.264,5.632,0,6.048,7.968,5.312,7.968,6.784,0,.288-.288.384-.8.384A13.144,13.144,0,0,1,63.648-6.176Zm25.7,4.256a7.23,7.23,0,0,1-1.888-5.408v-5.12h2.816l.544-4.832h-3.36v-5.376l-6.88.8v4.576H78.432v4.832h2.144V-6.72c0,3.2.992,6.112,4.32,7.648Z" transform="translate(92 51)" fill="#c2adff"/><path d="M19.44-1.836,17.5-7.956A10.689,10.689,0,0,1,12.708-6.84C10.44-6.84,9.4-7.884,9.4-11.016c0-5.4,1.836-7.272,4.716-7.272a8.094,8.094,0,0,1,4.1.936l3.24-6.12a12.683,12.683,0,0,0-7.848-2.16c-5.8,0-12.42,3.132-12.42,15.768,0,7.164,3.888,10.3,9.468,10.3A15.787,15.787,0,0,0,19.44-1.836ZM40.428-.72c-.036-.648-.072-1.3-.072-1.944a47.116,47.116,0,0,1,.468-6.084l1.152-9.72a31.438,31.438,0,0,0-9.648-1.4c-5.9,0-10.764,2.52-10.764,11.916,0,5.436,2.268,8.388,6.588,8.388a6.108,6.108,0,0,0,5.436-2.556L34.74.432Zm-7.6-5.868a2.557,2.557,0,0,1-1.728.9c-1.3,0-1.728-.72-1.728-2.34,0-3.168.576-5.832,2.916-5.832a5.8,5.8,0,0,1,1.4.144ZM45.72-7.056,43.164-1.8A16.726,16.726,0,0,0,51.48.432c5.184,0,8.964-2.16,8.964-7.092,0-5.8-8.028-5.508-8.028-6.876,0-.36.5-.468,1.224-.468a11.121,11.121,0,0,1,4.932,1.08l2.736-4.86a13.028,13.028,0,0,0-7.7-2.088c-5.544,0-8.964,2.88-8.964,7.2,0,5.868,8.028,5.184,8.028,6.768,0,.324-.36.432-.936.432A12.681,12.681,0,0,1,45.72-7.056ZM70.74,0A15.992,15.992,0,0,1,70.6-2.268a35.489,35.489,0,0,1,.252-3.78l1.62-13.392-7.884,1.332L63.288-7.56a25.171,25.171,0,0,0-.216,3.312A19.745,19.745,0,0,0,63.5,0Zm-2.2-20.412c2.916,0,4.86-.936,4.86-4.14,0-2.16-1.44-3.312-3.96-3.312-2.916,0-4.9.936-4.9,4.1C64.548-21.564,66.024-20.412,68.544-20.412ZM92.736,0l1.332-10.764c.072-.72.144-1.44.144-2.124,0-4.428-2.088-6.984-6.192-6.984a6.045,6.045,0,0,0-5.4,2.556l-1.152-2.556L75.78-18.72c.036.648.072,1.3.072,1.944a54.569,54.569,0,0,1-.468,6.084L74.052,0h7.74l1.584-12.852a2.48,2.48,0,0,1,1.692-.9c.9,0,1.332.5,1.332,1.836,0,.324-.036.684-.072,1.116L85,0ZM106.2-5.688c-1.26,0-1.692-.9-1.692-2.34,0-3.528.756-5.724,2.664-5.724,1.26,0,1.656.9,1.656,2.34C108.828-7.884,108.108-5.688,106.2-5.688Zm-.684,6.12c7.308,0,11.124-3.384,11.124-11.916,0-5.292-2.664-8.388-8.82-8.388-7.308,0-11.124,3.384-11.124,11.916C96.7-2.664,99.36.432,105.516.432Z" transform="translate(193 54.232)" fill="#43307e"/><path d="M19.44-1.836,17.5-7.956A10.689,10.689,0,0,1,12.708-6.84C10.44-6.84,9.4-7.884,9.4-11.016c0-5.4,1.836-7.272,4.716-7.272a8.094,8.094,0,0,1,4.1.936l3.24-6.12a12.683,12.683,0,0,0-7.848-2.16c-5.8,0-12.42,3.132-12.42,15.768,0,7.164,3.888,10.3,9.468,10.3A15.787,15.787,0,0,0,19.44-1.836ZM40.428-.72c-.036-.648-.072-1.3-.072-1.944a47.116,47.116,0,0,1,.468-6.084l1.152-9.72a31.438,31.438,0,0,0-9.648-1.4c-5.9,0-10.764,2.52-10.764,11.916,0,5.436,2.268,8.388,6.588,8.388a6.108,6.108,0,0,0,5.436-2.556L34.74.432Zm-7.6-5.868a2.557,2.557,0,0,1-1.728.9c-1.3,0-1.728-.72-1.728-2.34,0-3.168.576-5.832,2.916-5.832a5.8,5.8,0,0,1,1.4.144ZM45.72-7.056,43.164-1.8A16.726,16.726,0,0,0,51.48.432c5.184,0,8.964-2.16,8.964-7.092,0-5.8-8.028-5.508-8.028-6.876,0-.36.5-.468,1.224-.468a11.121,11.121,0,0,1,4.932,1.08l2.736-4.86a13.028,13.028,0,0,0-7.7-2.088c-5.544,0-8.964,2.88-8.964,7.2,0,5.868,8.028,5.184,8.028,6.768,0,.324-.36.432-.936.432A12.681,12.681,0,0,1,45.72-7.056ZM70.74,0A15.992,15.992,0,0,1,70.6-2.268a35.489,35.489,0,0,1,.252-3.78l1.62-13.392-7.884,1.332L63.288-7.56a25.171,25.171,0,0,0-.216,3.312A19.745,19.745,0,0,0,63.5,0Zm-2.2-20.412c2.916,0,4.86-.936,4.86-4.14,0-2.16-1.44-3.312-3.96-3.312-2.916,0-4.9.936-4.9,4.1C64.548-21.564,66.024-20.412,68.544-20.412ZM92.736,0l1.332-10.764c.072-.72.144-1.44.144-2.124,0-4.428-2.088-6.984-6.192-6.984a6.045,6.045,0,0,0-5.4,2.556l-1.152-2.556L75.78-18.72c.036.648.072,1.3.072,1.944a54.569,54.569,0,0,1-.468,6.084L74.052,0h7.74l1.584-12.852a2.48,2.48,0,0,1,1.692-.9c.9,0,1.332.5,1.332,1.836,0,.324-.036.684-.072,1.116L85,0ZM106.2-5.688c-1.26,0-1.692-.9-1.692-2.34,0-3.528.756-5.724,2.664-5.724,1.26,0,1.656.9,1.656,2.34C108.828-7.884,108.108-5.688,106.2-5.688Zm-.684,6.12c7.308,0,11.124-3.384,11.124-11.916,0-5.292-2.664-8.388-8.82-8.388-7.308,0-11.124,3.384-11.124,11.916C96.7-2.664,99.36.432,105.516.432Z" transform="translate(190 53)" fill="url(#a)"/></g><g transform="translate(-2279.896 -8930.447)"><g transform="translate(2304.532 8930.447) rotate(23)"><path d="M1.5.008A1.633,1.633,0,0,1,2.956.655a1.957,1.957,0,0,1,.3,1.279A1.646,1.646,0,0,1,1.471,3.35,1.651,1.651,0,0,1,.041,2.044,1.718,1.718,0,0,1,.811.215,1.852,1.852,0,0,1,1.5.008Z" transform="translate(10.265 0)" fill="#c2adff" fill-rule="evenodd"/><path d="M1.5,0A1.68,1.68,0,0,1,3.025.789a1.737,1.737,0,0,1,.206.564,1.686,1.686,0,0,1-1.76,1.967A1.638,1.638,0,0,1,.192,2.467,1.73,1.73,0,0,1,1.086.074,1.648,1.648,0,0,1,1.5,0Z" transform="translate(20.496 2.561)" fill="#c2adff" fill-rule="evenodd"/><path d="M1.572,0a1.547,1.547,0,0,1,1.5.908,1.836,1.836,0,0,1,.014,1.513,1.981,1.981,0,0,1-.179.261,2.2,2.2,0,0,1-.179.261,1.56,1.56,0,0,1-1.2.4A1.672,1.672,0,0,1,.018,1.418,1.613,1.613,0,0,1,.954.139,1.745,1.745,0,0,1,1.572,0Z" transform="translate(0 2.592)" fill="#c2adff" fill-rule="evenodd"/><path d="M11.085.054c.088.371.1.727.193,1.059a4.294,4.294,0,0,0,1.059,1.871c.1.1.173.212.261.289a3.9,3.9,0,0,0,2.53.908,4.2,4.2,0,0,0,3.383-1.746c.108-.121.138-.359.3-.4.1-.026.289.08.413.138.28.13.482.222.784.358.126.056.321.129.344.22.039.155-.143.416-.206.578-.366.937-.812,1.8-1.2,2.709-.686,1.614-1.416,3.223-2.146,4.868-.055.124-.2.454-.289.481-.117.035-.3-.1-.413-.151-.289-.129-.5-.225-.811-.371-.12-.056-.336-.125-.358-.234A2.133,2.133,0,0,1,15.169,10c.5-1.189,1.055-2.347,1.568-3.562a1.413,1.413,0,0,0,.22-.605,1.45,1.45,0,0,0-.536.069,6.312,6.312,0,0,1-1.774.124,5.548,5.548,0,0,1-3.369-1.485,6.506,6.506,0,0,1-.55-.578,3.737,3.737,0,0,1-.247-.316c-.049-.066-.166-.277-.275-.275s-.347.378-.454.509A5.9,5.9,0,0,1,8.2,5.2a5.847,5.847,0,0,1-3.988.77c-.149-.029-.3-.062-.44-.1a.815.815,0,0,0-.426-.055,1.577,1.577,0,0,0,.22.619c.442.991.872,2,1.348,2.984a8.736,8.736,0,0,1,.522,1.21,2.1,2.1,0,0,1-.729.427c-.111.051-.25.11-.4.179-.106.049-.307.17-.413.151-.163-.028-.331-.576-.4-.729C3.145,9.876,2.8,9.116,2.448,8.334c-.463-1.024-.99-2.066-1.375-3.122C.924,4.8.7,4.41.509,4.015.412,3.813.338,3.6.247,3.4A2.3,2.3,0,0,1,0,2.764a.847.847,0,0,1,.358-.22c.377-.169.766-.365,1.169-.522a1.422,1.422,0,0,1,.33.413A4.018,4.018,0,0,0,5.24,4.167a3.893,3.893,0,0,0,1.65-.4A4,4,0,0,0,9.173.935,3.514,3.514,0,0,0,9.255.509C9.293.191,9.222.061,9.53.014a6.856,6.856,0,0,1,.77,0A5.031,5.031,0,0,1,11.085.054Z" transform="translate(1.71 3.709)" fill="#c2adff" fill-rule="evenodd"/></g><g transform="translate(2303.624 8930.447) rotate(23)"><path d="M0,5.1V0L3.6,1.294,7.854.207l2.427,3.677,3.653,1.631L12,7.1.548,5.775,0,5.1" transform="translate(4.642 9.355) rotate(-23)" fill="#5f43b2"/><path d="M1.5.008A1.633,1.633,0,0,1,2.956.655a1.957,1.957,0,0,1,.3,1.279A1.646,1.646,0,0,1,1.471,3.35,1.651,1.651,0,0,1,.041,2.044,1.718,1.718,0,0,1,.811.215,1.852,1.852,0,0,1,1.5.008Z" transform="translate(10.265 0)" fill="#5f43b2" fill-rule="evenodd"/><path d="M1.5,0A1.68,1.68,0,0,1,3.025.789a1.737,1.737,0,0,1,.206.564,1.686,1.686,0,0,1-1.76,1.967A1.638,1.638,0,0,1,.192,2.467,1.73,1.73,0,0,1,1.086.074,1.648,1.648,0,0,1,1.5,0Z" transform="translate(20.496 2.561)" fill="#5f43b2" fill-rule="evenodd"/><path d="M1.572,0a1.547,1.547,0,0,1,1.5.908,1.836,1.836,0,0,1,.014,1.513,1.981,1.981,0,0,1-.179.261,2.2,2.2,0,0,1-.179.261,1.56,1.56,0,0,1-1.2.4A1.672,1.672,0,0,1,.018,1.418,1.613,1.613,0,0,1,.954.139,1.745,1.745,0,0,1,1.572,0Z" transform="translate(0 2.592)" fill="#5f43b2" fill-rule="evenodd"/><path d="M11.085.054c.088.371.1.727.193,1.059a4.294,4.294,0,0,0,1.059,1.871c.1.1.173.212.261.289a3.9,3.9,0,0,0,2.53.908,4.2,4.2,0,0,0,3.383-1.746c.108-.121.138-.359.3-.4.1-.026.289.08.413.138.28.13.482.222.784.358.126.056.321.129.344.22.039.155-.143.416-.206.578-.366.937-.812,1.8-1.2,2.709-.686,1.614-1.416,3.223-2.146,4.868-.055.124-.2.454-.289.481-.117.035-.3-.1-.413-.151-.289-.129-.5-.225-.811-.371-.12-.056-.336-.125-.358-.234A2.133,2.133,0,0,1,15.169,10c.5-1.189,1.055-2.347,1.568-3.562a1.413,1.413,0,0,0,.22-.605,1.45,1.45,0,0,0-.536.069,6.312,6.312,0,0,1-1.774.124,5.548,5.548,0,0,1-3.369-1.485,6.506,6.506,0,0,1-.55-.578,3.737,3.737,0,0,1-.247-.316c-.049-.066-.166-.277-.275-.275s-.347.378-.454.509A5.9,5.9,0,0,1,8.2,5.2a5.847,5.847,0,0,1-3.988.77c-.149-.029-.3-.062-.44-.1a.815.815,0,0,0-.426-.055,1.577,1.577,0,0,0,.22.619c.442.991.872,2,1.348,2.984a8.736,8.736,0,0,1,.522,1.21,2.1,2.1,0,0,1-.729.427c-.111.051-.25.11-.4.179-.106.049-.307.17-.413.151-.163-.028-.331-.576-.4-.729C3.145,9.876,2.8,9.116,2.448,8.334c-.463-1.024-.99-2.066-1.375-3.122C.924,4.8.7,4.41.509,4.015.412,3.813.338,3.6.247,3.4A2.3,2.3,0,0,1,0,2.764a.847.847,0,0,1,.358-.22c.377-.169.766-.365,1.169-.522a1.422,1.422,0,0,1,.33.413A4.018,4.018,0,0,0,5.24,4.167a3.893,3.893,0,0,0,1.65-.4A4,4,0,0,0,9.173.935,3.514,3.514,0,0,0,9.255.509C9.293.191,9.222.061,9.53.014a6.856,6.856,0,0,1,.77,0A5.031,5.031,0,0,1,11.085.054Z" transform="translate(1.71 3.709)" fill="#5f43b2" fill-rule="evenodd"/></g><path d="M7.277,15.2,27.616,8.24,30.932,16.2l1.421-3.366L53.537,17.3,49.064,39.98l-1.341-.565-8.339,1.046-2.747-4.84-3.761-.686-3.7.393-7.129,5.493.327,2.321-4.8,1.235Z" transform="translate(2273.5 8933.228)" fill="#5f43b2"/><path d="M23.245,48.732l-.328-.656.211-.551.492.047.434.211.2.234.152.352.105.281v.293l-.105.176-.258.117h-.211l-.2-.117-.117-.082-.164-.094Z" transform="translate(2274.166 8928.652)" fill="#5f43b2"/><path d="M2311.281,8998.926l-.141-.387v-.34l.188-.211.3-.082.352.129.211.164.211.223.129.246.082.258v.3l-.082.246-.2.082h-.352l-.211-.152-.246-.176Z" transform="translate(-7.811 -16.867)" fill="#5f43b2"/><path d="M2341.906,8993.758l-.129-.281-.059-.258v-.3l.059-.246.129-.176.2-.117.3.047.164.176.129.2.082.27.047.258v.234l-.047.2-.082.176-.129.152-.164.094-.187-.094-.117-.07Z" transform="translate(-29.706 -15.482)" fill="#5f43b2"/><path d="M2341.906,8993.758l-.129-.281-.059-.258v-.3l.059-.246.129-.176.2-.117.3.047.164.176.129.2.082.27.047.258v.234l-.047.2-.082.176-.129.152-.164.094-.187-.094-.117-.07Z" transform="translate(-26.645 -13.929)" fill="#5f43b2"/><path d="M2324.824,8998.3l-.059-.27v-.27l.059-.293.129-.187.246-.094.293.094.176.188.129.234.047.234.059.27-.059.293-.047.258-.129.152-.176.094h-.293l-.141-.187-.105-.223Z" transform="translate(-11.218 -16.687)" fill="#5f43b2"/><path d="M2322.844,9001.129l-.094-.34v-.609l.164-.187.258-.117.246.117.2.188.129.223.094.3v.258l-.094.316-.129.246-.2.117h-.246l-.187-.187Z" transform="translate(-10.714 -17.359)" fill="#5f43b2"/><path d="M2326.8,9002.961v-.328l.056-.258.094-.223.176-.152h.234l.246.082.152.176a2.4,2.4,0,0,0,.094.234,1.843,1.843,0,0,1,.082.211v.691l-.082.141-.152.164s-.129-.047-.187,0-.258,0-.258,0l-.129-.164-.176-.141Z" transform="translate(-11.726 -17.89)" fill="#5f43b2"/><path d="M2301.625,8986.588l7.139-5.369h5.662l-7.045,5.369Z" transform="translate(-5.434 -12.694)" fill="#563da2"/><path d="M2309.584,8987.246l7.757-5.729,2.834,4.815-1.417.914-.168,6.1-3.993,2.819Z" transform="translate(-7.424 -12.773)" fill="#5f43b2"/><path d="M2323.237,8988.321l9.053-1.367,5.052,2.893-8.835,1.387Z" transform="translate(-10.84 -14.128)" fill="#563da2"/><path d="M2330.076,9003.119V8992.7l9.529-1.229v10.263Z" transform="translate(-12.548 -15.259)" fill="#5f43b2"/><path d="M14.366,13.564l5.044,4.607-1.231,6.72-5.044-4.608ZM4.518,11.38l1.561,1.383.407-2.046L4.925,9.334ZM28.569,12.9s2.234-.778,2.495-2.058a1.1,1.1,0,0,0-1.873-.99,1.1,1.1,0,0,0-2.112.177C26.819,11.31,28.569,12.9,28.569,12.9ZM48,36.283v9.069a1.537,1.537,0,0,1-1.332,1.5l-8.252,1.126a3.523,3.523,0,0,1-1.761-.243l-4.928-2.652a1.653,1.653,0,0,1-.814-1.563V41.144l-2.7,2a3.526,3.526,0,0,1-1.66.634l-5.6.046a1.652,1.652,0,0,1-1.465-.979l-3.172-5.78L12.6,38.319a3.087,3.087,0,0,1-1.033.191,2.384,2.384,0,0,1-2.275-1.835L.157,9.555A2.5,2.5,0,0,1,1.764,6.26L1.8,6.247C20.466,0,20.655,0,20.781,0a2.61,2.61,0,0,1,2.476,1.778l1.326,3.938a2.371,2.371,0,0,1,1.833-.968c.4,0,13.766,2.738,19.493,3.9a2.45,2.45,0,0,1,2.043,3.05l-.006.03L43.666,32.71l3.357,1.826A2.253,2.253,0,0,1,48,36.283ZM21.523,28.4c.673-.5,1.16-.849,1.25-.9a2.9,2.9,0,0,1,1.531-.262l4.984-.018a2.114,2.114,0,0,1,1.292.579c-1.406-1.59-3.453-4.393-2.961-6.805a3.107,3.107,0,0,1,5.942-.5,3.107,3.107,0,0,1,5.272,2.786c-.735,3.6-7.021,5.79-7.021,5.79s-.383-.348-.918-.927a1.375,1.375,0,0,1,.089.137l2.429,4.427c.729-.1,1.962-.281,3.235-.461a1.1,1.1,0,0,1-.18-.855c.261-1.28,2.494-2.057,2.494-2.057a5.086,5.086,0,0,1,1.5,2.39c.39-.05.65-.079.716-.079a2.1,2.1,0,0,1,.824.181l4.174-20.465a.8.8,0,0,0-.627-.948L26.783,6.587a.806.806,0,0,0-.948.627ZM19.784,29.69,24,9.645,21.544,2.354a.806.806,0,0,0-1.018-.505L2.375,7.96a.8.8,0,0,0-.505,1.018L11,36.1a.8.8,0,0,0,1.018.505l3.41-1.148-.384-.7c-.423-.815-.18-1.335.893-2.185C15.938,32.573,17.943,31.064,19.784,29.69ZM18.345,36.2c-.28-.342-.67-.487-.869-.324s-.134.573.147.915.67.487.869.324S18.626,36.545,18.345,36.2Zm4.043-3.421c.284-.21,6.264-4.579,6.264-4.579l-4.363.016a1.749,1.749,0,0,0-1.38.373l-6.317,4.715,4.742-.017A2.014,2.014,0,0,0,22.388,32.781Zm2.132,8.257c-.28-.342-.67-.487-.869-.324s-.134.573.146.915.67.487.869.324S24.8,41.38,24.52,41.039Zm7.864-8.165-2.259-4.117a.3.3,0,0,0-.425-.1c-.053.028-6.736,4.92-6.736,4.92a.568.568,0,0,0-.164.692l4.37,8.013a.285.285,0,0,0,.408.11c.009,0,1.665-1.23,3.332-2.465V34.291C30.929,33.46,31.31,33.1,32.385,32.874Zm.723,9.9c-.081-.435-.352-.749-.606-.7s-.393.438-.312.873.352.749.606.7S33.19,43.207,33.108,42.772Zm0-5.627c-.081-.435-.352-.749-.606-.7s-.393.438-.312.873.352.749.606.7S33.19,37.58,33.108,37.146Zm1.524,3.6c-.081-.435-.352-.749-.606-.7s-.393.438-.312.873.352.749.606.7S34.714,41.179,34.632,40.744ZM36.2,44.356c-.081-.435-.352-.749-.606-.7s-.394.438-.312.873.352.749.606.7S36.277,44.791,36.2,44.356Zm0-5.627c-.081-.435-.352-.749-.606-.7s-.394.438-.312.873.352.749.606.7S36.277,39.164,36.2,38.729Zm2.1-2.638c.35-.048,7.694-1,7.694-1L42.16,33.005a1.75,1.75,0,0,0-1.39-.336l-7.806,1.094L37.13,36.03A2.014,2.014,0,0,0,38.3,36.091Zm8.718.195a.3.3,0,0,0-.322-.3c-.06,0-8.273,1.073-8.273,1.073a.567.567,0,0,0-.477.528l-.024,9.127a.285.285,0,0,0,.3.293c.019,0,8.309-1.13,8.309-1.13a.567.567,0,0,0,.482-.525v-9.07Zm-1.848,1.38a.862.862,0,1,0,.69.9A.8.8,0,0,0,45.169,37.666Zm-2.514,3.115a.862.862,0,1,0,.689.9A.8.8,0,0,0,42.655,40.781Zm-2.494,3.294a.862.862,0,1,0,.69.9A.8.8,0,0,0,40.161,44.075ZM36.4,33.953c0-.134-.35-.243-.781-.243s-.782.108-.782.243.35.243.782.243S36.4,34.088,36.4,33.953Zm1.629-.094c.431,0,.781-.109.781-.243s-.35-.243-.781-.243-.781.109-.781.243S37.6,33.86,38.028,33.86Zm2.446-.281c.431,0,.781-.109.781-.243s-.35-.243-.781-.243-.781.109-.781.243S40.043,33.579,40.475,33.579ZM37.81,34.757c0-.134-.35-.243-.781-.243s-.781.109-.781.243.35.243.781.243S37.81,34.891,37.81,34.757Zm.884-.336c0,.134.35.243.781.243s.781-.109.781-.243-.35-.243-.781-.243S38.693,34.286,38.693,34.42ZM41.1,34.1c0,.134.35.243.781.243s.782-.109.782-.243-.35-.243-.782-.243S41.1,33.968,41.1,34.1Zm-1.892,1.421c0-.134-.35-.243-.781-.243s-.781.109-.781.243.35.243.781.243S39.212,35.658,39.212,35.524Zm1.665-.543c-.431,0-.781.109-.781.243s.35.243.781.243.782-.109.782-.243S41.309,34.981,40.877,34.981Zm1.629-.075c0,.134.35.243.781.243s.781-.109.781-.243-.35-.243-.781-.243S42.506,34.772,42.506,34.906Zm-17.4-1.058a.863.863,0,1,0,1.036.453A.8.8,0,0,0,25.106,33.848Zm4.063-2.991a.862.862,0,1,0,1.035.453A.8.8,0,0,0,29.168,30.857Zm-1.306,8.028a.862.862,0,1,0,1.035.453A.8.8,0,0,0,27.862,38.885ZM22.5,30.537c-.378.208-.633.471-.568.589s.423.045.8-.163.633-.471.568-.589S22.877,30.33,22.5,30.537Z" transform="translate(2279.896 8940.537)" fill="#c2adff"/></g></svg>