<svg xmlns="http://www.w3.org/2000/svg" width="100.011" height="104.611"><g data-name="Bingo Prev"><path data-name="Path 242" d="M64.308 23.694c1.326.768 3.16.434 4.591.218.305-.047 4.317-.877 4.319-.867.04.339-2.23 1.426-2.5 1.62a6.42 6.42 0 0 0-2.788 3.6c-.783 3.7 4.185 8.332 7.459 9.146a5.99 5.99 0 0 0 7.03-4.011 12.6 12.6 0 0 0 .529-6.6c-.1-.5-1.29-3.011-1.083-3.4.17-.32 2.753 1.786 2.919 1.938a11.146 11.146 0 0 1 3.06 4.568c.3.892.123 3.4 1.417 3.49 2.14.151 2.512-1.134 1.858-2.816a19.731 19.731 0 0 0-3.133-5.445c-.313-.378-3.8-3.577-3.8-3.584.171-.229 2.314.471 2.557.517a25.355 25.355 0 0 0 4.8.465c3.014-.014 7.3-.713 7.708-4.4.376-3.361-1.034-8.116-3.65-10.313-1.881-1.58-3.55-1.18-5.3.346a23.74 23.74 0 0 0-2.439 2.446c-.208.242-1.5 2.267-1.8 2.172a18.292 18.292 0 0 1 1.361-2.77 9.725 9.725 0 0 0 1.369-4.651C88.606 2.108 85.367.754 82.522.54c-3.371-.253-8.667.68-10.015 4.369-.644 1.761.484 3.8 1.153 5.39.12.285 1.757 4.026 1.716 4.029-.666.061-1.886-2.269-2.205-2.677a11.336 11.336 0 0 0-3.911-3.516c-3.43-1.567-6.467 2.261-7.395 5.116-1.065 3.284-.977 8.462 2.443 10.443z" fill="#251a47" stroke="#a23da2" opacity=".8"/><path data-name="Path 243" d="M52.558 68.196c1.802 4.176 7.696 5.09 11.207 7.245.41.252 1.752 1.016 1.391 1.685a4.742 4.742 0 0 1-1.932 1.294 161.75 161.75 0 0 1-4.4 2.326c-1.756.907-4.536 2.395-6.31 3.27l1.826 3.162c1.645-1.097 4.321-2.76 5.988-3.83 1.395-.896 2.79-1.794 4.214-2.646a4.741 4.741 0 0 1 2.086-1.026c.761.022.75 1.566.763 2.046.11 4.12-2.044 9.68.671 13.328 1.487 1.994 4.168 2.183 6.428 1.745 4.438-.86 11.305-4.768 11.403-9.98.154-7.932-12.2-3.408-15.52-8.16-.63-.9-.182-.976.878-1.227a15.892 15.892 0 0 1 5.566-.158c3.917.502 9.036 1.227 12.369-1.483 3.052-2.484 1.7-7.055-.443-10.583-1.984-3.622-5.268-7.077-8.945-5.673-4.013 1.53-5.945 6.325-7.469 9.97a15.923 15.923 0 0 1-2.92 4.741c-.747.793-1.036 1.142-1.502.147-2.455-5.252 7.636-13.686.693-17.521-4.562-2.52-11.38 1.472-14.344 4.885-1.502 1.745-2.682 4.158-1.698 6.443z" fill="#251a47" stroke="#a23da2" opacity=".8"/><g data-name="noun-clover-404165" opacity=".8"><path data-name="Path 243" d="M47.8 41.447c2.032-1.607 1.666-4.981 2.333-7.231.079-.263.302-1.113.722-1.014a2.7 2.7 0 0 1 .997.872 92.386 92.386 0 0 1 1.927 2.078c.759.832 1.986 2.142 2.729 2.987l1.47-1.47c-.845-.743-2.155-1.97-2.987-2.73a89.193 89.193 0 0 1-2.077-1.928 2.7 2.7 0 0 1-.872-.996c-.1-.421.751-.643 1.014-.722 2.25-.667 5.625-.302 7.231-2.333a3.575 3.575 0 0 0 .014-3.792c-1.127-2.313-4.289-5.515-7.17-4.8-4.384 1.086-.076 7.212-2.2 9.738-.402.479-.51.244-.804-.302a9.049 9.049 0 0 1-.909-3.04c-.3-2.229-.656-5.15-2.638-6.584-1.816-1.312-4.13.104-5.755 1.803-1.7 1.625-3.116 3.94-1.799 5.758 1.433 1.982 4.355 2.337 6.584 2.639a9.067 9.067 0 0 1 3.04.908c.546.294.78.402.302.804-2.526 2.124-8.652-2.183-9.739 2.2-.714 2.881 2.487 6.043 4.801 7.17a3.575 3.575 0 0 0 3.787-.015z" fill="#251a47" stroke="#a23da2"/></g><path data-name="Path 229" d="M63.996 29.965a23.458 23.458 0 0 0-17.815 8.222 22.9 22.9 0 0 0-17.813-8.222 23.31 23.31 0 0 0-6.338 45.737 24.467 24.467 0 0 1-2.912-11.648 25.039 25.039 0 0 1 25.01-25.01h1.37a3.772 3.772 0 0 1 1.37.171 25.039 25.039 0 0 1 22.267 24.839 24.5 24.5 0 0 1-3.426 12.5 23.33 23.33 0 0 0-1.713-46.589z" fill="#342562" stroke="#563da2"/><path data-name="Path 230" d="M44.128 40.585a23.3 23.3 0 1 0 23.3 23.3 23.321 23.321 0 0 0-23.3-23.3zm-5.31 28.95a9.935 9.935 0 1 1 9.935-9.935 9.943 9.943 0 0 1-9.938 9.935z" fill="#251a47" stroke="#563da2"/><path data-name="Path 231" d="M41.185 59.085a2.7 2.7 0 0 0 1.2-2.227 3.015 3.015 0 0 0-1.028-2.227 4.814 4.814 0 0 0-5.482 0 2.762 2.762 0 0 0-1.028 2.227 2.5 2.5 0 0 0 1.2 2.227 3.533 3.533 0 0 0-1.714 2.912 2.778 2.778 0 0 0 1.2 2.4 4.783 4.783 0 0 0 3.083 1.028 4.783 4.783 0 0 0 3.083-1.028 2.991 2.991 0 0 0 1.2-2.4 3.18 3.18 0 0 0-1.714-2.912zm-3.94-3.255a2.084 2.084 0 0 1 2.741 0 1.734 1.734 0 0 1 .685 1.2 1.293 1.293 0 0 1-.685 1.2 2.084 2.084 0 0 1-2.741 0 1.734 1.734 0 0 1-.685-1.2 1.147 1.147 0 0 1 .685-1.199zm2.912 7.537a2.569 2.569 0 0 1-3.083 0 1.713 1.713 0 0 1 0-2.741 2.763 2.763 0 0 1 1.542-.514 2.094 2.094 0 0 1 1.542.514 1.558 1.558 0 0 1 .685 1.37 1.259 1.259 0 0 1-.686 1.372z" fill="#a23da2"/><g data-name="noun-clover-404163"><path data-name="Path 242" d="M3.056 29.923c1.108.642 2.642.362 3.837.182.255-.039 3.608-.733 3.61-.725.034.283-1.864 1.192-2.091 1.354a5.366 5.366 0 0 0-2.33 3.011c-.654 3.1 3.5 6.964 6.234 7.644a5.007 5.007 0 0 0 5.876-3.353 10.527 10.527 0 0 0 .442-5.513c-.085-.415-1.078-2.516-.905-2.843.142-.267 2.3 1.492 2.439 1.62a9.316 9.316 0 0 1 2.558 3.818c.25.746.1 2.84 1.184 2.917 1.789.126 2.1-.948 1.553-2.354a16.492 16.492 0 0 0-2.617-4.553c-.262-.316-3.176-2.99-3.173-3 .143-.191 1.934.393 2.137.432a21.192 21.192 0 0 0 4.012.389c2.519-.012 6.1-.6 6.443-3.676.314-2.809-.864-6.783-3.051-8.619-1.572-1.32-2.967-.986-4.433.289a19.842 19.842 0 0 0-2.039 2.044c-.174.2-1.253 1.9-1.5 1.815a15.288 15.288 0 0 1 1.136-2.308 8.128 8.128 0 0 0 1.144-3.888c-.155-2.72-2.862-3.852-5.241-4.031-2.817-.212-7.244.568-8.371 3.651-.538 1.472.4 3.173.964 4.505.1.239 1.469 3.365 1.435 3.368-.557.051-1.576-1.9-1.843-2.238a9.474 9.474 0 0 0-3.271-2.941c-2.867-1.31-5.405 1.89-6.18 4.276-.891 2.747-.818 7.075 2.041 8.727z" fill="#251a47" stroke="#a23da2"/></g><g data-name="noun-clover-404165"><path data-name="Path 243" d="M20.553 98.434c2.031-1.607 1.665-4.981 2.332-7.231.079-.263.302-1.113.722-1.014a2.7 2.7 0 0 1 .997.872 92.386 92.386 0 0 1 1.927 2.078c.759.832 1.986 2.142 2.729 2.987l1.47-1.47c-.845-.743-2.155-1.97-2.987-2.73a89.193 89.193 0 0 1-2.077-1.928 2.7 2.7 0 0 1-.872-.996c-.1-.421.751-.643 1.014-.722 2.25-.667 5.625-.302 7.231-2.333a3.575 3.575 0 0 0 .014-3.792c-1.127-2.313-4.289-5.515-7.17-4.8-4.384 1.086-.076 7.212-2.2 9.738-.402.479-.51.244-.804-.302a9.049 9.049 0 0 1-.909-3.04c-.3-2.229-.656-5.15-2.638-6.584-1.816-1.312-4.13.104-5.755 1.803-1.7 1.625-3.116 3.94-1.799 5.758 1.433 1.982 4.355 2.337 6.584 2.639a9.067 9.067 0 0 1 3.04.908c.546.294.78.402.302.804-2.526 2.124-8.652-2.183-9.739 2.2-.714 2.881 2.487 6.043 4.801 7.17a3.575 3.575 0 0 0 3.787-.015z" fill="#251a47" stroke="#a23da2"/></g></g></svg>