<svg xmlns="http://www.w3.org/2000/svg" width="85.546" height="113.962"><g data-name="Slots Prev"><g data-name="Group 20" opacity=".65"><path data-name="Side Bg" d="m12.97 29.84-5.286 4.258-3.541 5.515-2.287 6.276-.986 6.546.583 6.052 1.345 5.468 2.331 5.291 2.869 4.933 4.035 4.706 5.111 4.217 6.635 3.27 7.4 1.212 7.756-1.212-13.721-4.485-8.07-6.408-3.674-4.71-3.365-6.408-2.421-7.714-.714-7.665 1.031-6.365 2.284-6.234 3.362-5.468z" fill="#342562"/><path data-name="Sqr 1" d="m7.234 48.336 7.052.875v6.469l-6.411.7z" fill="#a23da2"/><path data-name="Sqr 2" d="m17.316 74.913 6.119 5.129 2.448-5.654-4.721-4.254z" fill="#a23da2"/><path data-name="Sqr 3" d="m39.698 85.065-1.224-5.712 6.527-1.282 1.69 5.07z" fill="#a23da2" stroke="#707070"/><path data-name="Sqr 4" d="m53.685 67.173 5.3 2.737 1.635-6.584-5.886-.816z" fill="#a23da2"/><path data-name="Sqr 5" d="m50.518 42.628 4.8-3.489 3.088 5.886-5.304 3.264z" fill="#a23da2"/><path data-name="Sqr 6" d="m19.708 26.319 6.469-2.39 1.982 5.828-4.663 1.515z" fill="#a23da2"/><path data-name="Rec 6" d="m13.942 49.101.641-4.622 1.743-5.227 2.879-4.471 3.409-3.03.985-.606-4.394-5.076-5.263 4.167-2.692 3.939-1.895 3.713-1.439 3.481-.682 4.7v2.35z" fill="#342562"/><path data-name="Rec 5" d="m7.478 56.754 1.043 5.076 2.349 5.379 2.576 4.394 3.032 3.637 4.47-5.455-3.638-4.849-2.2-4.7-.982-4.543z" fill="#342562"/><path data-name="Rec 4" d="m22.69 80.621 5 2.8 5 1.44 6.44.53-1.06-5.982-5.834-1.213-4.167-2.045-2.579-1.061z" fill="#342562"/><path data-name="Rec 3" d="m44.738 78.071 3.788-2.754 2.955-3.486 1.667-4.243 6.061 3.107-3.637 5.91-4.091 3.783-5 3.106z" fill="#342562"/><path data-name="Rec 2" d="M54.511 62.138v-5.536l-.758-4.164-1.136-3.488 5.985-3.712 1.592 5.379s.985 4.394.909 4.7 0 5.531 0 5.531l-.379 2.727z" fill="#342562"/><path data-name="Rec 1" d="m49.587 42.284-4.091-5.38-4.7-3.56-5.529-2.652-3.333-.759h-4.243l-1.743-6.136 4.849-.531 4.851.531 5.91 2.349 4.47 2.727 4.014 3.333 3.03 3.56 2.046 3.183z" fill="#342562"/><path d="m15.003 57.891-.682-4.394v-4.7l.682-4.622 1.212-3.942 2.576-4.39 3.41-3.11 3.712-2.042 3.637-.758 5.3.379 4.319 1.743 4.095 2.878 4.016 3.94 3.561 5.3 2.8 5.683 1.212 7.121-.532 5.687-.682 4.243-2.349 4.849-4.016 4.243-6.061 2.8-7.122-.3-7.349-3.56-5.375-4.471-4.318-6.516z" fill="#251a47"/><path data-name="Clov Bg" d="m25.534 59.936-.379-2.727.758-2.122 1.363-.989 1.288-.45h1.591l-1.591-1.97-.53-2.349v-1.667l.53-1.591.985-.985 1.061-.757 1.288-.531h3.334l1.212 1.288.985 2.2.455 1.364v1.513l1.591-.834h2.046l1.591.834 1.287 1.515.456 1.667v2.122l-.455 1.287-1.289 1.364-.985.833-1.591.531h-1.44l.833 1.591.606 1.287.456 1.438-1.894 1.061-1.667.531-1.743-.531-.455-2.5-.455-1.287-2.878 1.668h-2.349l-2.273-.834-.833-.833z" fill="#251a47"/><path data-name="Path 132" d="M17.9 26.156C5.54 31.094-.484 42.405.03 55.236c1.114 27.82 28.9 42.234 47.717 28.9 14.229-6.569 17.995-25.212 11.465-40.463C51.8 26.359 32.594 16.566 17.9 26.156zm37.315 36.926 4.594.5h.032v.019l-1.216 5.355-3.838-2.131a.729.729 0 0 0-.359-.085 26.5 26.5 0 0 0 .787-3.658zm-1.908 1.989c-1.4 5.968-4.644 10.315-9.14 12.24-9.24 3.952-21.947-3.315-27.19-15.559-5.863-13.693.143-31.258 13.49-31.258 13.681 0 26.842 17.493 22.84 34.577zM24.753 24.708c.223-.048.439-.109.67-.138a20.4 20.4 0 0 1 1.932 4.724 14.031 14.031 0 0 0-3.277 1.074l-3.227-4.029a14.158 14.158 0 0 1 3.902-1.631zm-2.037 6.369c-4.744 2.814-8.708 8.737-9.4 17.041l-5.487-.584c.632-8.29 4.401-16.24 11.606-20.552zm-4.225 43.985c-.091-.092-.244-.244-.264-.278a42.4 42.4 0 0 1 3.006-3.653 30.23 30.23 0 0 0 3.823 3.537l-1.97 4.378a26.4 26.4 0 0 1-4.595-3.984zm-1.637-.88a37.7 37.7 0 0 1-8.393-17.033c1.995-.2 3.334-.457 5.35-.668a29.924 29.924 0 0 0 6.431 13.486c-2.89 3.465-3.169 3.694-3.387 4.215zm-3.312-19.188c-1.858.2-3.326.455-4.893.624a17.031 17.031 0 0 1-.38-6.524l4.976.53a30.233 30.233 0 0 0 .297 5.37zm-6.005-14.3C1.5 61.271 16.939 85.532 37.3 86.21 7.584 91.973-11.315 47.14 12.957 30.505a27.3 27.3 0 0 0-5.42 10.189zm16.568 39.757 2.195-4.872a22.765 22.765 0 0 0 11.461 4.257 34.064 34.064 0 0 0 .971 4.892 26.111 26.111 0 0 1-14.627-4.277zm16.1 4a29.145 29.145 0 0 1-.922-4.59 15.047 15.047 0 0 0 5.08-1.023c.63 1.189.794 2.45 1.353 3.752a24.8 24.8 0 0 1-5.506 1.862zm10.928-41.774a.75.75 0 0 0 .29-.1 19.29 19.29 0 0 0 3.727-2.819 42.328 42.328 0 0 1 2.73 4.962 26.257 26.257 0 0 1-4.416 2.874 28.63 28.63 0 0 0-2.331-4.917zm3.415-4.456a29.412 29.412 0 0 1-4.127 3.3c-5.339-8.289-13.89-13.2-21.575-12.441a19.689 19.689 0 0 0-1.9-4.848c10.761-1.763 21.389 4.651 27.602 13.989zM47.4 82.634a10.359 10.359 0 0 1-.827-2.187 12.667 12.667 0 0 0-.832-2.221 17.569 17.569 0 0 0 8.249-10.132.7.7 0 0 0 .062.053l4.448 2.467a22.835 22.835 0 0 1-11.1 12.02zm13.244-20.375c-.465-.214-.5-.147-5.275-.677a31.8 31.8 0 0 0-1.394-12.549 27.733 27.733 0 0 0 4.577-2.932 35.5 35.5 0 0 1 2.092 16.158z" fill="#563da2"/><path data-name="Path 133" d="M40.771 48.592a6.036 6.036 0 0 0-2.208.3c-.506-3.781-2.87-6.83-6.664-6.175a6.05 6.05 0 0 0-4.079 8.753 9.576 9.576 0 0 0 .868 1.313 4.584 4.584 0 0 0-4.343 4.903c.08 4.733 5.407 7.668 10.2 4.609.207.864.409 1.619.675 2.389a2.3 2.3 0 0 0 2.76 1.474 9.408 9.408 0 0 0 2.591-1.037 2.311 2.311 0 0 0 .742-3.251c-.375-.57-.7-1.054-.981-1.51a5.865 5.865 0 0 0 4.742-3.214c1.808-3.689-.623-8.493-4.303-8.554zm2.953 7.891a4.212 4.212 0 0 1-4.535 2.3.754.754 0 0 0-.864 1.012 20.714 20.714 0 0 0 1.732 2.9.806.806 0 0 1-.255 1.132 7.938 7.938 0 0 1-2.182.867.813.813 0 0 1-.971-.5 31.589 31.589 0 0 1-.889-3.348.754.754 0 0 0-1.219-.41 6.335 6.335 0 0 1-4.266 1.605 4.406 4.406 0 0 1-4.064-6.08c.662-1.375 1.9-1.9 3.791-1.6a.754.754 0 0 0 .825-1c-.282-.78-1.295-1.833-1.66-2.566a4.552 4.552 0 0 1 2.989-6.593c3.335-.57 4.96 2.809 5 6.121a.754.754 0 0 0 1.4.378c.252-.42.985-.622 2.188-.6a3.189 3.189 0 0 1 2.134 1 4.882 4.882 0 0 1 .845 5.381z" fill="#a23da2"/><path data-name="Path 134" d="m50.117 24.276-.672 3.091a.754.754 0 0 0 1.474.317l.672-3.088a.754.754 0 1 0-1.474-.32z" fill="#a23da2"/><path data-name="Path 135" d="M55.662 26.7a.751.751 0 0 0-1.065.032l-2.281 2.424a.754.754 0 0 0 .55 1.27c.572 0 .573-.377 2.828-2.662a.752.752 0 0 0-.032-1.064z" fill="#a23da2"/><path data-name="Path 136" d="m55.388 33.244 3.091-.4a.755.755 0 0 0 .65-.845.762.762 0 0 0-.845-.65l-3.09.404a.754.754 0 1 0 .194 1.491z" fill="#a23da2"/></g><g data-name="Group 18" transform="rotate(30 19.412 43.337)"><circle data-name="Left Bg" cx="8.818" cy="8.818" r="8.818" transform="translate(15.208 18.896)" fill="#251a47"/><path data-name="Right Bg" d="M9.293 18.841a8.953 8.953 0 0 1 5.816 2.19c1.755 1.445.316 3.556.316 6.293 0 2.873 1.312 5.761-1.024 7.524a8.588 8.588 0 0 1-5.108 1.629 8.818 8.818 0 0 1 0-17.636z" fill="#251a47"/><path data-name="Path 124" d="M17.1 22.289a8.713 8.713 0 0 0-.932 1.357 7.924 7.924 0 1 0 0 8.428 8.713 8.713 0 0 0 .932 1.357 9.457 9.457 0 1 1 0-11.141z" fill="#a23da2"/><path data-name="Path 125" d="M4.601 28.304a.767.767 0 1 1-1.534 0c0-3.79 2.262-6.834 5.879-6.834a.767.767 0 0 1 0 1.534c-2.655 0-4.345 2.275-4.345 5.3z" fill="#a23da2"/><path data-name="Path 126" d="M18.915 28.304a.767.767 0 1 1-1.534 0c0-3.79 2.262-6.834 5.879-6.834a.767.767 0 0 1 0 1.534c-2.655 0-4.345 2.275-4.345 5.3z" fill="#a23da2"/><path data-name="Path 127" d="M23.771 37.317a9.457 9.457 0 1 1 9.457-9.457 9.457 9.457 0 0 1-9.457 9.457zm0-1.534a7.924 7.924 0 1 0-7.923-7.923 7.924 7.924 0 0 0 7.923 7.924z" fill="#a23da2"/><path data-name="Path 128" d="M18.056 6.111c-5.772 3.663-9.053 6.983-9.053 12.3l-1.2.135c0-5.942 3.264-9.816 9.434-13.732C21.536 2.086 27.175 0 29.253 0c.783 0 1.383.481 1.127 1.3a3.53 3.53 0 0 1-.815 1.189C29.42 2.657 28.503 3.66 28.204 4c-.622.7-1.159 1.356-1.67 2.046-2.918 3.939-4.461 7.525-3.528 12.4l-1.456.247c-1.024-5.344.6-9.3 3.752-13.555.54-.729 1.1-1.415 1.754-2.149.247-.279.877-.972 1.192-1.32a36.633 36.633 0 0 0-10.192 4.442z" fill="#563da2"/></g><path data-name="Bg" d="m53.68 63.582.264-3.434v-3.564l-.264-4.093 1.188-5.216 2.84-5.284 4.754-3.564 5.744-2.179 7.527.4 7.263.331 1.254 3.1-.594 4.16.594 5.282-1.254 5.216-2.374 5.083-3.3 3.037-4.49 2.508-3.763.992H63.65l-3.1-.661h-4.559z" fill="#251a47"/><path data-name="Path 129" d="M84.948 44.898a11.983 11.983 0 0 1 .289-3.058 4.751 4.751 0 0 0-.765-4.693 4.712 4.712 0 0 0-4.655-.923 12.29 12.29 0 0 1-3.077.173 18.445 18.445 0 0 0-23.085 22.388 11.886 11.886 0 0 1-.289 3.058 4.751 4.751 0 0 0 .769 4.693 4.712 4.712 0 0 0 4.655.923 12.29 12.29 0 0 1 2.981-.231 17.618 17.618 0 0 0 5.289.789 18.426 18.426 0 0 0 17.887-23.08zm-6.347 16.563a16.714 16.714 0 0 1-16.349 3.847 10.482 10.482 0 0 0-3.847.154c-1.558.231-2.327.308-2.981-.365s-.558-1.462-.269-3a16.252 16.252 0 0 0 .289-3.847 16.5 16.5 0 0 1 20.811-19.989 14.194 14.194 0 0 0 3.847-.154c1.558-.231 2.327-.308 2.981.365s.558 1.462.269 3a10.694 10.694 0 0 0-.289 3.847 16.464 16.464 0 0 1-4.462 16.142z" fill="#a23da2"/><path data-name="Path 130" d="M68.061 42.706a8.117 8.117 0 0 0-5.155 2.558 7.982 7.982 0 0 0-2.75 5.058.981.981 0 0 0 .942.981.962.962 0 0 0 .962-.943 6.309 6.309 0 0 1 2.193-3.712 6.347 6.347 0 0 1 3.733-2.019.981.981 0 0 0 .981-.962.962.962 0 0 0-.906-.961z" fill="#a23da2"/><g><g data-name="Group 19"><path data-name="Bg" d="m29.809 103.586-2.333-27.625 7.818-.551 4.024.913 9.321 5.382 2.369 2.458 1.628 2.286 2.048 5.223z" fill="#251a47"/><path data-name="Path 131" d="M42.268 69.869a.853.853 0 0 0-1.197.847l.199 3.071a.853.853 0 1 0 1.697-.112l-.2-3.071a.854.854 0 0 0-.5-.735zm5.175 2.987a.853.853 0 0 0-1.092.37l-1.28 2.216a.854.854 0 0 0 1.48.854l1.278-2.216a.853.853 0 0 0-.386-1.224zm5.163 2.981a.854.854 0 0 0-.713.034l-2.759 1.363a.853.853 0 1 0 .752 1.527l2.757-1.363a.853.853 0 0 0-.037-1.56zm-12.95-.569a.862.862 0 0 0-.183-.058l-5.286-1.081a.853.853 0 0 0-.285-.011l-6.937.918a.853.853 0 0 0-.741.91l2.1 28.666-.007.011a.848.848 0 0 0 .007.174l.01.036.004.048.016.025a.881.881 0 0 0 1.192.55l.007-.012.06-.026a.842.842 0 0 0 .076-.05l25.85-12.495a.853.853 0 0 0 .417-1.097l-2.674-6.469a.851.851 0 0 0-.152-.242l-3.583-4.038a.852.852 0 0 0-.211-.168l-9.613-5.55-.07-.04zm-.691 1.576 9.425 5.442 1.818 2.05-4.265-.509-7.09-4.094-2.572-3.442 2.684.55zm-5.135-1.001 3.347 4.472-2.745 2.94-5.553-6.76 4.95-.652zm17.995 10.39 1.911 4.61-8.63-1.428 1.172-3.845zm-13.396-4.78 6.236 3.6-1.157 3.764-8.86-2.575 2.68-2.884zm-10.318-3.201 5.353 6.491-3.817 14.693-1.536-21.184zm24.486 14.137-19.115 9.261 10.816-10.652 8.299 1.391zm-17.643-6.544 7.646 4.414-11.815 11.635z" fill="#563da2"/><path data-name="Path 137" d="m41.926 70.637.104 1.585.1 1.585" fill="#fff" stroke="#a23da2" stroke-linecap="round" stroke-width="2.1"/><path data-name="Path 138" d="m45.801 75.901 1.309-2.29" fill="#f5f5f5" stroke="#a23da2" stroke-linecap="round" stroke-width="2.1002940000000003"/><path data-name="Path 148" d="m49.406 78.115 2.922-1.5" fill="#fff" stroke="#a23da2" stroke-linecap="round" stroke-width="2"/></g></g></g></svg>